<?xml version="1.0" encoding="utf-8"?>
<!-- Generator: Adobe Illustrator 22.0.1, SVG Export Plug-In . SVG Version: 6.00 Build 0)  -->
<svg version="1.1" id="Layer_1" xmlns="http://www.w3.org/2000/svg" xmlns:xlink="http://www.w3.org/1999/xlink" x="0px" y="0px"
	 viewBox="0 0 2004 1104" style="enable-background:new 0 0 2004 1104;" xml:space="preserve">
<style type="text/css">
	.st0{fill:#C7B299;}
	.st1{opacity:2.000000e-02;}
	.st2{fill:#9E123A;}
	.st3{fill:#754C24;}
	.st4{fill:#FFFFFF;stroke:#42210B;stroke-width:1.033;stroke-miterlimit:10;}
	.st5{opacity:0.2;}
	.st6{fill:#FFC6AA;stroke:#42210B;stroke-miterlimit:10;}
	.st7{fill:#F2F2F2;}
	.st8{fill:#967160;}
	.st9{fill:#775949;}
	.st10{fill:#7C4E3A;}
	.st11{fill:#FF7BAC;}
	.st12{opacity:5.000000e-02;fill:#FF7BAC;enable-background:new    ;}
	.st13{opacity:5.000000e-02;fill:#A04A10;enable-background:new    ;}
	.st14{opacity:5.000000e-02;fill:#FFFFFF;enable-background:new    ;}
	.st15{fill:#FCAC90;}
	.st16{fill:#42210B;}
	.st17{fill:#29ABE2;}
	.st18{fill:#F1F4E1;}
	.st19{fill:#22B573;}
	.st20{fill:#1F8C58;}
	.st21{fill:#FF00FF;}
	.st22{fill:#00FF00;}
	.st23{fill:#C1272D;}
	.st24{fill:#FFFF00;}
	.st25{fill:#00FFFF;}
	.st26{fill:#ED1C24;}
	.st27{fill:#FFFFFF;}
	.st28{fill:#3FA9F5;}
	.st29{opacity:7.000000e-02;}
	.st30{fill:#F7931E;}
	.st31{opacity:0.15;enable-background:new    ;}
	.st32{fill:#F15A24;}
	.st33{fill:#8CC63F;}
	.st34{fill:#CBCBD3;}
	.st35{fill:#7AC943;}
	.st36{fill:#827B78;}
	.st37{fill:#808080;}
	.st38{fill:#140E0B;}
	.st39{fill:#7F5A47;}
	.st40{fill:#A5877A;}
	.st41{fill:none;stroke:#875F4D;stroke-miterlimit:10;}
	.st42{fill:#8E6857;}
	.st43{fill:#ED1E79;}
	.st44{fill:#93278F;}
	.st45{fill:#75706E;}
	.st46{fill:#E04848;}
	.st47{fill:#1D7247;}
	.st48{fill:#211E21;}
	.st49{fill:#BAB2AB;}
	.st50{fill:#CCC2B8;}
	.st51{fill:#DBD4CC;}
	.st52{fill:#EFE9E1;}
	.st53{fill:#D39024;}
</style>
<title>background2</title>
<rect x="-7.5" class="st0" width="2010.5" height="1104"/>
<g class="st1">
	<rect x="1911" class="st2" width="27.5" height="1104"/>
	<rect x="1850.5" class="st2" width="27.5" height="1104"/>
	<rect x="1790.1" class="st2" width="27.5" height="1104"/>
	<rect x="1729.6" class="st2" width="27.5" height="1104"/>
	<rect x="1669.2" class="st2" width="27.5" height="1104"/>
	<rect x="1608.7" class="st2" width="27.5" height="1104"/>
	<rect x="1548.3" class="st2" width="27.5" height="1104"/>
	<rect x="1487.8" class="st2" width="27.5" height="1104"/>
	<rect x="1427.4" class="st2" width="27.5" height="1104"/>
	<rect x="1366.9" class="st2" width="27.5" height="1104"/>
	<rect x="1306.5" class="st2" width="27.5" height="1104"/>
	<rect x="1246.1" class="st2" width="27.5" height="1104"/>
	<rect x="1185.6" class="st2" width="27.5" height="1104"/>
	<rect x="1125.2" class="st2" width="27.5" height="1104"/>
	<rect x="1064.7" class="st2" width="27.5" height="1104"/>
	<rect x="1004.3" class="st2" width="27.5" height="1104"/>
	<rect x="943.8" class="st2" width="27.5" height="1104"/>
	<rect x="883.4" class="st2" width="27.5" height="1104"/>
	<rect x="822.9" class="st2" width="27.5" height="1104"/>
	<rect x="762.5" class="st2" width="27.5" height="1104"/>
	<rect x="702" class="st2" width="27.5" height="1104"/>
	<rect x="641.6" class="st2" width="27.5" height="1104"/>
	<rect x="581.1" class="st2" width="27.5" height="1104"/>
	<rect x="520.7" class="st2" width="27.5" height="1104"/>
	<rect x="460.2" class="st2" width="27.5" height="1104"/>
	<rect x="399.8" class="st2" width="27.5" height="1104"/>
	<rect x="339.3" class="st2" width="27.5" height="1104"/>
	<rect x="278.9" class="st2" width="27.5" height="1104"/>
	<rect x="218.4" class="st2" width="27.5" height="1104"/>
	<rect x="158" class="st2" width="27.5" height="1104"/>
	<rect x="97.6" class="st2" width="27.5" height="1104"/>
</g>
<rect x="-16.7" y="913.6" class="st3" width="2045.4" height="190.4"/>
<rect x="-30.2" y="903.5" class="st4" width="2052.5" height="37.2"/>
<g class="st5">
	<rect x="0.5" y="1054.6" class="st6" width="2003" height="4.5"/>
	<rect x="0.5" y="1026.4" class="st6" width="2003" height="4.5"/>
	<rect x="0.5" y="998.3" class="st6" width="2003" height="4.5"/>
	<rect x="0.5" y="970.1" class="st6" width="2003" height="4.5"/>
	<rect x="0.5" y="941.9" class="st6" width="2003" height="4.5"/>
</g>
<rect x="100.5" y="185" width="510" height="456"/>
<path class="st7" d="M610.5,641h-510V518.5c0,0,131.9,10.3,175.9,8s130.2-25.5,174.3-26.2c40.3-0.7,159.8,18.2,159.8,18.2V641z"/>
<path class="st8" d="M620.5,650h-530V173h530V650z M109.5,632h492V195h-492V632z"/>
<path class="st9" d="M637.5,673.5c0,5.6-4.6,10.5-10,10.5h-543c-5.4,0-10-5-10-10.5v-13.4c0-5.6,4.6-11.1,10-11.1h543
	c5.4,0,10,5.5,10,11.1V673.5z"/>
<path class="st8" d="M637.5,678.5c0,2.8-4.6,5.5-10,5.5h-543c-5.4,0-10-2.7-10-5.5v-6.7c0-2.8,4.6-4.8,10-4.8h543c5.4,0,10,2,10,4.8
	V678.5z"/>
<path class="st10" d="M625.3,145.8c-4.7,0-8.8,2.2-10.9,8.2H97.8c-2-6-6.1-8.2-10.9-8.2c-6.8,0-12.2,5.7-12.2,13.1
	s5.5,13.4,12.2,13.4c5,0,9.3-3.3,11.2-8.3h516c1.6,4.8,6.1,8.1,11.2,8.1c6.8,0,12.2-5.7,12.2-13.1S632.1,145.8,625.3,145.8z"/>
<path class="st11" d="M326.5,610.9V173h-221v427.8c0,0-2.8,46.7,15.2,44.2s34.1-22.7,52.1-7.6s36.2,16.4,47.5,2.5s33.1,2.5,44.6,9.7
	c20.8,13,33.3-3.4,36.1-13.5s22.6-5.8,25.4-8.5S326.5,610.9,326.5,610.9z"/>
<polygon class="st12" points="167.6,633 148.4,633 151.8,173 163.1,173 "/>
<polygon class="st12" points="208.1,647 189,647 192.4,179 203.6,179 "/>
<polygon class="st12" points="131.5,640 112.3,640 115.7,179 127,179 "/>
<polygon class="st12" points="244.2,634 225,634 228.4,176 239.7,176 "/>
<polygon class="st12" points="305,626.7 293.8,644.1 290.4,173 301.6,173 "/>
<polygon class="st12" points="288.1,653 269,653 272.4,176 283.6,176 "/>
<path class="st11" d="M601.5,609.6V172h-221v427.5c0,0-2.9,46.7,15.1,44.2s34-22.7,52-7.6s36.2,16.4,47.4,2.5s33,2.5,44.6,9.7
	c20.8,13,33.3-3.4,36.1-13.5s22.7-5.8,25.6-8.5S601.5,609.6,601.5,609.6z"/>
<polygon class="st13" points="442.2,632 423.1,632 426.5,172 437.7,172 "/>
<polygon class="st14" points="482.8,646 463.6,646 467,177 478.3,177 "/>
<polygon class="st14" points="406.2,638 387,638 390.4,177 401.7,177 "/>
<polygon class="st13" points="518.8,633 499.7,633 503.1,173 514.3,173 "/>
<polygon class="st13" points="579.7,625.6 568.4,643 565,172 576.3,172 "/>
<polygon class="st14" points="562.8,652 543.6,652 547,173 558.3,173 "/>
<path class="st15" d="M594.5,176.6c0,2.5-1.3,4.4-3.6,4.4h-10.4c-2.3,0-4-1.9-4-4.1c0-0.1,0-0.1,0-0.2v-21.9c0-2.5,1.7-4.7,4-4.7
	h10.4c2.3,0,3.6,2.2,3.6,4.7L594.5,176.6z"/>
<path class="st15" d="M556.5,176.6c0.1,2.3-1.6,4.2-3.9,4.4c-0.1,0-0.1,0-0.2,0H542c-2.4,0-4.4-1.9-4.5-4.4v-21.9
	c0-2.5,2-4.6,4.5-4.7h10.4c2.3,0,4.1,2.2,4.1,4.7V176.6z"/>
<path class="st15" d="M518.5,176.6c-0.1,2.5-2.2,4.4-4.7,4.4h-10.4c-2.3,0-3.9-1.8-3.9-4.4v-21.9c0-2.5,1.6-4.7,3.9-4.7h10.4
	c2.5,0.1,4.6,2.2,4.7,4.7V176.6z"/>
<path class="st15" d="M479.5,176.6c0.1,2.3-1.8,4.3-4.1,4.4c0,0-0.1,0-0.1,0h-10.4c-2.4,0-4.4-2-4.4-4.4v-21.9
	c0-2.5,1.9-4.5,4.4-4.7h10.4c2.4,0.2,4.3,2.3,4.2,4.7V176.6z"/>
<path class="st15" d="M441.5,176.6c0,2.5-2.5,4.4-4.8,4.4h-10.4c-2.3,0-4.8-1.8-4.8-4.4v-21.9c0.2-2.6,2.2-4.6,4.8-4.7h10.4
	c2.6,0.1,4.6,2.1,4.8,4.7V176.6z"/>
<path class="st15" d="M403.5,176.6c0,2.5-3,4.4-5.3,4.4h-10.4c-2.4,0-4.3-1.9-4.3-4.3c0,0,0-0.1,0-0.1v-21.9
	c-0.1-2.5,1.8-4.5,4.3-4.7h10.4c2.3,0,5.3,2.2,5.3,4.7L403.5,176.6z"/>
<path class="st15" d="M325.5,176.6c0,2.4-2,4.4-4.4,4.4h-10.4c-2.3,0-4.2-1.9-4.2-4.2c0,0,0-0.1,0-0.1v-21.9c0-2.5,1.9-4.7,4.2-4.7
	h10.4c2.5,0.2,4.4,2.2,4.4,4.7L325.5,176.6z"/>
<path class="st15" d="M287.5,176.6c0,2.5-2.7,4.4-5,4.4h-10.4c-2.3,0-3.6-1.8-3.6-4.4v-21.9c0-2.5,1.3-4.7,3.6-4.7h10.4
	c2.3,0,5,2.2,5,4.7V176.6z"/>
<path class="st15" d="M248.5,176.6c-0.1,2.4-2.1,4.4-4.5,4.4h-10.4c-2.3,0-5.1-1.8-5.1-4.4v-21.9c0-2.5,2.8-4.7,5.1-4.7H244
	c2.5,0.1,4.5,2.2,4.5,4.7V176.6z"/>
<path class="st15" d="M210.5,176.6c0,2.5-2.8,4.4-5.1,4.4H195c-2.4,0-4.4-1.9-4.5-4.4v-21.9c0-2.5,2-4.6,4.5-4.7h10.4
	c2.3,0,5.1,2.2,5.1,4.7V176.6z"/>
<path class="st15" d="M171.5,176.6c-0.1,2.5-2.2,4.4-4.6,4.4h-10.4c-2.2,0-4-1.8-4-4c0-0.1,0-0.3,0-0.4v-21.9c0-2.5,1.7-4.7,4-4.7
	h10.4c2.5,0.1,4.5,2.2,4.6,4.7L171.5,176.6z"/>
<path class="st15" d="M133.5,176.6c0,2.5-2.9,4.4-5.2,4.4h-10.4c-2.3,0-5.4-1.8-5.4-4.4v-21.9c0-2.5,3.1-4.7,5.4-4.7h10.4
	c2.3,0,5.2,2.2,5.2,4.7V176.6z"/>
<rect x="342.5" y="183" class="st8" width="23" height="458"/>
<rect x="117.5" y="768" class="st16" width="19" height="173"/>
<rect x="566.5" y="768" class="st16" width="19" height="173"/>
<path class="st16" d="M150.5,786.9c0,12.4-10.6,22.4-23.8,22.4s-23.8-10-23.8-22.4s10.6-22.4,23.8-22.4S150.5,774.5,150.5,786.9z"/>
<path class="st16" d="M152.1,901c0,12.4-10.6,22.4-23.8,22.4s-23.8-10-23.8-22.4s10.6-22.4,23.8-22.4S152.1,888.7,152.1,901z"/>
<path class="st16" d="M598.4,786.3c0,12.4-10.6,22.4-23.8,22.4s-23.8-10-23.8-22.4s10.6-22.4,23.8-22.4S598.4,773.9,598.4,786.3z"/>
<path class="st16" d="M600.1,900.5c0,12.4-10.6,22.4-23.7,22.4s-23.8-10-23.8-22.4s10.6-22.5,23.8-22.5S600.1,888.1,600.1,900.5z"/>
<path class="st16" d="M634.5,762.8c0,3.2-5.5,5.2-10.5,5.2H78c-4.9,0-9.5-2-9.5-5.2v-11.4c0-3.2,4.5-4.4,9.5-4.4H624
	c4.9,0,10.5,1.2,10.5,4.4V762.8z"/>
<path class="st16" d="M68.5,756v7.1c0,3.2,4.1,4.9,9,4.9h545.2c4.9,0,8.8-1.7,8.8-4.9V756H68.5z"/>
<rect x="142.5" y="897" class="st16" width="424" height="12"/>
<path class="st17" d="M606.9,719.4c-1.4-4.6-5.7-5-9.9-3.7l0.5-8.7h-32.9l2,40h28.9l0.6-12.5c2.6-0.3,5-1.3,7.1-2.9
	C606.6,728.6,608.1,723.9,606.9,719.4z M599.1,728.1c-0.9,0.5-1.8,0.8-2.8,1l0.4-8c2.4-1.1,4.8-1.7,5.4,0.1
	C602.9,723.7,601.3,726.8,599.1,728.1z"/>
<rect x="573.5" y="707" class="st18" width="1" height="15"/>
<rect x="569.5" y="721" class="st18" width="11" height="15"/>
<polyline class="st19" points="1615.5,202 1705.3,337.2 1663,335.3 1757.1,483.3 1706.3,478.4 1801.4,642.1 1748.6,640.1 
	1862.7,821.4 1793,813.1 1912.3,990 1596.5,990 "/>
<polyline class="st20" points="1616.1,203 1670.6,346.2 1636.2,344.3 1701.5,492.3 1671.2,487.4 1728,651.1 1696.5,649.1 
	1764.6,830.4 1723,822.1 1794.2,999 1604.8,991 "/>
<polyline class="st20" points="1615.5,202 1525.7,337.2 1568,335.3 1473.9,483.3 1524.7,478.4 1429.6,642.1 1482.4,640.1 
	1368.3,821.4 1438,813.1 1318.7,990 1634.5,990 "/>
<polyline class="st19" points="1616.7,204 1562.2,347.2 1596.6,345.3 1531.3,493.3 1561.6,488.4 1504.8,652.1 1536.4,650.1 
	1468.2,831.4 1509.9,823.1 1438.6,1000 1628,992 "/>
<path class="st21" d="M1788.6,759.9c-0.8,0-1.6,0.1-2.4,0.2c8.3,1.2,14,8.8,12.8,17.1c-1.2,8.3-8.8,14-17.1,12.8
	c-6.7-0.9-11.9-6.2-12.8-12.8c-0.1,0.8-0.2,1.6-0.2,2.4c0,10.8,8.8,19.6,19.6,19.6c10.8,0,19.6-8.8,19.6-19.6
	S1799.4,759.9,1788.6,759.9L1788.6,759.9z"/>
<path class="st21" d="M1784.1,790.2c8.3,0,15.1-6.7,15.2-15c0-7.6-5.5-14-13-15c-8.9,1.1-15.9,8.1-17.1,17.1
	C1770.2,784.6,1776.5,790.2,1784.1,790.2z"/>
<path class="st22" d="M1629.6,285.9c-0.8,0-1.6,0.1-2.4,0.2c8.3,1.2,14,8.8,12.8,17.1s-8.8,14-17.1,12.8
	c-6.7-0.9-11.9-6.2-12.8-12.8c-0.1,0.8-0.2,1.6-0.2,2.4c0,10.8,8.8,19.6,19.6,19.6s19.6-8.8,19.6-19.6S1640.4,285.9,1629.6,285.9
	L1629.6,285.9z"/>
<path class="st22" d="M1625.1,316.2c8.3,0,15.1-6.7,15.2-15c0-7.6-5.5-14-13-15c-8.9,1.1-15.9,8.1-17.1,17.1
	C1611.2,310.6,1617.5,316.2,1625.1,316.2z"/>
<path class="st23" d="M1772,582.9c-0.8,0-1.6,0.1-2.4,0.2c8.2,1.2,13.9,8.8,12.7,17s-8.8,13.9-17,12.7c-6.6-1-11.7-6.1-12.7-12.7
	c-0.1,0.8-0.2,1.6-0.2,2.4c0,10.8,8.7,19.5,19.5,19.5s19.5-8.7,19.5-19.5C1791.5,591.7,1782.7,583,1772,582.9L1772,582.9z"/>
<path class="st23" d="M1767.5,613c8.3,0.2,15.1-6.4,15.3-14.7c0.2-7.7-5.6-14.3-13.2-15.2c-8.9,1.1-15.9,8.1-17,17
	C1753.7,607.5,1760,613,1767.5,613z"/>
<path class="st24" d="M1564.3,824.6c-0.9,0-1.8,0.1-2.6,0.2c8.9,1.3,15.2,9.5,13.9,18.5s-9.5,15.2-18.5,13.9
	c-7.2-1-12.9-6.7-13.9-13.9c-0.1,0.9-0.2,1.7-0.2,2.6c0,11.7,9.5,21.3,21.3,21.3c11.7,0,21.3-9.5,21.3-21.3
	C1585.6,834.1,1576.1,824.6,1564.3,824.6L1564.3,824.6z"/>
<path class="st24" d="M1559.4,857.3c9,0,16.4-7.3,16.4-16.3c0-8.2-6-15.1-14.1-16.2c-9.7,1.2-17.3,8.8-18.5,18.5
	C1544.4,851.3,1551.3,857.3,1559.4,857.3z"/>
<path class="st25" d="M1522.3,428.6c-0.9,0-1.8,0.1-2.6,0.2c8.9,1.3,15.2,9.5,13.9,18.5s-9.5,15.2-18.5,13.9
	c-7.2-1-12.9-6.7-13.9-13.9c-0.1,0.9-0.2,1.7-0.2,2.6c0,11.7,9.5,21.3,21.3,21.3s21.3-9.5,21.3-21.3S1534.1,428.6,1522.3,428.6z"/>
<path class="st25" d="M1517.4,461.3c9,0,16.4-7.3,16.4-16.3c0-8.2-6-15.1-14.1-16.2c-9.7,1.2-17.3,8.8-18.5,18.5
	C1502.4,455.3,1509.3,461.3,1517.4,461.3z"/>
<path class="st26" d="M1489,673.9c-0.8,0-1.6,0.1-2.4,0.2c8.2,1.2,13.9,8.8,12.7,17s-8.8,13.9-17,12.7c-6.6-1-11.7-6.1-12.7-12.7
	c-0.1,0.8-0.2,1.6-0.2,2.4c0,10.8,8.7,19.5,19.5,19.5s19.5-8.7,19.5-19.5C1508.5,682.7,1499.7,674,1489,673.9L1489,673.9z"/>
<path class="st26" d="M1484.5,704c8.3,0.2,15.1-6.4,15.3-14.7c0.2-7.7-5.6-14.3-13.2-15.2c-8.9,1.1-15.9,8.1-17,17
	C1470.7,698.5,1477,704,1484.5,704z"/>
<path class="st23" d="M1649.6,591.9c-0.8,0-1.6,0.1-2.4,0.2c8.3,1.2,14,8.8,12.8,17.1c-1.2,8.3-8.8,14-17.1,12.8
	c-6.7-0.9-11.9-6.2-12.8-12.8c-0.1,0.8-0.2,1.6-0.2,2.4c0,10.8,8.8,19.6,19.6,19.6c10.8,0,19.6-8.8,19.6-19.6
	S1660.4,591.9,1649.6,591.9L1649.6,591.9z"/>
<path class="st23" d="M1645.1,622.2c8.3,0,15.1-6.7,15.2-15c0-7.6-5.5-14-13-15c-8.9,1.1-15.9,8.1-17.1,17.1
	C1631.2,616.6,1637.5,622.2,1645.1,622.2z"/>
<path class="st27" d="M1635,903.8c0,0,6.7-21.7,23.8-34.2l1.5,9.1l15.7,12c0,0-28.2,5.6-33.2,13.1"/>
<path class="st27" d="M1648.7,901.6c0,0-11.5-27.5-31.7-34.1l-0.1,18l-10.3,5c0,0,27.6,7.8,34.7,13.5"/>
<path class="st28" d="M1584.5,908h108c3.9,0,7,3.1,7,7v91c0,3.9-3.1,7-7,7h-108c-3.9,0-7-3.1-7-7v-91
	C1577.5,911.1,1580.6,908,1584.5,908z"/>
<g class="st29">
	<path class="st28" d="M1584.5,908h108c3.9,0,7,3.1,7,7v14c0,3.9-3.1,7-7,7h-108c-3.9,0-7-3.1-7-7v-14
		C1577.5,911.1,1580.6,908,1584.5,908z"/>
</g>
<rect x="1651.5" y="896" class="st28" width="14" height="33"/>
<rect x="1622.5" y="896" class="st28" width="14" height="33"/>
<path class="st28" d="M1574.5,899.6v25.2c0,2.1,1,3.8,3,3.8v-32.7C1575.5,895.8,1574.5,897.5,1574.5,899.6z"/>
<rect x="1593.5" y="896" class="st28" width="14" height="33"/>
<rect x="1679.5" y="896" class="st28" width="14" height="33"/>
<path class="st28" d="M1703.5,924.8v-25.2c-0.1-2.1-1.9-3.7-3.9-3.6h-6.1v33h6.1C1701.6,929,1703.5,926.8,1703.5,924.8z"/>
<rect x="1665.5" y="896" class="st28" width="14" height="33"/>
<rect x="1636.5" y="896" class="st28" width="15" height="33"/>
<rect x="1607.5" y="896" class="st28" width="15" height="33"/>
<rect x="1577.5" y="896" class="st28" width="16" height="33"/>
<path class="st30" d="M1452.3,889.7c0,0,59.6-73.7,54.4-28.6C1506.7,861,1548.2,885.9,1452.3,889.7z"/>
<path class="st30" d="M1485.7,891.6c0,0-54.1-76.9-52.2-31.6C1433.5,860,1390.3,882.5,1485.7,891.6z"/>
<polygon class="st11" points="1471.2,1016 1548.5,967.4 1548.5,950.7 1444.4,1016 "/>
<polygon class="st11" points="1390.5,954.2 1499.5,887 1472.7,887 1390.5,937.5 "/>
<polygon class="st11" points="1390.5,1010.2 1548.5,911.4 1548.5,894.7 1390.5,993.5 "/>
<polygon class="st11" points="1516.1,1016 1548.5,995.4 1548.5,978.7 1489.3,1016 "/>
<polygon class="st11" points="1426.2,1016 1548.5,939.4 1548.5,922.7 1399.4,1016 "/>
<path class="st11" d="M1394.2,887c-1.9-0.2-3.5,1.2-3.7,3.1c0,0.2,0,0.4,0,0.5v7.6l19.1-11.2H1394.2z"/>
<path class="st11" d="M1545.3,1016c2.1,0,3.2-2,3.2-4.5v-4.9l-14.2,9.3H1545.3z"/>
<polygon class="st11" points="1390.5,982.2 1544.4,887 1517.6,887 1390.5,965.5 "/>
<polygon class="st11" points="1390.5,909.5 1390.5,926.2 1454.5,887 1427.8,887 "/>
<polygon class="st27" points="1534.3,1016 1548.5,1006.7 1548.5,995.4 1516.1,1016 "/>
<polygon class="st27" points="1489.3,1016 1548.5,978.7 1548.5,967.4 1471.2,1016 "/>
<polygon class="st27" points="1444.4,1016 1548.5,950.7 1548.5,939.4 1426.2,1016 "/>
<path class="st27" d="M1390.5,1011.5c0,2.4,1.6,4.5,3.7,4.5h5.3l149-93.3v-11.3l-158,98.9V1011.5z"/>
<path class="st27" d="M1390.5,993.5l158-98.9v-4.1c0-2.4-1.1-3.6-3.2-3.6h-0.9l-153.9,95.2V993.5z"/>
<polygon class="st27" points="1390.5,965.5 1517.6,887 1499.5,887 1390.5,954.2 "/>
<polygon class="st27" points="1390.5,937.5 1472.7,887 1454.5,887 1390.5,926.2 "/>
<polygon class="st11" points="1409.6,887 1390.5,898.2 1390.5,909.5 1427.8,887 "/>
<rect x="1390.5" y="909" class="st31" width="158" height="19"/>
<path class="st11" d="M1393.5,884h153c3.9,0,7,3.1,7,7v23c0,3.9-3.1,7-7,7h-153c-3.9,0-7-3.1-7-7v-23
	C1386.5,887.1,1389.6,884,1393.5,884z"/>
<path class="st32" d="M1476.6,876.6c0,0,5.7-11,17.3-16.5S1485.4,873.7,1476.6,876.6z"/>
<path class="st32" d="M1479.6,879.2c0,0,10-7.3,22.9-7S1488.8,880.5,1479.6,879.2z"/>
<path class="st32" d="M1463.9,876.6c0,0-5.7-11-17.3-16.5S1455.1,873.7,1463.9,876.6z"/>
<path class="st32" d="M1461,879.2c0,0-10-7.3-22.9-7S1451.8,880.5,1461,879.2z"/>
<path class="st32" d="M1462.8,883.6c0,0-2.5-12.8,6.7-13.5s4.6,12.7,3.2,13.5"/>
<path class="st27" d="M1790,897.8c0,0,4.7-43.5,23.8-34.2c2.1,1,0.3,7.1,1.5,9.1c2.5,4.2,16.5,7.1,15.7,12
	c-1.5,8.8-28.2,5.6-33.2,13.1"/>
<path class="st27" d="M1803.7,895.6c0,0-15.5-47.9-31.7-34.1c-3.4,2.9,2.3,14.2-0.1,18c-1.5,2.4-10.3,2.2-10.3,5
	c0.1,9.3,27.6,7.8,34.7,13.5"/>
<path class="st33" d="M1739.5,902h108c3.9,0,7,3.1,7,7v91c0,3.9-3.1,7-7,7h-108c-3.9,0-7-3.1-7-7v-91
	C1732.5,905.1,1735.6,902,1739.5,902z"/>
<g class="st29">
	<path d="M1739.5,902h108c3.9,0,7,3.1,7,7v14c0,3.9-3.1,7-7,7h-108c-3.9,0-7-3.1-7-7v-14C1732.5,905.1,1735.6,902,1739.5,902z"/>
</g>
<rect x="1806.5" y="890" class="st34" width="14" height="33"/>
<rect x="1777.5" y="890" class="st34" width="14" height="33"/>
<path class="st34" d="M1729.5,893.6v25.2c0,2.1,1,3.8,3,3.8v-32.7C1730.5,889.8,1729.5,891.5,1729.5,893.6z"/>
<rect x="1748.5" y="890" class="st34" width="14" height="33"/>
<rect x="1834.5" y="890" class="st34" width="14" height="33"/>
<path class="st27" d="M1858.5,918.8v-25.2c-0.1-2.1-1.9-3.7-3.9-3.6h-6.1v33h6.1C1856.6,923,1858.5,920.8,1858.5,918.8z"/>
<rect x="1820.5" y="890" class="st27" width="14" height="33"/>
<rect x="1791.5" y="890" class="st27" width="15" height="33"/>
<rect x="1762.5" y="890" class="st27" width="15" height="33"/>
<rect x="1732.5" y="890" class="st27" width="16" height="33"/>
<rect x="1729.5" y="895" class="st33" width="129" height="8"/>
<rect x="1729.5" y="909" class="st35" width="129" height="8"/>
<rect x="735.5" y="413" class="st36" width="476" height="509"/>
<path d="M973.5,490c-128.8,0.6-148,107.5-148,107.5V922h296V597.4C1121.5,597.4,1102.3,489.4,973.5,490z"/>
<polygon class="st37" points="1255.2,944 689.1,944 700.7,909 1243.7,909 "/>
<path class="st37" d="M1219.3,423.3c-0.7,2.6-2.9,4.5-5.7,4.7H733c-2.7-0.2-5-2.1-5.7-4.7l-7.2-31.6c-0.6-1.9,0.6-4,2.5-4.5
	c0.4-0.1,0.7-0.2,1.1-0.1h499.1c2,0,3.7,1.6,3.7,3.6c0,0.4,0,0.7-0.1,1.1L1219.3,423.3z"/>
<path class="st36" d="M692.1,349h563.8c2.6,0,4.6,2.1,4.6,4.6v28.8c0,2.6-2.1,4.6-4.6,4.6H692.1c-2.6,0-4.6-2.1-4.6-4.6v-28.8
	C687.5,351.1,689.6,349,692.1,349z"/>
<path class="st37" d="M734.1,444h476.8c2.6,0,4.6,2.1,4.6,4.6v22.8c0,2.6-2.1,4.6-4.6,4.6H734.1c-2.6,0-4.6-2.1-4.6-4.6v-22.8
	C729.5,446.1,731.6,444,734.1,444z"/>
<rect x="825.5" y="851" class="st38" width="296" height="58"/>
<polygon class="st39" points="1097.3,812.2 852.5,845.2 854.5,815.6 1093.7,778.7 "/>
<path class="st40" d="M863.5,829.4c0.6,7.9-4,15-9.1,15.5s-8.7-5.5-9.2-13.4s4-15,9.1-15.5S862.9,821.5,863.5,829.4z"/>
<path class="st41" d="M861.6,829.6c0.5,7-3.1,13.2-7.1,13.7s-6.9-5-7.4-12s3.1-13.2,7.1-13.7S861,822.6,861.6,829.6z"/>
<path class="st41" d="M859,829.9c0.4,5.5-1.9,10.3-4.4,10.5s-4.5-4-4.9-9.5s1.8-10.3,4.4-10.5S858.5,824.4,859,829.9z"/>
<path class="st41" d="M856.2,830.2c0.3,3.5-0.6,6.5-1.6,6.6s-1.9-2.7-2.2-6.2s0.6-6.5,1.6-6.6S855.9,826.7,856.2,830.2z"/>
<path class="st39" d="M1104.5,794.3c1.3,9.2-1.8,17.2-6.9,17.9s-10.2-6.2-11.5-15.3s1.8-17.2,6.9-17.9S1103.2,785.1,1104.5,794.3z"
	/>
<polygon class="st39" points="1096.5,879 849.5,878 855.5,829 1097.5,822.2 "/>
<path class="st40" d="M862.5,854.1c-0.5,13.4-6,24.1-11.2,23.9s-7.8-11.2-7.3-24.6s6-24.1,11.2-23.9S863,840.7,862.5,854.1z"/>
<path class="st41" d="M860.6,854c-0.4,11.9-4.9,21.4-8.9,21.2s-6.2-9.9-5.7-21.8s4.9-21.4,8.9-21.3S861,842.2,860.6,854z"/>
<path class="st41" d="M857.9,854c-0.3,9.3-3.2,16.7-5.8,16.6s-3.9-7.7-3.5-17s3.2-16.7,5.8-16.6S858.3,844.7,857.9,854z"/>
<path class="st41" d="M855.2,853.8c-0.2,6-1.5,10.8-2.5,10.7s-1.5-4.9-1.3-10.9s1.5-10.7,2.5-10.7S855.4,847.9,855.2,853.8z"/>
<ellipse class="st39" cx="1096.7" cy="850.7" rx="9.3" ry="28.3"/>
<polygon class="st42" points="1093.8,850.1 848.6,820.3 858,792.2 1098.8,816.8 "/>
<path class="st40" d="M863.2,807.8c-1.4,7.8-7.7,13.5-12.8,12.8s-7-7.5-5.5-15.3s7.7-13.5,12.8-12.8S864.7,799.9,863.2,807.8z"/>
<path class="st41" d="M861.3,807.5c-1.3,6.9-6.3,12-10.3,11.5s-5.4-6.6-4.1-13.5s6.3-12,10.3-11.5S862.6,800.5,861.3,807.5z"/>
<path class="st41" d="M858.7,807.1c-1,5.4-4.4,9.5-7,9.1s-3.3-5-2.3-10.4s4.4-9.5,7-9.1S859.7,801.7,858.7,807.1z"/>
<path class="st41" d="M855.9,806.7c-0.6,3.5-2.2,6.2-3.2,6s-1.2-3.1-0.5-6.5s2.2-6.2,3.2-6S856.6,803.2,855.9,806.7z"/>
<path class="st42" d="M1105.2,834.6c-1.1,9.2-6.1,16.2-11.2,15.5s-8.3-8.5-7.2-17.7s6.1-16.2,11.2-15.5S1106.3,825.5,1105.2,834.6z"
	/>
<path class="st43" d="M870.6,413.6c0,0,15.9,87.9,1.6,98.4c-26.7,19.5-90.1,68.5-111.8,44.3s27.8-51.5,42.8-71.6s-4.5-64.5-4.5-64.5
	L870.6,413.6z"/>
<path class="st27" d="M878.6,415.6c1.2,5.4-2.2,10.7-7.6,11.9l-63.4,14.2c-5.4,1.2-10.7-2.2-11.9-7.6l-2.2-9.8
	c-1.2-5.4,2.2-10.7,7.6-11.9l63.4-14.2c5.4-1.2,10.7,2.2,11.9,7.6L878.6,415.6z"/>
<path class="st44" d="M1188.6,421.6c0,0,15.9,87.9,1.6,98.4c-26.7,19.5-90.1,68.5-111.8,44.3s27.8-51.5,42.8-71.6
	s-4.5-64.5-4.5-64.5L1188.6,421.6z"/>
<path class="st27" d="M1196.6,423.6c1.2,5.4-2.2,10.7-7.6,11.9l-63.4,14.2c-5.4,1.2-10.7-2.2-11.9-7.6l-2.2-9.8
	c-1.2-5.4,2.2-10.7,7.6-11.9l63.4-14.2c5.4-1.2,10.7,2.2,11.9,7.6L1196.6,423.6z"/>
<path class="st45" d="M188.4,578.6l1,128.7c0,0-2.6,24.9-5.7,25.4s-39.7,4.4-39.2,10.6s48.8,13,61.2,11.4s39.9-7.3,39.4-10.9
	s-19.2-10.9-35.8-9.8c0,0-9.3-19.7-8.8-27V574.7l-13,0.5L188.4,578.6z"/>
<path class="st27" d="M279.2,565.1c0,0-106.4,34.8-169.7,0.5l38.9-129.7l93.9,1.5L279.2,565.1z"/>
<path class="st46" d="M965.5,124.3c0,0,12.7-41.2,45.2-65l2.8,17.3l29.7,22.8c0,0-53.5,10.6-63,24.9"/>
<path class="st46" d="M991.6,120.2c0,0-21.8-52.1-60.1-64.8l-0.2,34.1l-19.6,9.6c0,0,52.4,14.8,65.9,25.6"/>
<path class="st47" d="M981,293.5c-50.9,0-95.2-34.7-107.5-84c1.4,56.3,48.1,100.9,104.5,99.5c37.4-0.9,71.4-22.3,88.4-55.7
	C1045.3,278.8,1014,293.5,981,293.5z"/>
<path class="st20" d="M981,293.5c33,0,64.3-14.7,85.4-40.2c25.6-50.2,5.7-111.6-44.4-137.2c-50.2-25.6-111.6-5.7-137.2,44.4
	c-7.4,14.4-11.2,30.4-11.2,46.6c0,0.8,0,1.6,0,2.4C885.8,258.8,930.1,293.5,981,293.5z M976.7,142.5c30.1,0,54.5,24.4,54.5,54.5
	c0,8.6-2,17-5.9,24.6c-8.1,27.5-37.1,43.3-64.6,35.1c-21.5-6.3-36.5-25.7-37.2-48.1c-6.5-29.4,12.1-58.5,41.5-64.9
	C968.9,142.9,972.8,142.5,976.7,142.5L976.7,142.5z"/>
<path class="st47" d="M923.5,207.1c-0.1-28.7,23.1-52.1,51.9-52.1c28.7-0.1,52.1,23.1,52.1,51.9c0,5-0.7,10-2.1,14.8
	c13.5-26.9,2.7-59.7-24.1-73.2s-59.7-2.7-73.2,24.1c-3.8,7.6-5.8,15.9-5.8,24.4c0,3.9,0.4,7.9,1.3,11.7
	C923.5,208.2,923.5,207.6,923.5,207.1z"/>
<path class="st46" d="M976.7,102c0,0-16.9,22.1-31.9,30.1c-15,8-20.2,27.8-19.1,34.2l-6-14.9l-16.5,9c0,0,16.5-29.9,31.1-37.5
	s23.6-9.5,31.5-20.9"/>
<path class="st46" d="M963.2,92c0,0,16.9,22.1,31.9,30.1s20.2,27.8,19.1,34.2l6-14.9l16.5,9c0,0-16.5-29.9-31.1-37.5
	S982,103.4,974.1,92"/>
<g>
	<g>
		<path class="st48" d="M689.8,763.2l-98.5,23.9c0,0-5.2,1.9-4.6,6.1c2.7,18.2,24.5,141.4,33,144.6c13.4,5.1,100.9-21.9,100.9-21.9
			L689.8,763.2z"/>
		<g>
			<polygon class="st49" points="695.7,767.9 610.6,788.2 696.5,776.5 			"/>
			<polygon class="st50" points="698.3,769.8 612.9,787.8 699.1,778 			"/>
			<polygon class="st51" points="702,770.6 612.9,787.8 702.8,778.9 			"/>
			<path class="st52" d="M704.6,773.7l-92,14.1c29.5-6.9,83.4-20,83.4-20l-6.1-3.4c0,0-73.5,17.5-98.5,23.9
				c-0.9,0.2-2.8,1.4-2.8,3.3c0,3,3.5,2.4,3.5,2.4l118.3-15.4L704.6,773.7z"/>
		</g>
		<path class="st48" d="M738,936c2.2-4-27.8-157.9-27.8-157.9l-122.9,18c12.5,69.2,27.1,150.8,32.4,153.4
			C624.7,951.9,735.8,939.8,738,936z"/>
	</g>
	<g>
		
			<rect x="660.6" y="820.9" transform="matrix(0.9856 -0.1688 0.1688 0.9856 -135.7757 124.6491)" class="st53" width="9" height="79.8"/>
		
			<rect x="632.1" y="839.8" transform="matrix(0.9856 -0.1688 0.1688 0.9856 -132.947 123.9134)" class="st53" width="60.2" height="8"/>
	</g>
</g>
</svg>
