<?xml version="1.0" encoding="utf-8"?>
<!-- Generator: Adobe Illustrator 23.0.2, SVG Export Plug-In . SVG Version: 6.00 Build 0)  -->
<svg version="1.1" xmlns="http://www.w3.org/2000/svg" xmlns:xlink="http://www.w3.org/1999/xlink" x="0px" y="0px"
	 viewBox="0 0 975.3 720" style="enable-background:new 0 0 975.3 720;" xml:space="preserve">
<style type="text/css">
	.st0{display:none;}
	.st1{display:inline;fill:url(#SVGID_1_);}
	.st2{display:inline;fill:#1D1417;}
	.st3{display:inline;}
	.st4{display:inline;opacity:0.13;}
	.st5{fill:#FFFFFF;}
	.st6{fill:#EDB55D;}
	.st7{fill:none;}
	.st8{display:inline;opacity:8.000000e-02;}
	.st9{fill:#EFBE72;}
	.st10{display:inline;opacity:9.000000e-02;}
	.st11{display:inline;fill:#1B1215;}
	.st12{display:inline;fill:#F4CD87;}
	.st13{display:inline;fill:none;stroke:#000000;stroke-width:2.03;stroke-linecap:round;stroke-linejoin:round;}
	.st14{display:inline;fill:#393133;}
	.st15{display:inline;fill:#202822;}
	.st16{display:inline;fill:#363F38;}
	.st17{display:inline;fill:#171717;}
	.st18{display:inline;fill:#406B79;}
	.st19{display:inline;fill:#21454C;}
	.st20{display:inline;fill:#747C5E;}
	.st21{display:inline;fill:#C09BAE;}
	.st22{display:inline;fill:#ABC5BB;}
	.st23{display:inline;fill:#BA8263;}
	.st24{display:inline;fill:#839FA8;}
	.st25{display:inline;opacity:0.66;fill:#1B1B1B;enable-background:new    ;}
	.st26{display:inline;opacity:0.49;fill:#1B1B1B;enable-background:new    ;}
	.st27{display:inline;fill:#A3B8BF;}
	.st28{display:inline;fill:#537A86;}
	.st29{display:inline;fill:#273A3D;}
	.st30{display:inline;opacity:0.4;fill:#0A0A0A;enable-background:new    ;}
	.st31{display:inline;fill:#315259;}
	.st32{display:inline;fill:#828282;}
	.st33{display:inline;fill:#959EA0;}
	.st34{display:inline;opacity:0.32;fill:#EDB55D;enable-background:new    ;}
	.st35{display:inline;fill:#5E5E5E;}
	.st36{display:inline;fill:none;stroke:#8F8F8F;stroke-width:2.3;stroke-linecap:round;stroke-miterlimit:10;}
	.st37{fill:#69DCFF;}
</style>
<g id="Layer_1" class="st0">
	<title>Dynamic</title>
	
		<linearGradient id="SVGID_1_" gradientUnits="userSpaceOnUse" x1="487.66" y1="721.79" x2="487.66" y2="0.88" gradientTransform="matrix(1 0 0 -1 0 720)">
		<stop  offset="0" style="stop-color:#000000"/>
		<stop  offset="1" style="stop-color:#21454C"/>
	</linearGradient>
	<rect y="-1.8" class="st1" width="975.3" height="720.9"/>
	<path class="st2" d="M366.6,377.2l-18.3,55.5l-46,48.7l-9.9-62.5l32.3-37.3c2.3-3.1,3.3-7.1,2.6-11l-4.4-29.3l12.9-30.1l-22.6,22.7
		c-2,2.2-3,5.2-2.6,8.2l2.8,33l-26,24.3c-0.2,0.2-13-14.1-13-14.1l5-15.5l-8.1,11.4l-7.6-6.9l18.2,30.4c-1.1,1.8-1.8,3.9-1.9,6
		l-2.8,58.5l-28.3-45c-3-4.8-7.4-7.4-12-7l-16.4-0.8l-2.4-27.3l15.7-10.4c0.3-0.2,0.6-0.6,0.6-1l2-17.9c0-0.3,0-0.6-0.1-0.9
		l-5.6-9.2l3.8,10.2l-3.6,17.5l-13.1,7l-2.6-18.1l-2.4,49.8l-9.4-0.4l-17.5-30l6.8,29.5l1.4,5.9c1,4.3,3.8,7.3,7.1,7.6l5.6,1.2
		L196.8,452l16.6-21l26.8,5.7l3.3,6.2l-28.7,29.8l17.2-11.1l4.8,11.6l-0.4-5.3l-0.7-8.4c0-0.2-0.1-0.3-0.1-0.5l11.9-8.7l28.6,54.3
		l-2.9,120.2l43.6-1.8l-10.1-116.9l47-58.1c2.8-3.5,4.6-7.7,5.2-12.1L366.6,377.2z"/>
	<path class="st3" d="M334.5,620.1l-1.7-116.3l-8.9-47.1c-0.4-2.3-2.3-4.1-4.6-4.5l-9.4-1.4l-1.2-27.8c-0.1-2.2-1.8-4.1-4-4.4
		l-26.2-3.8c-1.6-0.2-3-1.3-3.5-2.9l-10.8-30.1l7.1,34.7c0.3,1.7,1.8,3.1,3.6,3.2l25.3,5.8l-1.9,23l-49-5.1l12.9,3.8l-11.6,8.2
		l-13.7,1c0,0.5,14,1,14,1c0.2,0,0.4-0.1,0.6-0.2l13.1-9.3l49.6,14.6l3.3,65.8l-12.9-2.9l-4.7-29c-0.2-1-1.1-1.7-2.1-1.6
		c-0.8,0.1-1.4,0.7-1.6,1.4l-4.7,25.8l-14.4-2.8c-4-0.9-8,1.2-9.5,5l-2.8,7.1l-4.7-0.4l-9.3-19.9l5.5,19.6l-27.2-2.3l35.9,9.7
		c2.9,0.8,6.1,0,8.2-2.2l4.5-4.5l38,13.7l-0.3,77L334.5,620.1z"/>
	<g class="st4">
		<path class="st5" d="M806.1,36.8c5.3,1.6,16.3,7,15.9,7.3c0.2-0.2,0.3-0.2,1.3,0.2c0.5,0.2,1.2,0.5,2.3,1c0.5,0.2,1.2,0.5,1.9,0.9
			l2.4,1.3c-0.2,0.1,1.4,1.1,3.5,2.3s4.7,3,6.7,4.2c-5.4-4-11.2-7.5-17.1-10.5c-1.1-0.5-2.4-1.1-3.8-1.8l-4.5-2
			c-1.6-0.7-3.2-1.5-4.9-2.2l-5.2-2.1l-2.6-1.1l-2.6-0.9l-5-1.7c-3.2-1-6.1-1.7-8.4-2.2l4.8,1.6l2.4,0.8l2.4,0.9
			c1.6,0.6,3.3,1.3,5,1.9c0.9,0.3,1.8,0.6,2.7,1L806.1,36.8z"/>
		<path class="st5" d="M843.4,59.6l1.3,0.7c-1.2-0.8-2.3-1.6-3.5-2.4l-3.6-2.2l-3.6-2.2c-1.2-0.7-2.4-1.4-3.7-2.1l3.3,1.8l4.2,2.7
			c1.4,0.9,2.7,1.8,3.7,2.5C842.3,58.6,842.9,59.1,843.4,59.6z"/>
		<path class="st6" d="M882.9,96.6c-1.2-1,3.8,6,3.4,6.1c0.6-0.8,7.7,11,11.3,17.4l1.9,2.4c-0.4-0.8-0.8-1.8-1.4-2.9s-1.2-2.2-2-3.5
			l-2.4-4.1c-0.9-1.4-1.9-2.9-2.9-4.4c-4.3-6.5-9-12.7-14.1-18.7C878.8,91.4,880.9,94,882.9,96.6z"/>
		<path class="st5" d="M890.6,108.1c1,1.3,2,2.6,3,3.9C891.3,108.6,886,100.9,890.6,108.1z"/>
		<path class="st5" d="M886.2,98.5c-7.2-9.7,4.2,5.9-3.2-3.7C885.5,98,888.3,101.8,886.2,98.5z"/>
		<path class="st6" d="M909.6,143.1c-1.7-3.9-3.2-7.9-5.2-11.7l-1.4-2.9l-0.7-1.4l-0.8-1.4l-3-5.7l2.4,4.7l1.2,2.4l1.1,2.4
			c1.1,2.2,2.3,4.4,3.3,6.7L909.6,143.1z"/>
		<path class="st6" d="M909,144.8c-1.2-3.1-3-8-1-3.7c0.4,1.1,0.8,2.1,1.1,3.1s0.7,1.9,1,2.9l1.9,5.2c0.5,1.7,1.1,3.4,1.6,5.2
			c0.3,0.9,0.5,1.8,0.8,2.8s0.4,1.9,0.7,3c-0.7-2.6-1.6-5.2-2.4-7.7c0.2,1,0.4,2,0.8,3c0.2,0.8,0.5,1.6,0.8,2.6l0.7,2.9
			c0.5,2,1,3.9,1.3,5.2s0.3,2.3,0.1,2.3c2.7,10.6-1-8.3,2.2,5.6c-0.3-1.6-0.7-3.2-1-4.8s-0.6-3.1-1-4.5c-0.8-2.9-1.4-5.7-2.1-8.4
			s-1.5-5.3-2.3-7.9s-1.8-5.2-2.7-7.9c0.9,3.1,1.4,4.4,2.8,8.8c-0.6-1.9-1.4-3.9-2.2-6.1c-0.4-1.1-0.8-2.2-1.2-3.3l-1.4-3.3
			c-1.8-4.5-4.1-9-6.2-13.2c0.9,2.4,2.1,5.1,3.6,8.1c0.7,1.5,1.3,3.1,2.1,4.8S908.4,142.9,909,144.8z"/>
		<path class="st6" d="M918.9,184c1.2,8.5,1.9,21.8,2.3,24.1c0.2-3.1,0.1-6.2-0.2-9.3c-0.2-2-0.5-3.5-0.8-5.5
			c-0.1-1.3-0.3-4.1-0.5-6.2s-0.3-3.3,0.1-1.6C919.9,186.9,918.5,180.2,918.9,184z"/>
		<path class="st6" d="M920.4,217.8c0.1,2.1,0.2,4.2,0.2,6.3l0.1-2c0-0.7,0-1.4,0-2l0.4-0.4c0-0.4-0.2-1.3-0.3-3.2
			c-0.1-1-0.1-2.2-0.1-3.7s-0.1-3.3-0.1-5.5c-0.1,2.2-0.1,3.8-0.1,5.3S920.6,215.5,920.4,217.8z"/>
		<path class="st6" d="M923,220c-0.1,0.7-0.1,1.4-0.2,2.1s-0.1,1.3-0.2,2c-0.1,1.2-0.2,2.4-0.3,3.7s-0.2,2.5-0.3,3.9
			s-0.3,2.9-0.5,4.6c0.7-4.7,1.2-10.4,1.5-15.3c0.1-2.5,0.2-4.7,0.2-6.5c0-1.3,0-2.6-0.1-3.9l0.1,0.8c0,0-0.1-2.2-0.2-5.2
			c0-1.5-0.2-3.2-0.4-4.9s-0.4-3.4-0.5-5c0.2,2.4,0.4,5.3,0.6,8.2s0,5.9,0.1,8.4C922.5,217.8,922.5,221.4,923,220z"/>
		<polygon class="st6" points="923.3,207.9 923.5,211.4 923.6,213.1 923.6,214.8 923.6,213.1 923.5,211.4 		"/>
		<polygon class="st6" points="917.5,244.3 918.1,241.1 918.5,239.4 918.7,237.8 919.7,231.3 919.1,234.5 918.4,239.4 		"/>
		<path class="st6" d="M921.4,228.9c-0.2,2.7-0.4,3.6-0.4,3.7c0.2-0.4,0.3-0.9,0.3-1.4c0.1-0.5,0.2-1,0.3-1.5c0,0.3,0,0.5,0,0.8
			c0,0.5-0.2,1.4-0.3,2.6c0.3-2.1,0.6-4.3,0.7-6.4c0.1-1,0.2-2.1,0.2-3.1s0.1-2,0.1-2.8c0-1.7,0-3,0-3.2c0,0.7-0.1,1.6-0.1,2.7
			c0,0.6,0,1.1,0,1.7s-0.1,1.2-0.1,1.8C922.1,225.5,921.8,227.2,921.4,228.9z"/>
		<path class="st6" d="M915.6,252.7c-0.4,1.8-0.7,3.6-1.1,5.3l-1.3,5.3l1.3-5.3C915,256.3,915.2,254.5,915.6,252.7z"/>
		<path class="st6" d="M907.1,278.5l-0.5,2.1c-2.2,4.8-4.7,10.4-7.5,15.5c-1.3,2.6-2.8,5-4.1,7.2c-0.7,1.1-1.3,2.1-1.9,3.1
			s-1.3,1.8-1.9,2.5c0.7-0.6,0.2,0.4,0.2,0.6s0.2,0,0.6-0.6c0.9-1.2,1.7-2.4,2.5-3.7c0.6-1.3,2.2-4.2,1.8-3.8
			c2.1-3.4,1.9-2.6,3.2-4.9c3-6.1,7.5-15.7,9.2-20.9c-0.9,2.5-1.2,3.1-2,4.9c1-2.7,1.8-4.9,2.5-6.6s1.2-3.2,1.7-4.4
			c1-2.1,1.6-4.3,2-6.6c-0.6,2.5-1.4,5-2.5,7.4c-0.5,1.4-1,2.8-1.6,4.2S907.6,277.2,907.1,278.5z"/>
		<path class="st6" d="M909.3,278.3c0.6-1.5,1.2-2.9,1.8-4.4l1.6-4.4c-0.2,0.7-0.5,1.8-0.8,2.9s-0.8,2.5-1.3,3.7
			c-0.8,1.8-1.5,3.7-2.1,5.6c0.4-0.4,4-9.1,2.9-5.8c-0.4-1.4,4.2-12.1,1.7-7.9c1-2.9,1.4-4.6,1.8-5.6c0.2-0.7,0.5-1.3,0.8-2
			c0.4-0.9,1-1.9,2.4-8.2l0.4-3.6c-0.8,3.5-1.4,6.2-2,8.6c-0.6,2.4-1.3,4.4-1.9,6.4s-1.3,4-2.1,6.3c-0.4,1.2-0.8,2.4-1.3,3.8
			S909.9,276.6,909.3,278.3z"/>
		<path class="st6" d="M892.6,310.3l-2.7,3.7l1.7-1.8l-2.1,3.2l-2.2,2.9c-1.4,1.9-2.8,3.7-4.2,5.3l-4,4.6c-0.7,0.7-1.3,1.5-1.9,2.1
			l-2,2l-3.7,3.7c-1.2,1.2-2.5,2.3-3.6,3.4s-2.3,2.2-3.5,3.3s-2.3,2.1-3.4,3.2c-1.4,1.4-2.8,2.7-4.2,4l-4.4,3.7l-2.2,1.8
			c-0.8,0.6-1.5,1.1-2.3,1.7l-4.6,3.3c-1.5,1.1-3.2,2.1-4.8,3.1s-3.2,2.1-4.9,3c-3.3,1.9-6.7,3.9-10.2,5.8c-3.3,2-1.7,1.2,1-0.2
			s6.1-3.4,6.5-3.5c-1.3,1.1-2.7,2-4.3,2.7c-1.9,0.8-3.7,1.8-5.4,2.9c-0.2,0.2,0.7-0.1,2.1-0.8l2.6-1.2c1-0.5,2.1-1,3.2-1.7
			c2.2-1.3,4.7-2.6,6.9-3.9s4.2-2.6,5.7-3.5l1.6-1.1l1.2-0.9c0.7-0.5,1.1-0.9,1.5-1.2c0.7-0.6,1-1,1.7-1.6c1.3-0.7,2.6-1.6,3.8-2.5
			c1.5-1.1,3.1-2.3,3.8-2.6c1.2-1,2.3-2,3.3-2.9l3-2.7c1.9-1.7,3.7-3.3,5.4-4.9s3.4-3.3,5.2-5.1s3.5-3.9,5.5-6.3
			c2.9-2.6-6.1,6.9-3.3,3.9c1.5-1.7,3-3.3,4.5-5l-0.5,0.5c1.4-1.8,3.1-4,4.9-6.3c1-1.1,1.8-2.4,2.7-3.6l2.8-3.7
			c0.9-1.2,1.8-2.5,2.6-3.6s1.6-2.3,2.3-3.4c1.5-2.1,2.6-3.9,3.4-5.2c-0.8,1.4-1.8,2.8-2.8,4.1c-0.2,0.3-0.3,0.3-0.1-0.1
			s0.6-1,1.2-2.2l2.7-3.6l1.3-2.6c0.5-0.9,0.8-1.8,1.2-2.7l2.4-5.4c-0.9,2-2,4.1-3,6.1c-0.5,1-1.1,2-1.6,2.9l-1.6,2.6l-2.6,4.3
			C893.4,308.6,893,309.4,892.6,310.3z"/>
		<path class="st6" d="M900.1,299.6c3.3-6.2,3-5.9,2.7-5.7s-0.2,0.1,0.1-0.7c0.2-0.4,0.5-1,1-2l1.9-4l-1.7,3.7
			c-0.6,1.2-1.2,2.4-1.8,3.6l-1.9,3.6c-0.3,0.6-0.6,1.2-0.9,1.8l-1,1.8C899,300.9,899.5,300.3,900.1,299.6z"/>
		<path class="st5" d="M857.1,350.5l-5.5,4.1c2.2-1.4,4.2-3,6.1-4.8C859.3,348.3,859.9,347.8,857.1,350.5z"/>
		<path class="st5" d="M836.7,365.7l2.7-2.5l-2.6,1.9c-0.9,0.6-1.7,1.3-2.6,1.9l1.3-0.6L836.7,365.7z"/>
		<path class="st6" d="M816.1,376.3c-2.3,1.2-2,1.2-0.5,0.6c2.4-1,4.7-2.1,6.9-3.3c-1.2,0.6-2.2,1.2-3.2,1.6s-1.7,0.7-2.2,0.9
			C816,376.6,815.6,376.6,816.1,376.3z"/>
		<path class="st5" d="M780,387.9c5.6-1.4,3.1-0.8,0.2-0.2s-6.2,1.2-2.2,0c-0.7,0.3-2.5,0.8-2.9,1c-0.2,0.1-0.1,0.1,0.6,0
			c0.4,0,0.9-0.1,1.6-0.3L780,387.9z"/>
		<path class="st6" d="M742.9,391.6c2.1-0.3,4.3-0.3,6.4-0.2C746.3,391.5,743.9,391.6,742.9,391.6z"/>
		<path class="st6" d="M871.3,334.9l2.7-3L871.3,334.9z"/>
		<path class="st6" d="M869.5,336.8c0.6-0.6,1.2-1.3,1.8-1.9C870.7,335.6,870.1,336.3,869.5,336.8z"/>
		<path class="st6" d="M797.3,381.9L797.3,381.9l0.9-0.2L797.3,381.9z"/>
		<path class="st6" d="M868.9,81.8l-3.8-3.8L868.9,81.8L868.9,81.8z"/>
		<path class="st6" d="M865.1,76.8c1.8,1.6,3.1,2.9,4.2,4.1c1.1,1.2,2.1,2.4,3.1,3.7c1,1.3,2.2,2.7,3.7,4.6s3.3,4.2,5.8,7.1
			c-2-2.4-4-4.9-6.2-7.3l-3.3-3.6c-1.1-1.2-2.2-2.5-3.4-3.6C863,75.1,874,86.3,865.1,76.8z"/>
		<path class="st6" d="M921.3,190.8l0.1,0.5C921.5,192.2,921.4,191.8,921.3,190.8z"/>
		<path class="st5" d="M553,199.4l0.2,0.1l-0.3,4.3c-0.1,1.4-0.2,2.8-0.2,4.3c0-1.4,0.1-2.9,0.1-4.3L553,199.4z"/>
		<path class="st5" d="M553.3,198.2c0.5-4.8,1-9.6,1.8-14.4c-4,28.4-1.3,57.3,7.8,84.5c-0.4-0.8-0.7-1.7-1.1-2.6
			c-0.3-0.8-0.6-1.7-0.9-2.6c-0.5-1.8-1.4-4.4-2.2-7.6c-0.4-1.6-0.8-3.3-1.3-5.2s-0.8-3.8-1.2-5.8c-0.2-1-0.4-2.1-0.6-3.1
			s-0.3-2.1-0.5-3.2c-0.3-2.1-0.7-4.3-0.9-6.5s-0.4-4.4-0.7-6.5s-0.3-4.3-0.4-6.3c-0.3-4.1-0.2-7.9-0.2-11.1c0-1.6,0.1-3.1,0.1-4.3
			s0.1-2.4,0.1-3.2C553.4,199.7,553.4,199,553.3,198.2z"/>
		<path class="st5" d="M553.4,194.1c0-2.1,0.1-4,0.3-5.9s0.5-3.6,0.8-5.4c0.1-0.9,0.3-1.8,0.5-2.8s0.4-1.9,0.6-3
			c0.4-2,0.7-4.3,1.2-6.8c-0.6,3.4-0.9,6.3-1.3,9.1s-0.7,5.7-1.2,8.9C553.9,190.2,553.7,192.1,553.4,194.1z"/>
		<path class="st7" d="M556.8,165.5c0.3-1.1,0.6-2.3,0.9-3.5l1-3.4c0.6-2.2,1.1-4.2,1.5-5.4c-0.3,1.8-0.7,3.6-1.3,5.3l-1.2,3.6
			C557.4,163.4,557.1,164.6,556.8,165.5z"/>
		<path class="st6" d="M558.3,153l0.7-2.1L558.3,153L558.3,153z"/>
		<path class="st6" d="M558.3,153l0.2,0.2C558,154.7,558,154.2,558.3,153z"/>
		<path class="st6" d="M559,150.9c0.6-1.9,1.2-4,1.5-5.2l-0.7,1.9c0.8-2.9,1.8-5.7,3-8.4c-2,5-1.9,5.2-1.7,5.4l3.3-8.1
			c0,0.9-0.7,2.7-1.8,5.1C561.3,144.6,560.1,147.8,559,150.9z"/>
		<path class="st7" d="M569.4,125.2l-0.9,2c-0.3,0.7-0.6,1.4-0.9,2.1l-1.6,4.2c-0.7,1.1-0.2-0.3,0.6-2.3l1.4-3.2
			C568.5,127,569.1,126,569.4,125.2z"/>
		<path class="st6" d="M576.3,113.8c-0.5,0.9-1.8,3.3-2.7,4.8c-0.3,0.5-0.5,1-0.8,1.5c0,0.1,0.2-0.3,0.9-1.4
			c-0.7,1.3-1.4,2.8-2.3,4.4C574.2,117.9,571,122.4,576.3,113.8z"/>
		<path class="st6" d="M571.5,123.2l-1.2,2.3L571.5,123.2z"/>
		<path class="st7" d="M552.1,213.7c0-1.1,0.1-1,0.2-0.6L552.1,213.7z"/>
		<path class="st6" d="M586.7,99.1l2-2.7l-1.6,2.2L586.7,99.1z"/>
		<path class="st6" d="M618.3,348.5l-6.3-5.8c-2.1-2-4.1-4.1-6.3-6.3s-4.3-4.7-6.7-7.3c-1.2-1.3-2.3-2.8-3.5-4.2s-2.5-3-3.8-4.6
			c-0.2,0.6-4.1-5.3-5.1-5.8c-4.6-6.7-8.9-13.6-12.7-20.8c-1-1.8-1.9-3.7-2.8-5.6l-1.3-2.8c-0.5-0.9-0.9-1.8-1.2-2.7
			c-0.8-1.8-1.5-3.5-2.1-5c-0.3-0.8-0.7-1.5-0.9-2.3l-0.8-2.1c-1.9-5.2-2.8-7.6-1.8-4.3l1.6,3.8l-2-3.9c-2.5-7.9-4.9-19.1-6.2-24.6
			c0-0.2,0.2,0.8,0.6,2.5c0.2,0.9,0.4,2,0.7,3.3l1.1,4.3c2,7.8,4.4,15.4,7.4,22.9c0.8,2,1.7,4.1,2.5,6s1.8,3.9,2.7,5.7l1.3,2.7
			l1.3,2.5l2.4,4.6c3.2,5.5,5.3,8.9,5,8.3c0.3,0.7-0.2,0-1.4-1.9s-3.1-4.8-5.2-8.7s-4.5-8.6-6.9-13.9c-0.5-1.3-1.1-2.7-1.7-4.1
			s-1.2-2.8-1.7-4.2s-1.1-2.9-1.6-4.4l-0.8-2.2c-0.3-0.7-0.5-1.5-0.7-2.3c-3.6-11.3-6.2-23-7.6-34.8c-0.3-2.5-0.5-4.8-0.7-6.8
			s-0.2-3.9-0.3-5.4c-0.2-3.1-0.2-5-0.3-5.3l0.3-1.2c-0.1-1.6-0.1-3.1-0.2-4.6s0-2.9,0-4.3c0-2.8,0-5.4,0.1-7.9s0.2-5,0.4-7.5
			s0.5-5,0.8-7.8l0.9-2.3c-0.4,1.9-0.7,3.6-0.8,5s-0.3,2.7-0.5,4c-0.3,2.5-0.3,5.1-0.6,9.2c0.2-1.8,0.3-3.3,0.4-4.8
			c0.1-0.7,0.1-1.4,0.2-2.1s0.2-1.3,0.2-1.9c0.3-2.4,0.6-4.3,0.9-6.2s0.7-3.6,1-5.5s0.7-4.1,1.4-6.7c-0.3,0.1-0.9,2.3-1,2.9
			c-0.1,0.3-0.1,0.1,0.1-0.9s0.6-3,1.3-6.3c0.6-1.9,0.5-0.6,0.6-0.3s0.3-0.5,2-6.3c4.5-13.9,2.9-11.4,7.7-23.2l-0.9,1.9l-0.8,2
			l-1.7,4c1.6-4.4,5.1-12.5,7.5-16.4l-1.1,2.1c-0.4,0.8-0.8,1.7-1.2,2.6c-0.8,1.9-1.7,3.9-2.4,5.7c-1.4,3.8-2.4,6.9-2.1,6.8
			c2.6-6.9,5.6-13.6,9-20l-1,2.7c1.4-2.2,2.2-4,3.2-5.9s2.2-4,4-6.7c1.5-2.6,1-1.9,0.1-0.9s-1.7,2.3-0.9,0.8
			c0.3-0.5,2.3-3.2,4.3-6.2l1.5-2.3c0.5-0.8,1.1-1.5,1.6-2.2c1-1.4,1.9-2.6,2.4-3.5c-0.9,0.8-1.7,1.7-2.4,2.7
			c-0.9,1.3-2.1,2.8-3.2,4.6s-2.3,3.6-3.5,5.4s-2.3,3.6-3.4,5.1c1-1.6,1.9-3.2,2.9-4.8l3.2-4.7c1.6-3.2-0.9,0.6-3.6,4.8
			c-2.5,4.3-5.2,8.9-4.5,7.2c1.9-3.9,4.1-7.7,6.8-11.2l1.9-2.7l0.9-1.3l0.9-1.3c1.2-1.7,2.3-3.4,3.3-5.2c-1.6,2.1-5,6.4-7.5,10.3
			c-2.6,3.8-4.5,6.9-4.1,5.9c1.6-2.5,3-4.6,4.4-7.1c0.7-1.2,1.5-2.5,2.4-3.9s1.9-2.8,3.1-4.5c2-2.6,4.3-5.1,6.4-7.6
			c2.4-3.4,0.3-0.8-1.9,1.7c1.2-1.4,2.5-2.9,3.8-4.5l4.5-4.9c1.5-1.8,3.3-3.4,5.1-5.2l2.7-2.7c0.9-0.9,1.9-1.8,2.9-2.7
			c7.8-7.3,16.4-13.9,25.5-19.4c1.2-0.9,2.2-1.5,3-1.9l1.6-1c0.7-0.5,0.6-0.5,0.4-0.4c-0.4,0.1-1.6,0.7,0.7-0.9
			c2.9-1.5,6.8-3.5,10.6-5.6c1.9-1,4-2,5.8-2.9s3.6-1.8,5.2-2.4c1.9-0.7,5.1-2.6,3.2-2c-2.6,1.2-5.3,2.2-7.8,3.5l-3.8,1.9l-1.9,0.9
			l-1.9,1c0.6-0.6-1.8,0.2-7.2,3.1c1-0.3,0.2,0.2-1.6,1.3l-3.3,1.9l-2,1.2c-0.7,0.4-1.4,0.9-2.1,1.3c-5.7,3.5-11.7,7.9-11.9,8.7
			l-0.1-0.5c-1.5,1.1-2.8,2.3-4.2,3.5l-4.2,3.5c-1.4,1.2-2.7,2.5-4,3.7s-2.7,2.4-4,3.8l0.5-0.4c0,0-0.2,0.2-0.6,0.5l-1.6,1.6
			l-2.4,2.4c-0.9,0.9-1.9,2-2.9,3.1l-3.2,3.6c-1.1,1.3-2.3,2.5-3.3,3.9l-3.2,4l-1.6,1.9l-1.4,1.9l1.1-1.6c0.5-0.7,1.2-1.5,1.9-2.3
			l4.2-5.2c2.6-3,4-4.6-0.2-0.3c1.4-1.7,3.2-3.7,5.2-6c1-1.1,2.1-2.3,3.3-3.4s2.4-2.4,3.7-3.7l1-1l1-0.9l2.1-1.9
			c1.4-1.2,2.8-2.6,4.3-3.9l4.6-3.8l2.3-1.9l2.5-1.8l-2.8,1.7c7.5-6,15.5-11.4,24-16c8.9-4.8,18.1-8.9,27.6-12.3
			c-1.7,0.8-3.5,1.5-5.2,2.4c1.5-0.6,3.3-1.1,5-1.7l5.4-1.8c1.8-0.5,3.6-1,5.3-1.6s3.3-1.1,4.8-1.5c-2,0.5-3.2,0.9-3.9,1.1
			s-0.9,0.2-0.8,0.1s1.5-0.7,2.2-1c2.6-0.8,5.6-1.5,8.8-2.3c1.6-0.4,3.3-0.7,5-1s3.5-0.7,5.3-1l5.5-0.8c0.9-0.1,1.9-0.3,2.8-0.4
			l2.8-0.3l5.7-0.6l5.7-0.4c0,0-0.7,0.1-0.1,0.2c1.3-0.1,2.6-0.2,3.9-0.3l3.9-0.1l4-0.1c1.3,0,2.6,0,3.9,0c2.8,0.1,5.6,0.3,8.3,0.7
			c2.1,0.3,3.9,0.6,6.2,1c2.7,0.3,9.5,1.2,6.9,0.6c-1.5-0.2-2.9-0.5-3.9-0.6c8,0.6,5.5,0.9,15.4,2.4c-7.7-1,2.2,1,1.2,1.3
			c11.3,2.5,1.2-0.5,2.7-0.3l4.6,1.2l3.7,1.2c2.3,0.8,4.2,1.3,6,2l6,2.2l1.8,0.7l1.9,0.8l4.4,1.8c0.4,0-1.9-1-4.4-2l-1.9-0.8
			l-1.8-0.7c-0.8-0.3-1.5-0.6-2.2-0.9c3.8,1.3,8.2,3.1,8.9,3.3l-4-1.7c-1.3-0.6-2.7-1-4.1-1.6c3.5,1.2,6.8,2.7,10.2,4.1
			c1.7,0.7,3.3,1.5,5,2.3l5,2.4c6.9,3.5,13.7,7.3,20.2,11.5l-1-0.8l4.3,2.8c1.4,0.9,2.8,2,4.1,3l-3.2-1.9c2.2,1.6,4.5,3.3,6.5,4.8
			s3.7,3,4.9,3.8l-1.5-1.3c1.8,1.4,3.6,2.8,5.4,4.2c-1.9-1.4-3.8-2.7-5.8-4.1c6.7,5.5,16.4,12.9,25.7,23.7c0.4,0.7-0.5-0.1-2-1.7
			l-2.7-2.9l-1.6-1.7c-0.6-0.6-1.2-1.2-1.8-1.7l-3.6-3.5l-1.7-1.7c-0.6-0.5-1.2-1-1.7-1.4c-1.3-1.2-2.7-2.3-4.2-3.2
			c1.7,1.6,4,3.7,6.1,5.8s4,4,5.1,4.9c-1.5-1.9-3.2-3.7-5-5.3c1.1,1.1,2.3,2.2,3.6,3.4c0.6,0.6,1.2,1.2,1.9,1.8l1,0.9l0.9,1l3.7,4.1
			l1.8,2l1.7,2.1l3.3,4.1c1.1,1.3,2,2.6,3,3.8c1.8,2.4,3.5,4.4,4.7,6c-0.8-1.3-1.7-2.6-2.6-3.9l-2.7-3.8c1.6,2.2,3.1,4.2,4.4,6
			s2.2,3.6,3.2,5.2c1.9,3,3.1,5.4,4.2,6.8l-2.5-3.5c-0.9-1.2-1.8-2.2-2.7-3.3c0.8,1.1,1.7,2.3,2.5,3.5l2.4,3.8
			c0.8,1.3,1.6,2.6,2.4,3.9l2.2,4.1c0.7,1.4,1.5,2.7,2.2,4.1c0.7,1.4,1.3,2.7,2,4.1s1.3,2.6,1.9,3.9s1.1,2.5,1.6,3.7
			c0.1,0-0.2-0.8-0.7-2.1c-0.3-0.6-0.5-1.4-0.9-2.2s-0.8-1.6-1.2-2.4c-1.6-3.3-2.9-5.9-3.1-6.2c0.9,1.4,1.6,2.9,2.4,4.3
			c0.8,1.9,1.5,3.3,2,4.4l1.1,2.8l1,2.8l1.2,3.4c0.6,1.8,1.6,4.6,3,9.2l0.4,0.1c0.3,1.6,1,3.8,1.7,6.2c0.4,1.2,0.7,2.4,1,3.6
			s0.6,2.3,0.9,3.4s0.5,2,0.7,2.8s0.3,1.4,0.4,1.8c0.1,0.8,0,0.7-0.5-0.9c-0.3-1.7-0.7-3.4-1.1-5.2l-0.3,0.5
			c1.9,7.2,3.4,14.6,4.4,22c-0.5-2.1,0.7,8.6,0,5.8c0.5,2.7,0.7,5.5,0.9,8.2c-0.2,1.9-0.5-1.9-1-6.2s-1.2-9.2-1.6-9.6
			c0,0.8,0,1.6,0.1,2.4c0.1,1.2,0.3,2.7,0.4,3.6c-1.5-9.8-1.4-14.8-3.6-24.4l-1.5-4.7l0.5,0.1c-0.5-1.8-1.1-3.5-1.8-5.2
			c-0.6-1.5-1-2.6-1.3-3.3c-0.1-0.6-0.3-1.2-0.4-1.8s-0.4-1.2-0.5-1.8c-0.4-1.2-0.8-2.4-1.2-3.6s-0.8-2.5-1.4-3.7l-1.6-3.8
			c-0.6-1.3-1.1-2.6-1.8-4l-2-4.2c-0.7-1.4-1.4-2.9-2.2-4.5s-1.6-3.1-2.5-4.7c3,5.3,2.2,3.6,0.7,0.7s-3.6-6.8-3-5.9
			c-0.9-1.4-2.1-3.4-3.5-5.6l-4.8-6.8c-1.7-2.3-3.5-4.5-4.9-6.5c-0.7-1-1.4-1.9-2-2.7s-1.1-1.5-1.5-2.1c-2.3-3.2,5.5,6.2-0.4-1.2
			c-1-1.2-1.9-2.2-2.7-3.1s-1.5-1.6-2-2c-1-0.9-1.1-0.9,0.1,0.7c-2.3-2.5-4.7-5.1-7.3-7.7l-3.9-3.9l-4.2-3.8
			c-5.6-5.1-11.5-9.8-17.7-14.1l3,1.8l-2.8-2.1c-0.9-0.7-1.9-1.3-2.8-1.9c-1.9-1.2-3.7-2.4-5.4-3.4c-3.5-1.9-6.6-3.5-8.8-4.6
			c-1.1-0.7-1.8-1-0.4-0.5c-2.6-1.4-4.8-2.5-6.8-3.6s-4.1-1.7-6.2-2.6c-1.1-0.4-2.2-1-3.5-1.4l-4.2-1.5c-1.5-0.5-3.1-1.2-5-1.8
			s-3.9-1.3-6.2-2.1c1.8,1,3.7,1.7,5.6,2.3c0.7,0.3,1.5,0.5,2.3,0.8l2.3,0.9c1.6,0.6,3.2,1.2,4.6,1.7l-1.7-0.1
			c15.5,6.2,31.6,16,42.5,24l-5.2-3.4c2.2,1.9,3.8,3.1,5,3.9s2,1.5,2.8,2.1s1.6,1.1,2.7,2c0.5,0.4,1.2,1,1.9,1.6s1.5,1.5,2.5,2.5
			c6.2,5.3-4.2-4.1,0.5-0.2c2.1,2,1.7,1.9,1.6,2.1s0,0.3,0.5,0.9s1.5,1.5,3.2,3.2c-13.7-13.1-29.2-24-46.1-32.5
			c-8.7-4.3-17.7-8-27-10.9c-9.2-2.8-18.5-4.9-28-6.4c-0.7,0,1.2,0.3,3.2,0.6c-1.6-0.2-4.7-0.5-8.7-1.1c-2-0.2-4.3-0.4-6.9-0.6
			s-5.3-0.4-8.2-0.5c-13.4-0.6-26.8,0.3-40,2.6c-12.6,2.2-25,5.8-36.8,10.7l-3.5,1.5c-1.1,0.5-2.1,1-3.1,1.5l-5,2.5
			c-1.7,0.8-3.3,1.8-4.8,3c-1.8,0.7,3.5-2.3-3.5,1.4c-0.6,0.5-2.3,1.6-0.6,0.8C636,55.9,626.6,62.4,618,69.9
			c-9.4,8.1-18.1,17.1-25.9,26.8c0.3-0.1-0.5,0.8-1.2,1.9c-0.5,0.7-1,1.5-1.4,2.3c-0.7,0.8-1.4,1.7-2.1,2.6s-1.5,1.9-2.2,3
			c-1.5,2.2-3,4.5-4.5,6.9l-4.1,7c-1.2,2.2-2.3,4.3-3.3,6l1.4-2.1c-3.8,7.2-7.2,14.7-10,22.4c-0.1,0.4,0.2-0.2,0.5-1.2l1.3-3
			c-0.5,1.2-0.9,2.2-1.2,3.1s-0.5,1.4-0.8,1.9c-0.2,0.5-0.5,1.1-0.9,1.5l-1.5,5.2l-1.2,5.4c-0.3,0.9-0.6,1.9-0.9,2.9s-0.5,2-0.8,3
			l-1.5,6.1c-0.8,4.1-1.8,8.4-2.3,12.8c-0.7,4.4-1,8.8-1.4,13.4c-0.2,4.6-0.4,9.1-0.2,13.8c0.2,9.4,1,18.7,2.6,27.9
			c1.6,9.2,3.7,18.3,6.5,27.2c1.1,2.5,2.1,4.9,3.2,7.7c0.5,1.4,1.3,2.9,2,4.6l1.1,2.7c0.4,1,0.8,2,1.3,3c-0.6-1.4-1.1-2.8-1.7-4.2
			c1,2.1,1.5,3.2,1.8,3.8s0.2,0.6,0.2,0.6s-0.3-0.1,1.5,3.4c2.6,4.8,1.3,1.2-2-5.4c-1.6-4.3-0.4-1.7,1,1.2
			c5.8,12.8,12.9,25,21.3,36.3C600.4,330.5,608.9,340,618.3,348.5z"/>
		<path class="st6" d="M645.6,365.9c1.3,0.9-1.4-0.7-3.7-1.9s-3.9-2.4-0.8,0c10.1,6.9,24.7,14.1,40.5,19.3l6,1.8c1,0.3,2,0.6,3,0.9
			l3.1,0.7c2,0.5,4.1,1,6.1,1.4l6.1,1.2c7.7,1.4,15.5,2.3,23.3,2.8c1.9,0.1,3.5,0.3,4.9,0.4l3.8,0.1l3.7,0.1c1.3,0,2.8-0.1,4.5-0.1
			c0.1-0.1,0.1-0.2-0.2-0.2l3.2-0.2c1.1-0.1,2.3-0.1,3.5-0.3l7.6-0.8l7.6-1.1c2.4-0.4,4.7-0.9,6.6-1.2c2.2-0.5,3.8-1.2-0.5-0.3
			c3-0.6,5.7-1.3,8.2-1.9l3.7-0.9l3.4-0.9l3.2-0.8c1-0.3,2-0.5,2.9-0.9c1.9-0.6,3.6-1.2,5.2-1.9c-5.6,1.8,5.4-2.3-1.3-0.1
			c3-1,5.1-1.9,6.8-2.5s3-1,4.3-1.3c3.1-0.9,6.2-2.1,9.2-3.5c0.5-0.4,1-0.7-0.8,0.2c2.5-1.2,5.6-2.7,8.8-4.5l4.8-2.9
			c0.8-0.5,1.6-1,2.4-1.5l2.3-1.5l4.2-2.8c1.3-0.9,2.5-1.8,3.5-2.5c1.2-0.9,2.4-1.7,3.8-2.3c1.1-1,2.2-2,3.2-3
			c2-1.4,2.7-1.9,3.8-2.7c1.9-1.4,3.7-2.9,5.4-4.5c3.8-3.6-0.4-0.1,1-1.5c1-0.6,3.9-3.4,7.2-6.6l1.2-1.2l1.2-1.3l2.4-2.5
			c1.5-1.6,3-3.1,4.1-4.3c0.2,0-0.2,0.5-1,1.4s-2,2-3.3,3.3s-2.7,2.8-4.2,4.2s-2.8,2.8-3.8,4c-0.1,0.2,0.6-0.4,1.5-1.3
			c-5.6,5.6-11.6,10.8-17.9,15.5c-5.8,4.2-11.9,8.1-18.1,11.7c-11.8,6.6-24.3,12.2-37.1,16.6c-2.6,0.6-5.1,1.3-7.6,2.2
			c-2.1,0.7-3.9,1.3-5.1,1.8c1.2-0.3,3-0.6,4.9-1.1s4.1-1.1,6.1-1.8c1.8-0.5,3.5-1.1,5.2-1.8c1.3-0.5,2.2-1,2.2-1.2
			c2.8-0.7,5.4-1.8,8.1-2.7c3-1.3,3.2-0.5,4.6-1c-1.4,0.7-2.8,1.2-4.1,1.8s-2.3,1.1-2.9,1.5c-1.3,0.8-0.9,0.9,3-0.6
			c-7.4,3.1-6.4,2.2-5.1,1.3c0.6-0.5,1.3-1,1-1c-1.6,0.4-3.3,1-4.8,1.6l-1.8,1.2c1.2-0.6-1.1,0.1-4.2,1.1c-1.6,0.4-3.4,1-5.1,1.5
			s-3.2,1-4.3,1.3c0.6-0.1,1.2-0.2,1.9-0.4c-9.7,2.6-19.7,4.4-29.7,5.5c-10.9,1.2-21.9,1.4-32.9,0.7c-11.2-0.7-22.3-2.5-33.2-5.3
			c-10.5-2.7-20.7-6.3-30.6-10.8c-1.1-0.7-2.3-1.4-3.7-2.1s-2.8-1.6-4.3-2.4s-3.2-1.6-4.8-2.5l-4.9-2.8c-0.8-0.5-1.7-0.9-2.5-1.4
			l-2.4-1.5c-1.5-1-3.1-2-4.5-2.9c-2.4-1.7-4.8-3.5-7-5.5c-3.8-2.6,4.9,4.3-2.2-0.9c-3.5-2.7-3.5-3.2-3.3-3.2l-3.2-2.5
			c-0.8-1.5,0.5-1.3,4.7,1.4c1.1,0.7,2.3,1.5,3.8,2.5l5.1,3.3l3.1,2l3.5,2.1l3.9,2.3C642.6,364.3,644.1,365,645.6,365.9z"/>
	</g>
	<g class="st8">
		<path class="st9" d="M853.9,0c2.1,1.1,4.2,2.3,4.7,2.6l3,1.8c2,1.2,4,2.4,5.9,3.6l5.8,3.9l2.9,1.9l2.7,2.1l5.6,4.2
			c1,0.7,1.8,1.4,2.7,2.1l2.7,2.2c14.3,11.7,27.2,25,38.4,39.7c-0.5-0.8-0.7-1.3,1.6,1.7l3.6,4.8L937,76l2,2.9l1,1.4l0.9,1.5
			l3.8,6.3c1.3,2.1,2.5,4.4,3.7,6.7c0.6,1.1,1.2,2.3,1.9,3.4s1.3,2.3,1.8,3.5c1.1,2.4,2.3,4.8,3.5,7.3l0.9,1.8
			c0.3,0.6,0.5,1.3,0.8,1.9l1.6,3.8l1.9,4.5c0.7,1.5,1.1,3,1.7,4.5c0.4,1.1,0.9,2.2,1.5,3.2c0.4,1.2,0.8,2.3,1.3,3.5
			s0.7,2.3,1.1,3.4l2,6.6c0.7,2.1,1.2,4.3,1.7,6.3s1,4.1,1.5,6.1c6.3,26.5,8.1,53.9,5.4,81.1c-4.2,41.8-19.3,81.8-43.8,116.1
			c-2.1,2.9-4.2,5.8-6.4,8.6l-6.8,8.3l-7.2,8c-2.5,2.6-5,5.1-7.6,7.7c-21.1,20.6-45.8,37.2-72.9,49l-4.4,1.9l-2.2,1l-2.2,0.8
			l-8.9,3.4l-9,2.9l-2.3,0.7l-2.3,0.6l-4.6,1.2l-4.6,1.2c-1.5,0.4-3.1,0.7-4.6,1l-4.6,1c-1.5,0.3-3,0.7-4.6,0.9l-9.2,1.5
			c-1.5,0.3-3.1,0.4-4.6,0.6l-4.6,0.5c-9.6,0.9-19.2,1.3-28.8,1.1c-2.5,0-5-0.2-7.5-0.4l-3.8-0.2l-1.9-0.1l-1.9-0.2
			c-5.1-0.6-10.2-1-15.3-1.9c-2.5-0.4-5.1-0.8-7.6-1.2l-7.5-1.6l-3.7-0.8l-3.7-1l-7.2-1.9c-2.4-0.6-4.7-1.5-7-2.2l-3.5-1.1l-1.7-0.5
			l-1.7-0.6l-6.6-2.4l-3.2-1.2l-3.1-1.3c0.6,0.4-0.2,0.2-1.9-0.4c-0.9-0.3-2-0.7-3.3-1.2s-2.8-1-4.4-1.8l-5.3-2.4
			c-1.9-0.9-3.9-1.7-5.9-2.8c-4-2.1-8.3-4.2-12.4-6.6l-6-3.5c-1.9-1.2-3.8-2.4-5.5-3.5l-4.9-3.1l-4-2.8c-4.7-3.2-6.6-4.3-3.2-1.5
			c-2.4-1.7-4.8-3.8-7.4-5.9l-3.8-3.2c-1.3-1.1-2.5-2.2-3.8-3.4l-3.7-3.4l-1.9-1.7l-1.8-1.8l-6.8-6.8c-8.4-8.9-14.2-16.3-15-16.9
			c-1.7-1.6-3.4-3.4-4.9-5.2c-1.1-1.3-2.5-2.9-4.1-4.9s-3.2-4.3-5.2-7c-5-7.1-9.5-14.5-13.7-22.1c-6.3-11.8-11.6-24.1-15.8-36.8
			c-4.5-13.4-7.7-27.3-9.5-41.3c-0.2-1.7-0.5-3.4-0.7-5.1s-0.3-3.3-0.5-4.8l-0.4-4.5c-0.1-1.4-0.3-2.8-0.3-4.1
			c-0.2-5.2-0.5-9.3-0.6-11.5c-0.2-3.4-0.2-3.1-0.3-1s0.1,6.2,0.2,10.3c0,1,0.1,2,0.1,3s0.1,1.9,0.2,2.8l0.3,4.5
			c0.1,2.2,0.1,2.5-0.4-1c2.2,23.3,7.6,46.1,16.2,67.9c2.3,5.4,4.4,10.8,7,16c2.4,5.3,5.3,10.3,8,15.5c1.4,2.5,3,5,4.5,7.5l2.2,3.7
			l2.4,3.6c1.6,2.4,3.2,4.8,4.9,7.2l5.2,7l1.3,1.7c0.4,0.6,0.9,1.1,1.4,1.7l2.8,3.4c1.8,2.2,3.6,4.5,5.6,6.6l5.8,6.4
			c2,2.1,4.1,4.1,6.1,6.1c1,1,2,2.1,3.1,3l3.2,2.9l3.2,2.9c1.1,1,2.1,2,3.2,2.9l6.7,5.5c0.6,0.5,1.1,0.9,1.7,1.4l1.7,1.3l3.5,2.6
			l3.5,2.6c1.1,0.9,2.4,1.6,3.5,2.5l7.2,4.8l7.4,4.5c1.2,0.7,2.4,1.5,3.7,2.2l3.8,2.1l3.8,2.1c1.3,0.7,2.5,1.4,3.8,2l7.8,3.8
			c1.3,0.6,2.6,1.2,4,1.8l4,1.7l4,1.7c1.3,0.6,2.7,1,4,1.5l8.1,3l8.2,2.6c1.4,0.4,2.8,0.9,4.1,1.3l4.2,1.1c2.8,0.7,5.6,1.5,8.4,2.1
			c5.7,1.1,11.3,2.5,17,3.2l4.3,0.7l2.1,0.3l2.2,0.2l8.6,0.9c11.5,1,23.1,1.2,34.6,0.5c5.8-0.2,11.5-0.9,17.3-1.4
			c1.5-0.1,2.9-0.4,4.3-0.6l4.3-0.6l4.3-0.6c1.4-0.2,2.8-0.6,4.3-0.8l8.5-1.7l8.5-2.1c1.4-0.4,2.8-0.7,4.2-1.1l4.2-1.3
			c2.8-0.9,5.6-1.7,8.3-2.6l8.2-3l2-0.8c0.7-0.2,1.3-0.6,2-0.8l4-1.7c5.4-2.1,10.6-4.8,15.9-7.3c2.6-1.3,5.1-2.8,7.7-4.1
			c1.3-0.7,2.6-1.4,3.8-2.1l3.8-2.3l3.8-2.3c1.2-0.8,2.5-1.5,3.7-2.3l7.3-4.9c1.2-0.8,2.4-1.7,3.6-2.6l3.5-2.6l3.5-2.6
			c1.2-0.9,2.3-1.9,3.4-2.8c2.3-1.9,4.6-3.7,6.8-5.6l6.5-5.9c9.7-9.2,18.7-19,26.9-29.6l4.2-5.6c0.7-1,1.5-1.9,2.2-2.9
			s1.4-2.1,2.1-3.1l4.4-6.5c1.4-2.3,2.8-4.6,4.2-7c0.7-1.2,1.5-2.4,2.2-3.6s1.4-2.5,2.1-3.8c1.4-2.6,2.8-5.1,4.2-7.8l4-8.3
			c0.7-1.4,1.3-2.8,1.9-4.3s1.2-2.9,1.9-4.4c5.2-12.5,9.4-25.4,12.5-38.6c6.8-29.6,8.4-60.2,4.5-90.3c-4.2-32.2-14.7-63.3-30.9-91.5
			c-15.9-27.6-36.8-52-61.8-71.7c-6.3-5-12.9-9.6-19.4-13.9H853.9z"/>
		<path class="st9" d="M601.3,0c-5.7,3.7-11.2,7.6-16.3,11.6c-29.9,23.2-54,53-70.5,87.1c1.2-2.5,2.6-4.8,3.9-7.1s2.6-4.6,3.9-6.7
			l3.9-6.2l1.9-2.9l2-2.8c-6.3,9.5-12,19.4-16.9,29.7c-2.3,4.5-4,8.8-5.5,12.5s-2.5,6.7-3.3,8.9c-2.3,6-3.6,11-4.8,14.8l-0.8,2.7
			l-0.6,2.4c-0.3,1.5-0.6,2.7-0.9,3.7c-0.9,4.1-0.9,4.6-0.4,3.1s1.6-5.3,3.1-9.7c0.8-2.2,1.6-4.6,2.5-7l1.3-3.6
			c0.5-1.2,1-2.3,1.4-3.5c2.6-6.5,2.4-5.3,2.5-5s0.4-0.4,4.9-10.4l-2.2,5.1c-0.7,1.6-1.4,3.1-1.9,4.7c-1.1,3-2.1,5.8-3.2,8.6
			c-1,2.8-1.8,5.7-2.8,8.7l-0.7,2.4l-0.4,1.2l-0.3,1.3c-0.4,1.7-0.9,3.5-1.4,5.4c0.7-2.1,1.3-4.3,1.8-6.4l2.2-7
			c0.4-1.3,0.8-2.6,1.2-3.9s0.9-2.6,1.4-3.9c1-2.6,1.9-5.1,2.7-7.3s1.8-4.1,2.4-5.6c1.3-2.9,1.8-3.9,0.8-1.3
			c-6.3,14.7-11.2,30-14.4,45.7c0.2-0.6,0.5-2,0.9-3.8c0.2-0.9,0.5-1.9,0.8-3l1-3.6c0.4-1.3,0.7-2.6,1.1-4.1l0.6-2.2l0.7-2.2
			c0.9-3,1.9-6,2.9-9.1c4.2-12,9.1-22.6,8.8-21.4c-0.8,2-2.3,5.5-4.2,9.7c-0.9,2.1-1.7,4.5-2.6,6.9s-1.9,4.9-2.6,7.3l-2.3,7.2
			l-0.5,1.7l-0.4,1.6c-0.3,1.1-0.5,2.1-0.8,3c-0.7,2.4-1.2,4.8-1.7,7.3c-0.1,0.3,1-3.4,2.2-8l1-3.7c0.4-1.2,0.8-2.5,1.2-3.7
			c0.8-2.5,1.5-4.8,2.1-6.7l-2.6,8.4c-0.2,0.7-0.4,1.4-0.6,2l-0.5,2c-0.3,1.3-0.7,2.6-1,3.9s-0.6,2.5-1,3.8l-0.5,1.8l-0.4,1.8
			L498,163c-0.2,1.1-0.4,2.1-0.6,3.1L497,169l-0.7,5.1l-0.6,4.2l-0.2,3.2c-0.3,3.6-0.2,4.3,0.2,1.4l0.3-2.9c0.1-1.2,0.4-2.6,0.7-4.3
			s0.6-3.6,1-5.8l0.6-3.5c0.3-1.2,0.5-2.5,0.9-3.8c-1.7,8.6-3,17.2-3.8,25.9c-0.3,2.3-0.3,4.6-0.5,7l-0.4,6.9c-0.1,4.5,0,8.9,0,13
			v-0.1v-7c0-2.6,0-5.3,0.2-8s0.3-5.4,0.5-7.9l0.1-1.8l0.2-1.7l0.3-3c-0.9,9.1-1.3,18.3-1.2,27.5l0.2-4.8l0.1-5.1
			c0-1.7,0.2-3.4,0.3-5.2l0.3-5.2c0.1-0.9,0.1-1.8,0.2-2.6l0.3-2.6c-0.4,3-0.5,6-0.6,9.1s-0.4,6.1-0.3,9.1c0.1-1.1,0.1-2.3,0.2-3.5
			l0.3-3.8c0.2-2.6,0.5-5.3,0.7-8.2l1-8l0.5-3.9c0.2-1.3,0.5-2.6,0.7-3.8c0.5-2.5,0.9-5,1.3-7.5s1.1-4.8,1.6-7l0.8-3.4
			c0.2-1.1,0.5-2.2,0.8-3.2l1.6-6c0.3-0.9,0.5-1.9,0.8-2.8s0.5-1.8,0.8-2.6c0.5-1.6,1-3.2,1.5-4.6c1.6-5.6,3.9-11.1,5.9-16.6
			c2.3-5.4,4.5-10.9,7.2-16.1c1.3-2.6,2.5-5.3,4-7.9s2.8-5.2,4.3-7.7l4.6-7.5l1.2-1.9l1.2-1.8l2.5-3.7l2.5-3.7
			c0.8-1.2,1.8-2.4,2.6-3.5c1.8-2.3,3.5-4.7,5.4-7l5.6-6.8c0.9-1.2,1.9-2.2,2.9-3.3l3-3.3c8-8.7,16.6-16.8,25.8-24.2
			c10.6-8.6,21.9-16.2,33.8-22.8H601.3z"/>
	</g>
	<g class="st10">
		<path class="st9" d="M478.2,2c-0.9,1-1.7,2.2-2.5,3.3l-2.5,3.3c-1.7,2.2-3.3,4.4-4.9,6.6s-3.1,4.5-4.6,6.7
			c0.6-0.7,1.6-2.2,3.1-4.3c0.7-1.1,1.6-2.2,2.5-3.4l3.1-4l3.5-4.6l1.8-2.5l2-2.4l0.5-0.6h-0.4L478.2,2z"/>
		<path class="st9" d="M479.2,1.4l-1.5,1.8L476.3,5c-0.9,1.2-1.8,2.3-2.6,3.4c-3.2,4.2-5.5,7.3-5.9,8.2c-0.2,0.3,2.9-3.7,6.9-9
			l3.1-4.1c1-1.2,2-2.4,3-3.6h-0.4L479.2,1.4z"/>
		<path class="st9" d="M461.6,28.2l1.3-1.9C462.5,26.9,462,27.5,461.6,28.2z"/>
		<path class="st9" d="M479.6,1.4c-0.6,0.8-1.2,1.5-1.8,2.2l-1.7,2.3l-3.3,4.4l-3.2,4.2l-1.5,2.1l-1.4,2.1l-5.2,7.7l-2.4,3.5
			c-0.7,1.2-1.4,2.3-2,3.4c-1.3,2.2-2.5,4.2-3.6,6l-2.9,5c-0.8,1.5-1.5,2.8-2,3.9c-2.3,4.3-2.6,5.2-0.6,1.8l2-3.4
			c0.4-0.7,0.8-1.5,1.4-2.3l1.7-2.7l4.2-6.7l2.5-4.1c0.6-0.8,1.2-1.7,1.8-2.5c0.4-0.6,0.9-1.2,1.3-1.9l-1.3,1.9
			c-2.6,3.8-5.1,8.1-7.8,12.4l-2.4,3.9l-2.2,4.1l-4.6,8.3l-1.1,2.1c-0.4,0.7-0.7,1.4-1.1,2.1l-2.1,4.3l-4.1,8.5
			c-2.5,5.7-4.7,11.2-6.8,16.2l0.1-0.2c1.1-2.5,2.3-5.5,3.7-8.7s2.7-6.7,4.4-9.9l4.7-9.6l1.1-2.2l1.1-2c0.7-1.3,1.4-2.5,2-3.7
			c-3.1,5.4-5.7,11.1-8.4,16.7l-2,4.2l-1.8,4.3l-3.6,8.6c0.8-1.8,1.8-3.8,2.7-5.9s1.8-4.3,2.7-6.4s2-4.2,3-6.3l3.1-6.4
			c0.5-1.1,1-2.2,1.6-3.2s1.1-2.1,1.7-3.2c-2.1,3.6-3.7,7.4-5.5,11.1s-3.7,7.4-5.2,11.3c0.7-1.4,1.3-2.9,2-4.4l2.3-4.6l5.1-10
			l5.4-9.6l2.6-4.7c1-1.5,1.9-3,2.8-4.5c1.9-3,3.7-5.9,5.5-8.8c1.9-2.8,3.8-5.5,5.6-8.1l2.7-3.8l1.3-1.9c0.4-0.6,0.9-1.2,1.4-1.8
			l5.2-6.7l2.4-3.1l1.1-1.5l1.2-1.4c1.2-1.4,2.3-2.7,3.3-3.9h-3.8L479.6,1.4z"/>
		<path class="st9" d="M478.2,1.4l-1.1,1.3L476,4.1l-4.6,6.1c-0.3,0.5,2-2.5,5.6-7.2l2.5-3h-0.2L478.2,1.4z"/>
		<path class="st9" d="M474.8,1l-2,2.7l-3,4.2c-3.3,4.6-3.6,5.3-2.2,3.6s4.7-5.8,8.7-10.7l0.7-0.8h-1.5L474.8,1z"/>
		<path class="st9" d="M955.2,456.3c-14.3,12.8-29.8,24.3-46.1,34.5l-6.2,3.7l-3.1,1.9c-1,0.6-2.1,1.3-3.2,1.8l-12.9,6.8l-13.2,6.3
			c-4.5,2-9,3.8-13.6,5.7c-37.3,14.8-77,22.6-117.2,23.2l-6.5,0.1h-3.2l-3.2-0.1l-12.9-0.5l-12.9-1.1l-3.2-0.3l-3.2-0.4l-6.4-0.9
			l-6.3-0.9c-2.1-0.3-4.2-0.8-6.3-1.2l-6.3-1.2c-2.1-0.4-4.2-0.7-6.2-1.3l-12.3-3c-2.1-0.5-4-1.1-6.1-1.7l-6-1.8
			c-12.5-3.9-24.7-8.4-36.7-13.7l-1.2-0.5l-1.2-0.5l-2.3-1.1l-4.7-2.2l-4.7-2.2l-2.3-1.1l-2.3-1.2c-6.1-3.4-12.3-6.5-18.2-10.3
			c-3-1.8-6-3.6-8.9-5.5l-8.6-5.9l-4.3-2.9l-4.1-3.1l-8.1-6.1l-1-0.8l-1-0.8l-1.9-1.6l-3.8-3.2l-3.7-3.2l-1.9-1.6l-1.8-1.6l-7-6.5
			l-3.4-3.2l-3.2-3.3c0.5,0.8-0.3,0.1-2.1-1.5c-0.9-0.8-2.1-1.9-3.4-3.2s-3-2.8-4.6-4.6l-5.3-5.8c-1.9-2.1-4-4.2-5.9-6.6l-6-7.2
			c-1-1.2-2.1-2.4-3-3.7l-2.9-3.8l-5.7-7.5c-1.8-2.5-3.4-5-5-7.3l-4.5-6.5l-3.5-5.5c-4.1-6.5-5.8-8.9-3.1-3.7
			c-0.5-0.9-1-1.8-1.6-2.6l-0.8-1.4l-0.7-1.4l-3-5.8c-1-2-2.1-4-3.1-6s-2-4.1-3-6.2l-2.9-6.2c-0.5-1-1-2.1-1.5-3.1l-1.3-3.1l-4.9-12
			c-5.8-15.5-9.3-27.8-9.8-28.9c-0.5-1.1-1-2.3-1.3-3.5c-0.5-1.5-1.1-3.3-1.8-5.6s-1.5-5-2.4-8.2s-1.6-7-2.7-11.4
			c-2.4-11.5-4.2-23-5.4-34.7c-1.6-18-1.8-36.1-0.5-54.1c0.4-4.2,0.8-8.7,1.3-13.4c0.7-4.6,1.4-9.5,2.1-14.3l0.3-1.8l0.4-1.8
			l0.7-3.6c0.5-2.4,1-4.9,1.5-7.3l0.7-3.6c0.3-1.2,0.6-2.4,0.9-3.5c0.6-2.3,1.2-4.7,1.8-6.9s1.1-4.5,1.7-6.7l1.9-6.3
			c0.6-2,1.2-4,1.8-5.9c0.6-1.9,1.1-3.7,1.7-5.3c2.4-6.7,4.3-11.8,5.2-14.7c1.6-4.4,1.4-4,0.3-1.3s-3,7.9-5,13l-1.5,3.8
			c-0.5,1.2-0.8,2.5-1.2,3.7l-1.9,5.7c-0.9,2.8-1.1,3.2,0.2-1.4c-9.3,30.1-14.3,61.5-15,93c0.1,7.8-0.1,15.7,0.5,23.5l0.3,5.9
			c0.1,1,0.1,2,0.2,2.9l0.3,2.9l1.2,11.7c0.5,3.9,1.1,7.7,1.7,11.6l0.9,5.8l1.1,5.7l1.2,5.7l0.6,2.9c0.2,1,0.4,1.9,0.6,2.9l2.9,11.4
			l0.7,2.8c0.3,1,0.6,1.9,0.8,2.8l1.7,5.6c1.1,3.7,2.2,7.5,3.6,11.1l3.9,11c1.4,3.6,3,7.2,4.4,10.8c0.8,1.8,1.5,3.6,2.2,5.4l2.5,5.3
			l2.5,5.3c0.8,1.8,1.6,3.5,2.6,5.2l5.4,10.3c0.5,0.9,0.9,1.7,1.4,2.6l1.5,2.5l3,5l3,5c0.5,0.9,1,1.7,1.5,2.5l1.6,2.4l6.4,9.7
			l6.9,9.4c1.2,1.5,2.2,3.2,3.5,4.7l3.5,4.6l3.6,4.5c1.2,1.5,2.4,3,3.8,4.5l7.7,8.7c0.7,0.7,1.3,1.5,2,2.2l2,2.1l4.1,4.2l4.1,4.2
			c0.7,0.7,1.4,1.4,2.1,2l2.1,2l8.6,7.9l8.9,7.5c1.5,1.2,3,2.5,4.5,3.7l4.7,3.5l4.7,3.5l2.3,1.8c0.8,0.6,1.5,1.2,2.4,1.7
			c6.5,4.3,12.8,8.9,19.5,12.8l5,3l2.5,1.5c0.8,0.5,1.7,0.9,2.6,1.4l10.3,5.6c13.8,7.2,28.2,13.4,42.9,18.6
			c7.3,2.8,14.8,4.9,22.3,7.2c1.9,0.6,3.8,1,5.7,1.5l5.7,1.4l5.7,1.4c1.9,0.5,3.8,0.8,5.7,1.2l11.5,2.3c3.9,0.6,7.8,1.1,11.6,1.7
			c1.9,0.3,3.9,0.6,5.8,0.8l5.9,0.6l5.8,0.5l2.9,0.3l1.5,0.1l1.5,0.1l11.8,0.5l2.9,0.1c1,0,2,0,3,0h5.9c7.9,0.1,15.7-0.5,23.6-0.9
			c3.9-0.3,7.8-0.8,11.8-1.2c2-0.2,3.9-0.4,5.9-0.6l5.8-0.9l5.9-0.9c2-0.3,3.9-0.5,5.8-1l11.6-2.3c1-0.2,2-0.4,2.9-0.6l2.9-0.7
			l5.8-1.5l5.8-1.5c1.9-0.5,3.8-1.1,5.7-1.7c3.8-1.2,7.6-2.3,11.4-3.5l11.2-4c16.9-6.3,33.2-14,48.8-22.9l8.2-4.8l4.2-2.5l4.2-2.8
			l8.8-5.8c2.9-2.1,5.9-4.3,8.9-6.5l4.6-3.4l4.5-3.6l4.6-3.7l2.3-1.9c0.8-0.6,1.6-1.3,2.3-2l9.2-8.2c0.8-0.7,1.6-1.4,2.3-2.1
			l2.3-2.2c0.4-0.4,2.7-2.8,6-6.4l-0.3-11.1C969.2,443.3,962.4,449.9,955.2,456.3z"/>
	</g>
	<path class="st11" d="M512,388.7l-12.6-32.3c-0.8-2.1-2.9-3.3-5.1-3c-8.3,1-27.5,3.4-27.6,2.9c-0.1-0.7-20.1-31.5-20.1-31.5l2.5,14
		l-6.9,2.8l-3.7,9l-14.2,4.3l13.4-1.4c1.9-0.2,3.5-1.4,4.4-3.1l2.2-4.5l7.3-3.3l9.1,17c1,1.8,2.9,2.9,5,2.8l26.5-1.3l9.8,40.6
		l94.8-22.5l19.8,14.2l-11.8-16.4l2.7-0.5c2.3-0.4,4-2.4,4-4.7l0.2-33.1l-6,31.8l-18,4.2l-7-27.7c-0.5-1.8-2.2-2.9-4-2.6l-13.3,2.2
		l-6-12.4l2.9,14.1c0.4,1.7,2,2.9,3.7,2.6l13-1.7l3.3,25.6L512,388.7z"/>
	<path class="st2" d="M650.5,636l21.6-125.2c1-6.2-1.1-12.4-5.6-16.8l-28.8-31.8c-0.3-0.3-0.8-0.5-1.3-0.5l-27-5.4l19.9-4.8
		c1.1-0.3,1.7-1.4,1.5-2.4c0-0.1-0.1-0.2-0.1-0.4l-30.2-27c-0.8-0.7-0.9-2-0.2-2.8c0.5-0.6,1.4-0.8,2.2-0.6l0,0
		c1.2,0.5,6.2,2.2,6.2,2.2l0.1-17.2c0.1-0.7-0.2-1.4-0.7-1.8l-24.1-19l27.4,15.5l7-6.6l-4,10.5l1.2,19.7l31,22.1l3.8-17.2l-3.5-12.4
		l6.8,10c0.2,0.3,0.3,0.5,0.3,0.9l-2,26.7c0,0.4,0.2,0.7,0.4,1l19.5,15.1c0.7,0.9,2,1,2.8,0.3c0.3-0.3,0.6-0.7,0.7-1.1l8.1-14.7
		c0.1-0.5,3.5-7.5,4-7.8l7.5-7.5c0.6-0.3,1-0.9,1-1.6l8.3-38.1c0,0-28.9-23-29.4-23l-16-0.9c-0.9-0.1-1.6-0.7-1.8-1.5l-4.3-16.4
		l7.4,8.8l19.8,2c0.4,0,0.8,0.2,1.1,0.4l26.2,19c0,0,11.6-22.1,12-22.3l23-15.1l-15.9,19.1c-0.3,0.2-0.5,0.5-0.6,0.9l-6.5,20.3
		c-0.1,0.3-0.1,0.5-0.1,0.8l1.2,12.7c0.1,1.1,1.1,1.9,2.2,1.8c0.5-0.1,1-0.3,1.3-0.7l20.8-24.8c0.3-0.4,0.8-0.6,1.3-0.7l11.9-1.3
		l-8.7,5.8c-0.3,0.1-18.7,32.6-18.7,32.6l-6.2,22l29.4-16.6c0.8-0.4,1.7-0.7,2.6-0.8l23.4-2.4l19.1-20.9c1.1-1.3-7.2,15.2-12.1,24.6
		c-2,3.9-5.9,6.4-10.3,6.8l-13.5,0.9c-0.5,0.1-34.1,23-34.1,23l29.8,14.7c1.7-2.6,21.4-24.8,21.4-24.8s-9.6,20.3-8.2,20.5l25.5,2
		l9.1-10.4l-3.8,11.9c-1,3-3.9,4.9-7,4.6l-28-2.3c-0.2,0-3.8,3-6,4.9c-1,0.8-2.4,1.2-3.7,1l-31.9-4.5c-0.7,0.2-1.2,0.8-1.4,1.5
		l-8.4,58.6c-4.5,2.5,38.7-16.2,38.7-16.2l13.2-22.3l-1.2,13.1c0,0,17-6,17.2-6.5l2-8.1c0.7-2.9,3.2-4.9,6.1-5.1l12.4-0.7l-12.2,6
		l-1.4,11.9c-0.2,0.4-0.5,0.7-0.9,0.8l-16,7.4c-0.3,0.1-0.5,0.3-0.7,0.6l-11.8,15c-0.1,0.2-0.3,0.3-0.4,0.4l-45,30.3
		c-0.6,0.4-0.9,1-0.9,1.7l-2,79.1c0,1.1-0.8,2-1.9,2.1c-0.1,0-0.2,0-0.2,0l-58.8,0.1c-1.1-0.1-1.9-1.1-1.8-2.2
		C650.5,636.1,650.5,636.1,650.5,636z"/>
	<path class="st12" d="M716.3,472.3c-0.1,0-0.2,0-0.2,0.1c-1.5,3.6-6,12.3-6,12.3l-0.8-4.1c-0.2-1.5-0.3-3-0.5-4.6v-0.1
		c-0.1-0.5-0.3-0.9-0.7-1.2c-0.8-0.5-1.8-0.2-2.2,0.5c0,0,0,0,0,0l-1.7,2.8c0-0.1,0-0.2,0-0.3c0.3-2.4,0.5-4.7,0.8-7.1v-0.1
		c0-0.4-0.2-0.8-0.5-1c-0.5-0.2-1,0-1.2,0.5c0,0,0,0,0,0c-1.4,3.3-6.3,11.5-6.3,11.5v-10.3c0-0.4-0.1-0.8-0.4-1.1
		c-0.5-0.6-1.4-0.6-2,0c0,0,0,0,0,0l0,0c-1.7,1.7-3.2,3.5-4.8,5.3c-1.1,1.2-2.2,2.5-3.2,3.7l-1-4.8l-0.8-3.5
		c-0.2-1.2-0.5-2.4-0.6-3.5l0,0c0-0.1-0.1-0.1-0.2-0.1c-0.1,0-0.1,0.1-0.1,0.1c-0.1,1.2-0.1,2.5,0,3.7c0.1,1.2,0.1,2.4,0.2,3.6
		c0.2,2.4,0.5,4.8,0.8,7.2c0,0.2,0.1,0.5,0.3,0.6c0.4,0.4,1.1,0.4,1.5,0c0,0,0,0,0,0l0.1-0.1c1.7-1.7,6.5-5.6,6.5-5.6
		c0.6,4.3,0.9,8.7,1,13v0.1c0,0.2,0.1,0.5,0.3,0.5c0.3,0.1,0.6,0,0.8-0.3c0,0,0,0,0,0c1.9-3.7,3.9-7.2,6.2-10.7
		c-0.4,2.3-0.5,2.6-0.9,4.9c-0.1,0.6,0.1,1.1,0.6,1.5c0.7,0.4,1.5,0.3,2-0.4c0,0,0,0,0,0l0,0l3-4.5v0c0.2,1.5,0.3,3,0.5,4.6
		c0.4,3,0.8,6.1,1.2,9.1v0.1c0.1,0.8,0.8,1.3,1.6,1.2c0.6-0.1,1.1-0.5,1.2-1.1c1.1-3.7,2.1-7.5,3-11.2c1-3.8,1.9-7.5,2.7-11.3
		C716.3,472.4,716.3,472.3,716.3,472.3z"/>
	<path class="st12" d="M687.9,452.3c-0.5,1.3-0.6,2.8-0.2,4.2c0.7,2.4,2.5,4.3,4.9,4.9c1.6,0.4,3.4,0.2,4.9-0.5
		c0.9-0.4,1.2-1.5,0.8-2.3c-0.1-0.3-0.3-0.5-0.6-0.7l-8.1-6c-0.5-0.4-1.2-0.3-1.6,0.2C688,452.1,688,452.2,687.9,452.3z"/>
	<path class="st12" d="M716.1,453.9c0.3,1.4,0.2,2.8-0.3,4.1c-0.9,2.3-3,3.9-5.5,4.3c-1.7,0.2-3.4-0.1-4.8-1.1
		c-0.8-0.5-1-1.6-0.5-2.4c0.2-0.2,0.4-0.4,0.6-0.6l8.7-5.1c0.6-0.3,1.3-0.1,1.6,0.4C716,453.7,716.1,453.8,716.1,453.9z"/>
	<path class="st3" d="M677.6,548.5l27.8-50l32.9-8.9c2.8-0.5,5-2.7,5.5-5.5l4.5-23.3l-12.9,20.8l-28.7,4.1c-4,0.2-7.7,2.3-9.9,5.6
		l-21.1,31.4l-6.7-37c-0.4-2.2-2-4.1-4.1-4.9l-10.6-4v-21.4c0-2.1-1.1-4-2.9-5L630.2,438l13.3,18l-1.6,19.1c-0.2,2.6,1,5.1,3.1,6.7
		l13.9,10.2l-1.3,50l-24-9.3l-12.7,1.3l8,5.3l27.3,12.7l-3.3,72.7h27.3L677.6,548.5z"/>
	<polyline class="st13" points="741.9,479.5 758.9,477.7 765.1,464.5 	"/>
	<line class="st13" x1="762.7" y1="469.7" x2="773.2" y2="470.2"/>
	<line class="st13" x1="665.1" y1="483" x2="679.8" y2="461.5"/>
	<line class="st13" x1="675.3" y1="468.1" x2="667.1" y2="460"/>
	<line class="st13" x1="699.1" y1="506.5" x2="729.1" y2="518.7"/>
	<line class="st13" x1="711.8" y1="531.3" x2="711.8" y2="512.6"/>
	<line class="st13" x1="701.4" y1="524" x2="711.8" y2="520.2"/>
	<line class="st13" x1="721.6" y1="484.7" x2="721.6" y2="452"/>
	<line class="st13" x1="730.8" y1="489" x2="743.3" y2="503.5"/>
	<polyline class="st13" points="721.6,464 706.6,460 703.6,448.7 706.6,442.7 	"/>
	<path class="st11" d="M-0.2,720h975.5v-59c-127.4-55-717.5-67.7-975.5,0.3L-0.2,720z"/>
	<polyline class="st14" points="465.6,622.1 390.2,717.8 583.6,717.8 514.3,622.1 465.6,622.1 	"/>
	<path class="st15" d="M282.9,586.6c-2.3-1-4.3-2.7-5.4-5c-2.9-5.4-8.6-8.7-14.7-8.5l0,0c-1,0-2,0.2-3,0.4c-3.5,0.8-7.1-0.4-9.4-3.1
		c-5.6-6.4-13.7-10-22.2-9.7c-13.2,0.5-24,10.5-26.8,23.5c-0.6,2.9-2.4,5.3-4.9,6.8c-10.2,5.7-16.2,16.7-15.5,28.3l0.1,2.2
		c0.1,5.4,4.5,9.7,9.9,9.7l102.6-4.3c5.4-0.4,9.5-5.1,9.1-10.5l-0.1-2.2C302.1,601.2,293.9,590.5,282.9,586.6z"/>
	<path class="st16" d="M267.1,604.8c-1.3-0.4-2.4-1.2-3.1-2.4c-1.8-2.7-5-4.3-8.3-4l0,0c-0.5,0.1-1.1,0.2-1.6,0.3
		c-1.8,0.5-3.8,0.1-5.2-1.3c-6.2-6-16.2-5.8-22.2,0.5c-2.2,2.3-3.6,5.1-4.1,8.2c-0.3,1.5-1.2,2.9-2.5,3.7c-5.3,3.1-8.3,8.9-7.7,15
		l0.1,1.2c0.3,2.9,2.8,4.9,5.7,4.7l55.8-5.5c2.9-0.3,4.9-2.8,4.7-5.7l-0.1-1.1C278,611.9,273.4,606.5,267.1,604.8z"/>
	<rect x="334.7" y="536.1" class="st17" width="306.7" height="84.5"/>
	<path class="st18" d="M642.8,534.7H334.4c-5,0-8.6-4.3-7.5-8.8l15.8-56.7c0.9-3.3,4-5.6,7.5-5.5h275.6c3.4-0.1,6.5,2.1,7.4,5.4
		l17,56.7C651.5,530.3,647.8,534.7,642.8,534.7z"/>
	<path class="st18" d="M347.8,458L347.8,458c2.8,0,5.1,2.3,5.1,5.1v6.1c0,2.8-2.3,5.1-5.1,5.1h0c-2.8,0-5.1-2.3-5.1-5.1v-6.1
		C342.7,460.2,345,458,347.8,458z"/>
	<path class="st18" d="M628.3,458L628.3,458c2.8,0,5.1,2.3,5.1,5.1v6.1c0,2.8-2.3,5.1-5.1,5.1h0c-2.8,0-5.1-2.3-5.1-5.1v-6.1
		C623.2,460.2,625.5,458,628.3,458z"/>
	<path class="st19" d="M662.1,531.3L662.1,531.3c0,2.6-2.1,4.8-4.8,4.8H319.8c-2.6,0-4.8-2.1-4.8-4.8v0c0-2.6,2.1-4.8,4.8-4.8h337.5
		C660,526.5,662.1,528.7,662.1,531.3z"/>
	<path class="st19" d="M581.4,487.6H624c3.5,0,6.2,2.8,6.2,6.2l0,0l0,0h-55.1l0,0l0,0C575.2,490.4,578,487.6,581.4,487.6z"/>
	<path class="st19" d="M600.2,481h14.1c1.7,0,3,1.3,3,3l0,0l0,0h-20.1l0,0l0,0C597.2,482.3,598.5,481,600.2,481z"/>
	<path class="st19" d="M608.3,483.2h11c3.1,0,5.6,2.5,5.6,5.6l0,0l0,0h-22.2l0,0l0,0C602.7,485.7,605.2,483.2,608.3,483.2
		L608.3,483.2z"/>
	<path class="st19" d="M609.9,497.2h23.5c2.2,0,4,1.8,4,4l0,0l0,0H606l0,0l0,0C606,499,607.7,497.2,609.9,497.2z"/>
	<path class="st19" d="M600,489.9h10c4.3,0,7.9,3.5,7.9,7.9l0,0l0,0h-25.8l0,0l0,0C592.1,493.4,595.6,489.9,600,489.9
		C600,489.9,600,489.9,600,489.9z"/>
	<rect x="334.7" y="544.2" class="st20" width="80.9" height="3.4"/>
	<rect x="334.7" y="582.1" class="st20" width="80.9" height="3.4"/>
	<rect x="334.7" y="538.7" class="st20" width="80.9" height="3.4"/>
	<rect x="334.7" y="549.6" class="st20" width="80.9" height="3.4"/>
	<rect x="334.7" y="592.9" class="st20" width="80.9" height="3.4"/>
	<rect x="334.7" y="571.2" class="st20" width="80.9" height="3.4"/>
	<rect x="334.7" y="576.7" class="st20" width="80.9" height="3.4"/>
	<rect x="334.7" y="587.5" class="st20" width="80.9" height="3.4"/>
	<rect x="334.7" y="565.8" class="st20" width="80.9" height="3.4"/>
	<rect x="334.7" y="560.4" class="st20" width="80.9" height="3.4"/>
	<rect x="334.7" y="555" class="st20" width="80.9" height="3.4"/>
	<rect x="334.7" y="542.2" class="st21" width="80.9" height="2"/>
	<rect x="334.7" y="547.6" class="st21" width="80.9" height="2"/>
	<rect x="334.7" y="553" class="st21" width="80.9" height="2"/>
	<rect x="334.7" y="558.4" class="st21" width="80.9" height="2"/>
	<rect x="334.7" y="563.8" class="st21" width="80.9" height="2"/>
	<rect x="334.7" y="569.2" class="st21" width="80.9" height="2"/>
	<rect x="334.7" y="574.7" class="st21" width="80.9" height="2"/>
	<rect x="334.7" y="580.1" class="st21" width="80.9" height="2"/>
	<rect x="334.7" y="585.5" class="st21" width="80.9" height="2"/>
	<rect x="334.7" y="590.9" class="st21" width="80.9" height="2"/>
	<rect x="560.5" y="544.2" class="st20" width="80.9" height="3.4"/>
	<rect x="560.5" y="582.1" class="st20" width="80.9" height="3.4"/>
	<rect x="560.5" y="538.7" class="st20" width="80.9" height="3.4"/>
	<rect x="560.5" y="549.6" class="st20" width="80.9" height="3.4"/>
	<rect x="560.5" y="592.9" class="st20" width="80.9" height="3.4"/>
	<rect x="560.5" y="571.2" class="st20" width="80.9" height="3.4"/>
	<rect x="560.5" y="576.7" class="st20" width="80.9" height="3.4"/>
	<rect x="560.5" y="587.5" class="st20" width="80.9" height="3.4"/>
	<rect x="560.5" y="565.8" class="st20" width="80.9" height="3.4"/>
	<rect x="560.5" y="560.4" class="st20" width="80.9" height="3.4"/>
	<rect x="560.5" y="555" class="st20" width="80.9" height="3.4"/>
	<rect x="560.5" y="542.2" class="st21" width="80.9" height="2"/>
	<rect x="560.5" y="547.6" class="st21" width="80.9" height="2"/>
	<rect x="560.5" y="553" class="st21" width="80.9" height="2"/>
	<rect x="560.5" y="558.4" class="st21" width="80.9" height="2"/>
	<rect x="560.5" y="563.8" class="st21" width="80.9" height="2"/>
	<rect x="560.5" y="569.2" class="st21" width="80.9" height="2"/>
	<rect x="560.5" y="574.7" class="st21" width="80.9" height="2"/>
	<rect x="560.5" y="580.1" class="st21" width="80.9" height="2"/>
	<rect x="560.5" y="585.5" class="st21" width="80.9" height="2"/>
	<rect x="560.5" y="590.9" class="st21" width="80.9" height="2"/>
	<rect x="334" y="599.7" class="st18" width="307.4" height="21.2"/>
	<rect x="415.6" y="442.4" class="st18" width="144.9" height="168"/>
	<path class="st19" d="M642.5,600.5h-82.2v-4.1h82.2c1.2,0,2.1,0.9,2.1,2.1l0,0C644.6,599.6,643.7,600.5,642.5,600.5
		C642.5,600.5,642.5,600.5,642.5,600.5z"/>
	<path class="st19" d="M333.4,600.5h82.2v-4.1h-82.2c-1.2,0-2.1,0.9-2.1,2.1l0,0C331.3,599.6,332.3,600.5,333.4,600.5
		C333.4,600.5,333.4,600.5,333.4,600.5z"/>
	<path class="st18" d="M569.9,444.2H408.8c-4.2,0.1-7.7-3.2-7.8-7.4c0-0.6,0-1.3,0.2-1.9l16.1-65.3c0.9-3.4,4-5.8,7.6-5.8h127.7
		c3.5,0,6.6,2.3,7.6,5.7l17.3,65.3c1,4.1-1.5,8.2-5.6,9.2C571.2,444.1,570.5,444.2,569.9,444.2z"/>
	<path class="st18" d="M422.2,358.2L422.2,358.2c2.8,0,5.1,2.3,5.1,5.1v6.1c0,2.8-2.3,5.1-5.1,5.1h0c-2.8,0-5.1-2.3-5.1-5.1v-6.1
		C417.1,360.5,419.4,358.2,422.2,358.2z"/>
	<path class="st18" d="M555.4,358.2L555.4,358.2c2.8,0,5.1,2.3,5.1,5.1v6.1c0,2.8-2.3,5.1-5.1,5.1h0c-2.8,0-5.1-2.3-5.1-5.1v-6.1
		C550.3,360.5,552.5,358.2,555.4,358.2z"/>
	<rect x="415.3" y="520.2" class="st22" width="145.2" height="3.4"/>
	<rect x="415.3" y="525.6" class="st22" width="145.2" height="3.4"/>
	<rect x="415.3" y="536.5" class="st22" width="145.2" height="3.4"/>
	<rect x="415.3" y="574.4" class="st22" width="145.2" height="3.4"/>
	<rect x="415.3" y="531" class="st22" width="145.2" height="3.4"/>
	<rect x="415.3" y="541.9" class="st22" width="145.2" height="3.4"/>
	<rect x="415.3" y="498.5" class="st22" width="145.2" height="3.4"/>
	<rect x="415.3" y="493.1" class="st22" width="145.2" height="3.4"/>
	<rect x="415.3" y="504" class="st22" width="145.2" height="3.4"/>
	<rect x="415.3" y="487.7" class="st22" width="145.2" height="3.4"/>
	<rect x="415.3" y="509.4" class="st22" width="145.2" height="3.4"/>
	<rect x="415.3" y="514.8" class="st22" width="145.2" height="3.4"/>
	<rect x="415.3" y="585.2" class="st22" width="145.2" height="3.4"/>
	<rect x="415.3" y="563.5" class="st22" width="145.2" height="3.4"/>
	<rect x="415.3" y="590.6" class="st22" width="145.2" height="3.4"/>
	<rect x="415.3" y="569" class="st22" width="145.2" height="3.4"/>
	<rect x="415.3" y="579.8" class="st22" width="145.2" height="3.4"/>
	<rect x="415.3" y="596" class="st22" width="145.2" height="3.4"/>
	<rect x="415.3" y="612.3" class="st22" width="145.2" height="3.4"/>
	<rect x="415.3" y="558.1" class="st22" width="145.2" height="3.4"/>
	<rect x="415.3" y="552.7" class="st22" width="145.2" height="3.4"/>
	<rect x="415.3" y="601.5" class="st22" width="145.2" height="3.4"/>
	<rect x="415.3" y="606.9" class="st22" width="145.2" height="3.4"/>
	<rect x="415.3" y="547.3" class="st22" width="145.2" height="3.4"/>
	<rect x="415.3" y="466" class="st22" width="145.2" height="3.4"/>
	<rect x="415.3" y="476.9" class="st22" width="145.2" height="3.4"/>
	<rect x="415.3" y="455.2" class="st22" width="145.2" height="3.4"/>
	<rect x="415.3" y="460.6" class="st22" width="145.2" height="3.4"/>
	<rect x="415.3" y="482.3" class="st22" width="145.2" height="3.4"/>
	<rect x="415.3" y="471.4" class="st22" width="145.2" height="3.4"/>
	<rect x="415.3" y="449.8" class="st22" width="145.2" height="3.4"/>
	<rect x="415.3" y="444.2" class="st22" width="145.2" height="3.6"/>
	<rect x="415.3" y="447.8" class="st23" width="145.2" height="2"/>
	<rect x="415.3" y="453.2" class="st23" width="145.2" height="2"/>
	<rect x="415.3" y="458.6" class="st23" width="145.2" height="2"/>
	<rect x="415.3" y="464" class="st23" width="145.2" height="2"/>
	<rect x="415.3" y="469.4" class="st23" width="145.2" height="2"/>
	<rect x="415.3" y="474.9" class="st23" width="145.2" height="2"/>
	<rect x="415.3" y="480.3" class="st23" width="145.2" height="2"/>
	<rect x="415.3" y="485.7" class="st23" width="145.2" height="2"/>
	<rect x="415.3" y="491.1" class="st23" width="145.2" height="2"/>
	<rect x="415.3" y="496.5" class="st23" width="145.2" height="2"/>
	<rect x="415.3" y="502" class="st23" width="145.2" height="2"/>
	<rect x="415.3" y="507.4" class="st23" width="145.2" height="2"/>
	<rect x="415.3" y="512.8" class="st23" width="145.2" height="2"/>
	<polygon class="st23" points="560.5,518.2 415.3,518.2 415.3,518.7 415.3,520.2 560.5,520.2 	"/>
	<rect x="415.3" y="523.6" class="st23" width="145.2" height="2"/>
	<rect x="415.3" y="529" class="st23" width="145.2" height="2"/>
	<rect x="415.3" y="534.5" class="st23" width="145.2" height="2"/>
	<rect x="415.3" y="539.9" class="st23" width="145.2" height="2"/>
	<rect x="415.3" y="545.3" class="st23" width="145.2" height="2"/>
	<rect x="415.3" y="550.7" class="st23" width="145.2" height="2"/>
	<rect x="415.3" y="556.1" class="st23" width="145.2" height="2"/>
	<rect x="415.3" y="561.5" class="st23" width="145.2" height="2"/>
	<rect x="415.3" y="567" class="st23" width="145.2" height="2"/>
	<rect x="415.3" y="572.4" class="st23" width="145.2" height="2"/>
	<rect x="415.3" y="577.8" class="st23" width="145.2" height="2"/>
	<rect x="415.3" y="583.2" class="st23" width="145.2" height="2"/>
	<rect x="415.3" y="588.6" class="st23" width="145.2" height="2"/>
	<rect x="415.3" y="594" class="st23" width="145.2" height="2"/>
	<rect x="415.3" y="599.5" class="st23" width="145.2" height="2"/>
	<rect x="415.3" y="604.9" class="st23" width="145.2" height="2"/>
	<rect x="415.3" y="610.3" class="st23" width="145.2" height="2"/>
	<rect x="415.3" y="615.7" class="st23" width="145.2" height="2"/>
	<path class="st19" d="M586.4,442.4L586.4,442.4c0,2.8-2.3,5.1-5.1,5.1H394.6c-2.8,0-5.1-2.3-5.1-5.1v0c0-2.8,2.3-5.1,5.1-5.1h186.7
		C584.1,437.3,586.4,439.6,586.4,442.4z"/>
	<path class="st19" d="M465.4,610.4l0.1-52.2c0-13.2,10.2-24,22.6-24c6.1,0,11.9,2.6,16,7.1c4.3,4.6,6.6,10.7,6.6,17l-0.1,52.2
		L465.4,610.4z"/>
	<path class="st12" d="M488.1,542c-8.9,0-16.2,7.9-16.2,17.7v45.5l32.4,0.1v-45.5C504.3,550,497,542,488.1,542z"/>
	<path class="st3" d="M488.1,461.7c-6,0-10.9,4.9-10.9,10.9l0,0v33.9h21.8v-33.9C498.9,466.6,494.1,461.7,488.1,461.7L488.1,461.7z"
		/>
	<rect x="477.2" y="496.9" class="st24" width="21.8" height="9.8"/>
	
		<rect x="488.4" y="484.1" transform="matrix(0.1288 -0.9917 0.9917 0.1288 -44.0626 928.7117)" class="st19" width="36.3" height="10.7"/>
	<rect x="466.5" y="471.4" class="st19" width="10.7" height="35.3"/>
	<path class="st12" d="M451.3,472.8c-0.2-6-5.2-10.7-11.2-10.6c-5.8,0.2-10.4,4.8-10.6,10.6v24.3h21.8V472.8z"/>
	<rect x="429.5" y="497.2" class="st24" width="21.8" height="9.6"/>
	<path class="st12" d="M384.3,553.6c-0.3-6-5.3-10.7-11.3-10.4c-5.6,0.2-10.2,4.8-10.4,10.4V577h21.8V553.6z"/>
	<rect x="362.5" y="577" class="st24" width="21.8" height="9.2"/>
	<path class="st3" d="M384.3,502.2c0-6-4.9-10.9-10.9-10.9s-10.9,4.9-10.9,10.9v14.7h21.8V502.2z"/>
	<rect x="362.5" y="516.8" class="st24" width="21.8" height="9.6"/>
	<path class="st3" d="M611.2,553.6c-0.2-6-5.2-10.7-11.2-10.6c-5.8,0.2-10.4,4.8-10.6,10.6V577h21.8V553.6z"/>
	<rect x="589.4" y="577" class="st24" width="21.8" height="9.2"/>
	<path class="st3" d="M451.3,550.6c0.2-6-4.5-11-10.6-11.2c-6-0.2-11,4.5-11.2,10.6c0,0.2,0,0.4,0,0.7v24.3h21.8V550.6z"/>
	<rect x="429.5" y="574.9" class="st24" width="21.8" height="9.6"/>
	<path class="st12" d="M546.2,550.6c0-6-4.9-10.9-10.9-10.9s-10.9,4.9-10.9,10.9v24.3h21.8V550.6z"/>
	<rect x="524.4" y="574.9" class="st24" width="21.8" height="9.6"/>
	<path class="st3" d="M546.2,472.8c0-6-4.9-10.9-10.9-10.9s-10.9,4.9-10.9,10.9v24.3h21.8V472.8z"/>
	<rect x="524.4" y="497.2" class="st24" width="21.8" height="9.6"/>
	<path class="st25" d="M567.3,610.4v-74.3c-1.8-1-1.5-8.4,0.7-9.5s45.5-62.9,45.5-62.9h-53.1v146.8H567.3L567.3,610.4z"/>
	
		<rect x="350.9" y="500.6" transform="matrix(0.9974 -7.254192e-02 7.254192e-02 0.9974 -36.3279 27.1976)" class="st19" width="10.7" height="26.2"/>
	
		<rect x="377.7" y="508.4" transform="matrix(9.167542e-02 -0.9958 0.9958 9.167542e-02 -156.5782 855.814)" class="st19" width="26.2" height="10.7"/>
	<polygon class="st19" points="394.9,586.9 384.3,586 387.5,552.2 398.2,553.2 	"/>
	<polygon class="st19" points="362.5,586.5 352.5,590.1 340.3,558.3 350.3,554.7 	"/>
	<path class="st26" d="M408.4,610.4v-74.3c1.8-1.3,1.5-8.4-0.7-9.5s-45.5-62.9-45.5-62.9h53.1v146.8H408.4L408.4,610.4z"/>
	<path class="st27" d="M572.3,610.4L572.3,610.4c0,2.8-2.3,5.1-5.1,5.1H409.6c-2.8,0-5.1-2.3-5.1-5.1v0c0-2.8,2.3-5.1,5.1-5.1h157.6
		C570.1,605.3,572.3,607.6,572.3,610.4z"/>
	<path class="st28" d="M579.3,614.6L579.3,614.6c0,2.3-1.9,4.2-4.2,4.2H401c-2.3,0-4.2-1.9-4.2-4.2l0,0c0-2.3,1.9-4.2,4.2-4.2h174.2
		C577.4,610.4,579.3,612.3,579.3,614.6z"/>
	<path class="st29" d="M584.5,620.6L584.5,620.6c0,2.4-1.9,4.3-4.3,4.3H395.9c-2.4,0-4.3-1.9-4.3-4.3v0c0-2.4,1.9-4.3,4.3-4.3h184.4
		C582.6,616.3,584.5,618.2,584.5,620.6z"/>
	<path class="st30" d="M531.3,543c-9.4-1.3-17.7,5.2-18.9,15.1l-5.8,46.1l28.8,5.1l3.6-3.9l5.1-41.8
		C545.3,553.6,540.7,544.3,531.3,543z"/>
	<path class="st29" d="M527.5,545.8c-8.6-1.2-16.5,5.5-17.7,14.9l-5.5,44l31.1,4.5l5.5-44C542,555.8,536,547.1,527.5,545.8z"/>
	<path class="st31" d="M424.5,533l12.7-0.1c0.6,0,1,0.4,1,1l0,0.9c0,0.6-0.4,1-1,1l-12.7,0.1c-0.6,0-1-0.4-1-1l0-0.9
		C423.5,533.4,424,533,424.5,533z"/>
	<path class="st31" d="M434.9,530.6l13.8-0.1c0.6,0,1,0.4,1,1l0,0.9c0,0.6-0.4,1-1,1l-13.8,0.1c-0.6,0-1-0.4-1-1l0-0.9
		C433.9,531.1,434.3,530.6,434.9,530.6z"/>
	<path class="st31" d="M431.9,528.7l7.6,0c0.6,0,1,0.4,1,1l0,0.9c0,0.6-0.4,1-1,1l-7.6,0c-0.6,0-1-0.4-1-1l0-0.9
		C430.9,529.2,431.3,528.7,431.9,528.7z"/>
	<path class="st31" d="M435.8,526.3l7.6,0c0.6,0,1,0.4,1,1l0,0.9c0,0.6-0.4,1-1,1l-7.6,0c-0.6,0-1-0.4-1-1l0-0.9
		C434.8,526.8,435.2,526.3,435.8,526.3z"/>
	<path class="st31" d="M535.1,520.3l10.2-0.1c0.6,0,1,0.4,1,1l0,0.4c0,0.6-0.4,1-1,1l-10.2,0.1c-0.6,0-1-0.4-1-1l0-0.4
		C534.1,520.7,534.5,520.3,535.1,520.3z"/>
	<path class="st31" d="M543.6,518.4l11-0.1c0.6,0,1,0.4,1,1l0,0.4c0,0.6-0.4,1-1,1l-11,0.1c-0.6,0-1-0.4-1-1l0-0.4
		C542.6,518.8,543.1,518.4,543.6,518.4z"/>
	<path class="st31" d="M541.2,516.7l5.9,0c0.6,0,1,0.4,1,1l0,0.4c0,0.6-0.4,1-1,1l-5.9,0c-0.6,0-1-0.4-1-1l0-0.4
		C540.2,517.2,540.6,516.8,541.2,516.7z"/>
	<path class="st18" d="M518.1,569.2l1.2-8c0.1-0.5,0.6-0.9,1.1-0.8l0,0c0.5,0.1,0.9,0.6,0.8,1.1l-1.2,8c-0.1,0.5-0.6,0.9-1.1,0.8
		l0,0C518.4,570.2,518,569.7,518.1,569.2z"/>
	<path class="st18" d="M525.7,574.3l2.3-14.6c0.1-0.5,0.6-0.9,1.1-0.8l0,0c0.5,0.1,0.9,0.6,0.8,1.1l-2.3,14.6
		c-0.1,0.5-0.6,0.9-1.1,0.8l0,0C526,575.3,525.7,574.8,525.7,574.3z"/>
	<path class="st18" d="M509.6,594.7l1.2-8c0.1-0.5,0.6-0.9,1.1-0.8l0,0c0.5,0.1,0.9,0.6,0.8,1.1l-1.2,8c-0.1,0.5-0.6,0.9-1.1,0.8
		l0,0C509.9,595.8,509.5,595.3,509.6,594.7z"/>
	<path class="st18" d="M510.4,600.3l1.4-8.9c0.1-0.5,0.6-0.9,1.1-0.8l0.2,0c0.5,0.1,0.9,0.6,0.8,1.1l-1.4,8.9
		c-0.1,0.5-0.6,0.9-1.1,0.8l-0.2,0C510.6,601.4,510.3,600.9,510.4,600.3z"/>
	<path class="st18" d="M517.5,597.1l3.5-22.4c0.1-0.5,0.6-0.9,1.1-0.8l0.5,0.1c0.5,0.1,0.9,0.6,0.8,1.1l-3.5,22.4
		c-0.1,0.5-0.6,0.9-1.1,0.8l-0.5-0.1C517.8,598.2,517.5,597.7,517.5,597.1z"/>
	<path class="st18" d="M526.8,604.2l1.2-8c0.1-0.5,0.6-0.9,1.1-0.8l0,0c0.5,0.1,0.9,0.6,0.8,1.1l-1.2,8c-0.1,0.5-0.6,0.9-1.1,0.8
		l0,0C527,605.2,526.7,604.7,526.8,604.2z"/>
	<path class="st18" d="M530.8,596.4l1.3-8.3c0.1-0.5,0.5-0.8,1-0.7l0,0c0.5,0.1,0.8,0.5,0.7,1l-1.3,8.3c-0.1,0.5-0.5,0.8-1,0.7h0
		C531,597.3,530.7,596.8,530.8,596.4z"/>
	<path class="st18" d="M528.9,595.7l2.5-16.7c0-0.3,0.3-0.5,0.6-0.4l0.3,0c0.3,0,0.5,0.3,0.4,0.6l-2.5,16.7c0,0.3-0.3,0.5-0.6,0.4
		l-0.3,0C529,596.3,528.8,596,528.9,595.7z"/>
	<path class="st18" d="M517.7,562l1.3-8.7c0.1-0.5,0.6-0.9,1.1-0.8l0,0c0.5,0.1,0.9,0.6,0.8,1.1l-1.3,8.7c-0.1,0.5-0.6,0.9-1.1,0.8
		l0,0C517.9,563,517.6,562.5,517.7,562z"/>
	<path class="st18" d="M516,563.8l0.7-4.5c0.1-0.5,0.6-0.9,1.1-0.8l0,0c0.5,0.1,0.9,0.6,0.8,1.1l-0.7,4.5c-0.1,0.5-0.6,0.9-1.1,0.8
		l0,0C516.3,564.8,515.9,564.3,516,563.8z"/>
	<path class="st18" d="M514.4,558.4l0.7-4.5c0.1-0.5,0.6-0.9,1.1-0.8l0,0c0.5,0.1,0.9,0.6,0.8,1.1l-0.7,4.5
		c-0.1,0.5-0.6,0.9-1.1,0.8l0,0C514.7,559.5,514.3,559,514.4,558.4z"/>
	<path class="st19" d="M509.2,414.7h51.8c3.5,0,6.2,2.8,6.2,6.2l0,0l0,0h-64.2l0,0l0,0C502.9,417.5,505.7,414.7,509.2,414.7z"/>
	<path class="st19" d="M531.6,408.1h17.5c1.7,0,3,1.3,3,3l0,0l0,0h-23.5l0,0l0,0C528.6,409.5,529.9,408.1,531.6,408.1z"/>
	<path class="st19" d="M540.6,410.4h14.8c3.1,0,5.6,2.5,5.6,5.6l0,0l0,0h-25.9l0,0l0,0C535.1,412.8,537.5,410.4,540.6,410.4z"/>
	<path class="st19" d="M418.1,379.8h21.8c1.7,0,3,1.3,3,3l0,0l0,0h-27.8l0,0l0,0C415.1,381.1,416.5,379.8,418.1,379.8z"/>
	<path class="st19" d="M423.7,385.1H442c2.4,0,4.4,2,4.4,4.4l0,0l0,0h-27.1l0,0l0,0C419.3,387,421.2,385.1,423.7,385.1
		C423.7,385.1,423.7,385.1,423.7,385.1z"/>
	<path class="st19" d="M435.9,382.4h9.6c2.2,0,3.9,1.8,3.9,3.9v0l0,0l0,0h-17.5l0,0l0,0C431.9,384.2,433.7,382.4,435.9,382.4
		L435.9,382.4L435.9,382.4z"/>
	<path class="st19" d="M432.2,407.8h30.6c1.3,0,2.4,1.1,2.4,2.4l0,0v2.5l0,0h-37.9l0,0l0,0C427.3,410,429.5,407.8,432.2,407.8
		C432.2,407.8,432.2,407.8,432.2,407.8z"/>
	<path class="st19" d="M452.9,401.2h29.9c3.6,0,6.6,3,6.6,6.6l0,0l0,0l0,0h-43l0,0l0,0C446.3,404.2,449.3,401.2,452.9,401.2z"/>
	<path class="st19" d="M520.3,382.4h38.1c3.6,0,6.5,2.9,6.5,6.5l0,0l0,0h-51.1l0,0l0,0C513.7,385.4,516.7,382.4,520.3,382.4
		L520.3,382.4z"/>
	<path class="st19" d="M514.8,379.2h38.1c3.6,0,6.5,2.9,6.5,6.5l0,0l0,0h-51.1l0,0l0,0C508.2,382.1,511.2,379.2,514.8,379.2
		L514.8,379.2z"/>
	<path class="st19" d="M530.6,417h14.3c4.3,0,7.9,3.5,7.9,7.9l0,0l0,0h-30l0,0l0,0C522.7,420.5,526.2,417,530.6,417z"/>
	<path class="st3" d="M610.5,502.2c-0.2-6-5.2-10.7-11.2-10.6c-5.8,0.2-10.4,4.8-10.6,10.6v14.7h21.8V502.2z"/>
	<rect x="588.7" y="516.8" class="st24" width="21.8" height="9.6"/>
	<path class="st32" d="M699.4,598.5l-8.6-2.5l2.1-6.4c0.8-2.3-0.4-4.8-2.8-5.6c0,0-0.1,0-0.1,0c-4-1.1-7.5-1-8.8,2.6l0.5,6.2l-9.1-3
		c-2.4-0.8-7.9,1.1-8.6,4.2c-0.6,2.4,3.4,3.6,5.8,4.4l9.1,3l-9.6,29.1c-0.7,2.4,0.7,4.9,3.1,5.6c2.3,0.7,4.6-0.5,5.5-2.8l9.6-29.1
		l6.8,4.5c2.7,0.6,7.2-2,8-4.3C703,601.8,701.7,599.3,699.4,598.5z"/>
	<rect x="354.4" y="607.7" class="st29" width="7.6" height="2.8"/>
	<rect x="382.5" y="609" class="st33" width="7.6" height="2.8"/>
	<rect x="359" y="604.9" class="st29" width="7.6" height="2.8"/>
	<rect x="387" y="611.8" class="st29" width="7.6" height="2.8"/>
	<rect x="337.8" y="611.8" class="st33" width="7.6" height="2.8"/>
	<rect x="342.3" y="614.6" class="st29" width="7.6" height="2.8"/>
	<rect x="603.5" y="609.5" class="st33" width="7.6" height="2.8"/>
	<rect x="608" y="612.3" class="st29" width="7.6" height="2.8"/>
	<rect x="581" y="603.1" class="st29" width="7.6" height="2.8"/>
	<rect x="585.4" y="605.9" class="st29" width="7.6" height="2.8"/>
	<rect x="632.4" y="602.5" class="st29" width="7.6" height="2.8"/>
	<rect x="636.8" y="605.3" class="st29" width="4.4" height="2.8"/>
	<path class="st29" d="M509.5,522l4.7-2.1l-0.2-1.7l-5.7,0.5l-2.3-0.1l7.8-1.3c-0.3-1-1.3-1.7-2.4-1.6l-49.6,4.3
		c-1.3,0.1-2.2,1.2-2.1,2.5l1.6,1.4l-1.2,2.8c0.1,1.3,1.2,2.2,2.5,2.1l49.6-4.4c1.3-0.1,2.2-1.2,2.1-2.5v-0.3L509.5,522z"/>
	<path class="st29" d="M582.5,577.8l-1.9,1.6l0.1,1.4l4.4-0.3l6.3-0.7l-10.5,1.8c0.2,0.8,0.9,1.4,1.8,1.4l37.9-3c1-0.1,1.7-1,1.6-2
		l-1.2-1.3l0.7-1.6l-5.7,1.2l6-1.9c0-1-0.8-1.8-1.8-1.8c0,0,0,0-0.1,0l-37.9,3c-1,0.1-1.7,1-1.6,2.1v0.3L582.5,577.8z"/>
	<path class="st29" d="M580.5,554.4l-1.9,1.6l0.1,1.4l4.4-0.3l6.3-0.7l-10.5,1.8c0.2,0.8,0.9,1.4,1.8,1.4l37.9-3c1-0.1,1.7-1,1.6-2
		l-1.2-1.3l0.7-1.6l-5.7,1.2l6-1.9c0-1-0.8-1.8-1.8-1.8c0,0,0,0-0.1,0l-37.9,3c-1,0.1-1.7,1-1.6,2.1v0.3L580.5,554.4z"/>
	<path class="st29" d="M616.3,569.6l3.9-1.2l0.2-1.4l-4.3-0.3l-1.6-0.4l6-0.1c0-0.8-0.6-1.5-1.4-1.6l-37.2-2.6c-1,0-1.9,0.8-2,1.8
		l0.9,1.3l-1.4,2.1c-0.2,0.9,0.3,1.8,1.2,2c0.1,0,0.1,0,0.2,0l37.2,2.6c1,0,1.9-0.8,2-1.8v-0.3L616.3,569.6z"/>
	<g class="st4">
		<circle class="st9" cx="737.8" cy="209.8" r="151.2"/>
	</g>
	<circle class="st34" cx="736.8" cy="209.8" r="117.2"/>
	<path class="st32" d="M288,611.9c-0.4-2.5-3.6-3.8-6-3.4l-4.3,0.7c0-0.3,0,0.3,0,0l-0.3-1.6c-0.8-4.8-4.6-8.5-9.4-9.1l-2.1-12.7
		l2.2,0.6c2.4-1.2,4.1-2.2,3.6-4.7c-0.3-1.7-1.9-2.8-3.5-2.6l-3.3,0.5l-0.5-2.8c-0.2-1.6-1.7-2.8-3.4-2.6c-0.1,0-0.1,0-0.2,0
		c-1.5,0.4-2.7,1.2-3.7,2.4l1.6,4l-3.3,0.5c-1.7,0.3-4.5,2.6-4.5,4.2s3.8,2.2,5.5,1.9l3.3-0.5l2.1,12.8c-4.3,2.1-6.8,6.8-6,11.6
		l0.2,1.6l-3.6,0.7c-3.5,0.9-5.7,3.2-6.1,6.1l6.4,24.8l39.8-6.6L288,611.9z"/>
	<path class="st35" d="M266.4,580.6l-3.3,0.5l-0.5-2.8c-0.4-1.7-2-2.7-3.7-2.4c-1.5,0.3-2.6,1.8-2.4,3.4l0.5,2.8l-3.3,0.5
		c-1.7,0.4-2.7,2-2.4,3.7c0.3,1.5,1.8,2.6,3.4,2.4l3.3-0.5l2.4,14.5c0.3,1.7,1.9,2.8,3.6,2.6s2.8-1.9,2.6-3.6l0,0l-2.4-14.5l3.3-0.5
		c1.7-0.3,2.8-1.9,2.5-3.5S268.1,580.3,266.4,580.6L266.4,580.6z"/>
	<path class="st35" d="M280.2,610.7l-4.3,0.7c0-0.3,0-0.6-0.1-0.9l-0.3-1.6c-1-5.9-6.6-10-12.5-9l0,0c-5.9,1-9.9,6.6-9,12.6l0.3,1.6
		c0,0.3,0.1,0.6,0.2,0.8l-4.3,0.7c-2.4,0.4-4.1,2.7-3.7,5.2c0,0,0,0,0,0l4.6,24.9l38.9-6.4l-4.6-24.9
		C285,612,282.7,610.3,280.2,610.7C280.2,610.7,280.2,610.7,280.2,610.7z"/>
	<line class="st36" x1="254.8" y1="621.2" x2="277.6" y2="617.4"/>
	<line class="st36" x1="255.4" y1="625.1" x2="278.3" y2="621.3"/>
	<line class="st36" x1="256.1" y1="629" x2="278.9" y2="625.3"/>
	<line class="st36" x1="273.2" y1="630.8" x2="263.3" y2="632.5"/>
	<path class="st35" d="M696.5,599.8l-9.1-3l2.5-7.5c0.8-2.4-0.5-4.9-2.9-5.7s-4.9,0.5-5.7,2.9l-2.5,7.5l-9.1-3
		c-2.3-0.9-4.9,0.3-5.8,2.6c-0.9,2.3,0.3,4.9,2.6,5.8c0.1,0,0.2,0.1,0.3,0.1l9.1,3l-9.6,29.1c-0.9,2.3,0.3,4.9,2.6,5.8
		c2.3,0.9,4.9-0.3,5.8-2.6c0-0.1,0.1-0.3,0.1-0.4l9.6-29.1l9.1,3c2.4,0.8,4.9-0.5,5.7-2.9S698.8,600.6,696.5,599.8L696.5,599.8
		L696.5,599.8z"/>
	<path class="st11" d="M640,629.8c0,0,28.8-6.8,50.7,7.8s-1,18-1,18L640,629.8z"/>
	
		<rect x="242.4" y="636" transform="matrix(0.9974 -7.254192e-02 7.254192e-02 0.9974 -45.919 21.4876)" class="st11" width="61" height="13.8"/>
</g>
<g id="Layer_2">
	<g id="Layer_1_3_">
		<g id="bg_2_">
			<rect x="-0.2" class="st37" width="974.6" height="713.5"/>
			<rect x="0.2" y="579.7" class="st5" width="975.3" height="140.3"/>
		</g>
	</g>
</g>
</svg>
