<?xml version="1.0" encoding="utf-8"?>
<!-- Generator: Adobe Illustrator 23.0.2, SVG Export Plug-In . SVG Version: 6.00 Build 0)  -->
<svg version="1.1" id="Layer_1" xmlns="http://www.w3.org/2000/svg" xmlns:xlink="http://www.w3.org/1999/xlink" x="0px" y="0px"
	 viewBox="0 0 2062 1187" style="enable-background:new 0 0 2062 1187;" xml:space="preserve">
<style type="text/css">
	.st0{fill:#69DCFF;}
	.st1{fill:#FFFFFF;}
	.st2{fill:#006837;}
	.st3{fill:#22B573;}
	.st4{display:none;}
	.st5{display:inline;}
	.st6{fill:#BE1E2D;}
	.st7{fill:#603913;}
	.st8{fill:#A7A9AC;}
	.st9{fill:#FFF2DC;stroke:#FFFFFF;stroke-width:0.4436;stroke-miterlimit:10;}
	.st10{fill:#726658;}
	.st11{fill:#FFC0ED;}
	.st12{fill:#BCBEC0;}
	.st13{fill:#AF5A61;}
	.st14{fill:#2B3990;}
	.st15{fill:#21409A;}
	.st16{opacity:0.15;enable-background:new    ;}
	.st17{fill:#00A651;}
	.st18{fill:#262262;}
	.st19{fill:#FBB040;}
	.st20{opacity:7.000000e-02;}
	.st21{fill:#ED1C24;}
	.st22{fill:#58270E;}
	.st23{fill:#D0E1EA;}
	.st24{fill:#F7941D;}
	.st25{fill:#7ED2F6;}
	.st26{fill:#006838;}
	.st27{fill:#FFF7A5;}
	.st28{fill:#333333;}
	.st29{fill:#231F20;}
	.st30{fill:url(#SVGID_1_);stroke:#FFFFFF;stroke-width:0.1637;stroke-miterlimit:10;}
	.st31{fill:url(#SVGID_2_);stroke:url(#SVGID_3_);stroke-width:0.3273;stroke-miterlimit:10;}
	.st32{fill:url(#SVGID_4_);}
	.st33{fill:url(#SVGID_5_);stroke:#FFFFFF;stroke-width:0.1637;stroke-miterlimit:10;}
	.st34{fill:url(#SVGID_6_);stroke:url(#SVGID_7_);stroke-width:0.3273;stroke-miterlimit:10;}
	.st35{fill:url(#SVGID_8_);}
	.st36{fill:#108770;}
	.st37{fill:#00AE8D;}
	.st38{fill:#FFBF3C;}
	.st39{fill:#E2A840;}
	.st40{fill:#7DCDFF;}
	.st41{fill:#F1F2F2;}
	.st42{fill:#E6E6E6;}
	.st43{fill:#F5333F;}
	.st44{fill:#6D6E71;}
	.st45{fill:#F5333F;stroke:#108770;stroke-width:3.9181;stroke-miterlimit:10;}
	.st46{fill:none;}
	.st47{font-family:'SnellRoundhand-Bold';}
	.st48{font-size:20.5112px;}
	.st49{fill:none;stroke:#593B0C;stroke-width:3.9181;stroke-miterlimit:10;}
	.st50{fill:none;stroke:#6D6E71;stroke-width:0.7017;stroke-miterlimit:10;}
	.st51{fill:#0047BA;}
</style>
<g id="Layer_1_2_">
	<g id="bg_1_">
		<g id="Layer_1_1_">
			<g id="bg">
				<rect x="-78.9" class="st0" width="2225.7" height="1177"/>
				<rect x="-111.1" y="885" class="st1" width="2287.9" height="302"/>
			</g>
		</g>
		<g id="tree_1_">
			<g>
				<rect x="1844.2" y="790.5" class="st2" width="35.2" height="92.8"/>
				<path class="st2" d="M2066.7,762.5c0,0-78.4,27.5-199.7,30.9c-108.2,3.1-210.5-23.7-210.5-23.7c45.4-29,93.6-73,119.7-123.9
					l-49.8,1.4c35.5-22.7,62.9-65.6,81.7-106l-48.7,6.7c33.4-21.7,55.3-61.7,69.4-101.3l-36,1c51.5-34.9,69.2-139.7,69.2-139.7
					s11.4,106,58.8,136.3l-32.4,0.9c17.1,39.2,45.2,82.8,76.3,101.7l-46.8-3.2c21.2,40.1,53.5,84,86.4,103.8l-48.5-6.4
					C1984.7,691,2024.6,737.3,2066.7,762.5z"/>
				<rect x="1664.8" y="828.5" class="st3" width="24.8" height="65.4"/>
				<path class="st3" d="M1821.5,808.8c0,0-55.2,19.4-140.6,21.8c-76.2,2.1-148.2-16.8-148.2-16.8c32.1-20.5,65.9-51.4,84.4-87.3
					l-35.1,1c24.9-16,44.3-46.2,57.5-74.7l-34.3,4.7c23.5-15.2,38.9-43.3,48.9-71.2l-25.3,0.7c36.3-24.6,48.7-98.5,48.7-98.5
					s8,74.6,41.4,96l-22.8,0.6c12,27.6,31.9,58.3,53.7,71.6l-33-2.3c15,28.3,37.7,59.2,60.9,73.1l-34.1-4.5
					C1763.8,758.4,1791.9,791,1821.5,808.8z"/>
			</g>
		</g>
		<g id="tree">
			<g>
				<rect x="951.3" y="793.2" class="st2" width="35.2" height="92.8"/>
				<path class="st2" d="M874.8,643.6l-48.5,6.4c32.9-19.8,65.2-63.8,86.4-103.8l-46.8,3.2c31-18.9,59.2-62.5,76.3-101.7l-32.4-0.9
					c47.5-30.3,58.8-136.3,58.8-136.3s17.6,104.9,69.2,139.7l-36-1c14.1,39.6,36,79.6,69.4,101.3l-48.7-6.7
					c18.8,40.5,46.2,83.4,81.7,106l-49.8-1.4c26.1,50.9,74.3,94.9,119.7,123.9c0,0-102.3,26.8-210.5,23.7
					C842.3,792.7,764,765.2,764,765.2C806.1,740,846,693.7,874.8,643.6z"/>
				<rect x="1141.1" y="831.2" class="st3" width="24.8" height="65.4"/>
				<path class="st3" d="M1087.2,725.8l-34.1,4.5c23.2-13.9,45.9-44.8,60.9-73.1l-33,2.3c21.9-13.3,41.7-44,53.7-71.6l-22.8-0.6
					c33.4-21.3,41.4-96,41.4-96s12.4,73.8,48.7,98.5l-25.3-0.7c10,27.8,25.4,56,48.9,71.2l-34.3-4.7c13.2,28.5,32.6,58.7,57.5,74.7
					l-35.1-1c18.5,35.9,52.3,66.8,84.4,87.3c0,0-72.1,18.9-148.2,16.8c-85.4-2.4-140.6-21.8-140.6-21.8
					C1038.8,793.7,1066.8,761.1,1087.2,725.8z"/>
			</g>
		</g>
	</g>
</g>
<g id="santa" class="st4">
	<g class="st5">
		<g id="body">
			<g id="leftarm">
				<path class="st6" d="M964.3,782.8l19.9,34.3c0,0-12.6,8.5-17.2,8.8c0,0,0.9-15.1-6-24.3C961,801.6,966.5,792,964.3,782.8z"/>
				<path class="st1" d="M967,825.9c0,0,12.4-4.4,17.7-9.3c0,0,4.2-0.8,5.2,6.7c0,0-1.3,7.3-22.2,12.3c-0.9,0.2-1.7,0.4-2.7,0.6
					C965,836.1,968.2,828.1,967,825.9z"/>
				<path class="st7" d="M967.9,836.1c0,0,0.7,12.9,6.3,13.3c0,0,3.4,1.3,5-3.8c0,0,7.5,13.3,15.4,4.8s-1.1-17.1-1.1-17.1
					s-4.3-6.1-5.8-6.6c-1.5-0.4-20.1,7.7-20.1,7.7L967.9,836.1z"/>
			</g>
			<g id="rightarm">
				<path class="st6" d="M870.4,780.3l-19.9,34.3c0,0,12.6,8.5,17.2,8.8c0,0-0.9-15.1,6-24.3C873.7,799.1,868.2,789.5,870.4,780.3z"
					/>
				<path class="st1" d="M867.7,823.4c0,0-12.4-4.4-17.7-9.3c0,0-4.1-0.8-5.2,6.7c0,0,1.3,7.3,22.2,12.3c0.9,0.2,1.7,0.4,2.7,0.6
					C869.7,833.7,866.5,825.6,867.7,823.4z"/>
				<path class="st7" d="M866.8,833.6c0,0-0.7,12.9-6.3,13.3c0,0-3.4,1.3-5-3.8c0,0-7.5,13.3-15.4,4.8c-7.9-8.4,1.1-17.1,1.1-17.1
					s4.3-6.1,5.9-6.6s20.1,7.7,20.1,7.7L866.8,833.6z"/>
			</g>
			<ellipse id="belly" class="st6" cx="917.2" cy="820.6" rx="49.8" ry="51"/>
			<path id="belt" class="st7" d="M868.6,829.3c0,0,33.1,14.5,48.8,11.7c0,0,32.6-0.8,49-11.7c0,0-0.9,8.1-1.9,9.2
				s-14.6,12.2-47.2,13c-32.6,0.7-46.7-13-46.7-13S869.5,835.9,868.6,829.3z"/>
			<g id="rightleg">
				<path class="st6" d="M883.6,858.1l0.4,16.8c0,0,16.7,3.8,28.5,0v-7.2C912.6,867.7,893.2,866.5,883.6,858.1z"/>
				<path class="st1" d="M881.2,879.7c0,0-1.6-5.8,4.5-4.3s24.5,2.1,26.9-0.4c0,0,5.2-1.6,2,11.3c0,0-13.8,8.5-32.4,0.4
					C882.2,886.7,881,881.9,881.2,879.7z"/>
				<path class="st7" d="M882.8,889.9c0,0-8.3,5.7-2.1,13s24,2,24,2s12.8-2.9,9-16.6l-0.4-1c0,0-14.8,6.5-28.7,0.7L882.8,889.9z"/>
			</g>
			<g id="leftleg">
				<path class="st6" d="M951,857l-0.4,16.8c0,0-16.7,3.8-28.5,0v-7.2C922,866.6,941.4,865.4,951,857z"/>
				<path class="st1" d="M953.3,878.6c0,0,1.6-5.8-4.5-4.3s-24.5,2.1-26.9-0.4c0,0-5.2-1.6-2,11.3c0,0,13.8,8.5,32.4,0.4
					C952.4,885.6,953.5,880.8,953.3,878.6z"/>
				<path class="st7" d="M951.8,888.8c0,0,8.3,5.7,2.2,13c-6.2,7.3-24,2-24,2s-12.8-2.9-9-16.6l0.4-1c0,0,14.8,6.5,28.7,0.7
					L951.8,888.8z"/>
			</g>
			<path class="st8" d="M922.9,837.8h-15c-2.8,0-5.1,2.3-5.1,5.1v6.2c0,2.8,2.3,5.1,5.1,5.1h15c2.8,0,5.1-2.3,5.1-5.1V843
				C928,840.1,925.8,837.9,922.9,837.8z M923.8,847.2c0,2.8-2.3,5.1-5.1,5.1h-6.9c-2.8,0-5.1-2.3-5.1-5.1v-1.3
				c0-2.8,2.3-5.1,5.1-5.1h6.9c2.8,0,5.1,2.3,5.1,5.1V847.2z"/>
		</g>
		<g id="face">
			<path id="beard" class="st1" d="M867.3,733.7c0,0,0.1-13.6,11-21.1c10.8-7.5,47-18.7,78.5,0.3c0,0,12,7.5,10.4,22l-0.2,4.8
				c0,0,0.6,12.9-1.4,16.8c0,0-0.5,10.9-9.1,15.8c0,0,15.8,11.4,7.2,31s-26.3,9.9-26.3,9.9s-5,20.1-21.2,17.5s-18.5-17.5-18.5-17.5
				s-15.6,8.9-26.2-8.1c-10.6-17,3.9-32.1,7.1-32.8c0,0-10.3-4.5-11.5-27.1l1.4-4.2L867.3,733.7z"/>
			<path class="st9" d="M878.4,741.1c0,0,37-37.6,78.1,0.4c0,0,3,14.3-3.4,20.9c0,0-4.7-13.9-26-9.3c0,0-7.6,19.9-17.5,1
				c0,0-15.5-7.2-27.7,7.5C882,761.7,874.5,755.3,878.4,741.1z"/>
			<path class="st10" d="M901,738c2.7,0,5,1.1,5.9,2.8c0.3-0.5,0.4-1,0.4-1.5c0-2.4-2.8-4.3-6.3-4.3s-6.3,1.9-6.3,4.3
				c0,0.5,0.1,1,0.4,1.5C896,739.1,898.3,738,901,738z"/>
			<path class="st10" d="M931.6,737.7c2.7,0,5,1.1,5.9,2.8c0.3-0.5,0.4-1,0.4-1.5c0-2.4-2.8-4.3-6.3-4.3s-6.3,1.9-6.3,4.3
				c0,0.5,0.1,1,0.4,1.5C926.6,738.9,928.9,737.7,931.6,737.7z"/>
			<path class="st11" d="M931.6,752.6c0,0,1.8-9.6,11.5-6.1c9.7,3.4,6.8,11,6.8,11S941.8,750.8,931.6,752.6z"/>
			<path class="st11" d="M903.3,752.5c0,0-2.2-9.5-11.8-5.7s-6.3,11.3-6.3,11.3S893.1,751.1,903.3,752.5z"/>
			<path class="st11" d="M918.5,753.1c-2.9,0-5.5-1.5-7-3.9c-0.9,1.3-1.3,2.9-1.3,4.5c0.1,4.6,3.9,8.2,8.5,8.1
				c4.4-0.1,8-3.7,8.1-8.1c0-1.6-0.4-3.1-1.3-4.4C923.9,751.7,921.3,753.1,918.5,753.1z"/>
			<path class="st12" d="M918.5,770.9c-2.3,0.1-4.4-1.3-5.4-3.4c-0.2,0.6-0.3,1.1-0.3,1.7c0,2.8,2.6,5.1,5.7,5.1
				c3.2,0,5.7-2.3,5.7-5.1c0-0.6-0.1-1.2-0.3-1.7C922.9,769.6,920.8,771,918.5,770.9z"/>
		</g>
		<g id="hat">
			<path id="hat-2" class="st6" d="M955.9,675.8c0,0-28.4-16.6-36.1-16.2s-8.8-0.8-17.1,10.4s-24.5,42.7-24.5,42.7
				s36.6-22.8,78.5,0.3l-11.9-21.3l24.2-7.6L955.9,675.8z"/>
			<path id="hatshadow" class="st13" d="M926.6,664.8c0,0,16.8,18.8,17.6,26.8C944.2,691.6,947.7,682.4,926.6,664.8z"/>
			<circle id="pompom" class="st1" cx="970.1" cy="682.8" r="11.1"/>
		</g>
	</g>
</g>
<g id="santabag_1_" class="st4">
	<g id="santabag" class="st5">
		<path class="st14" d="M754.8,762.6c0,0,40-30.3,31-7.4C785.8,755.1,802.8,773.9,754.8,762.6z"/>
		<path class="st14" d="M771.1,768.3c0,0-15.8-47.7-21.3-23.8C749.7,744.5,725.2,750.2,771.1,768.3z"/>
		<polygon class="st15" points="746.2,831.3 791.4,816.6 793.7,807.9 732.9,827.6 		"/>
		<polygon class="st15" points="715.1,787.8 778.6,767.7 765.3,764 717.4,779.1 		"/>
		<polygon class="st15" points="707.1,817.1 799.3,787.3 801.7,778.5 709.5,808.4 		"/>
		<polygon class="st15" points="768.4,837.5 787.4,831.2 789.8,822.5 755.2,833.8 		"/>
		<polygon class="st15" points="723.9,825.1 795.4,801.9 797.7,793.2 710.7,821.4 		"/>
		<path class="st15" d="M726.4,753.1c-0.9-0.3-1.9,0.2-2.2,1.1c0,0.1-0.1,0.2-0.1,0.3l-1.1,4l11-3.2L726.4,753.1z"/>
		<path class="st15" d="M782.9,841.6c1,0.3,1.9-0.6,2.2-1.9l0.7-2.5l-8.4,2.9L782.9,841.6z"/>
		<polygon class="st15" points="711.1,802.5 800.8,774 787.5,770.3 713.4,793.7 		"/>
		<polygon class="st15" points="721.4,764.4 719,773.2 756.3,761.5 743.1,757.8 		"/>
		<polygon class="st1" points="777.4,840.1 785.8,837.2 787.4,831.2 768.4,837.5 		"/>
		<polygon class="st1" points="755.2,833.8 789.8,822.5 791.4,816.6 746.2,831.3 		"/>
		<polygon class="st1" points="732.9,827.6 793.7,807.9 795.4,801.9 723.9,825.1 		"/>
		<path class="st1" d="M706.9,817.8c-0.3,1.3,0.2,2.6,1.2,2.8l2.6,0.7l87-28.2l1.6-5.9L707,817.1L706.9,817.8z"/>
		<path class="st1" d="M709.5,808.4l92.2-29.9l0.6-2.1c0.3-1.3,0-2-1-2.3l-0.4-0.1l-89.7,28.5L709.5,808.4z"/>
		<polygon class="st1" points="713.4,793.7 787.5,770.3 778.6,767.7 715.1,787.8 		"/>
		<polygon class="st1" points="717.4,779.1 765.3,764 756.3,761.5 719,773.2 		"/>
		<polygon class="st1" points="734.1,755.3 723,758.5 721.4,764.4 743.1,757.8 		"/>
		<polygon class="st16" points="719.1,774.4 721.8,764.5 799.7,786.7 796.9,796.6 		"/>
		<path class="st17" d="M801.4,789.4c-0.5,2-2.5,3.2-4.4,2.7l0,0l0,0l-75.7-21.2c-1.9-0.6-3-2.6-2.5-4.6l0,0l3.3-12
			c0.5-2,2.5-3.2,4.4-2.7l0,0l75.7,21.2c1.9,0.6,3,2.6,2.5,4.6l0,0L801.4,789.4z"/>
		<path class="st18" d="M768.7,759.1c0,0,4.4-5,10.9-6.3C786.2,751.6,773.5,758.8,768.7,759.1z"/>
		<path class="st18" d="M769.8,760.9c0,0,6-2.4,12.3-0.5C788.5,762.2,774.2,762.9,769.8,760.9z"/>
		<path class="st18" d="M762.4,757.4c0,0-1.2-6.6-6.2-11.1C751.2,741.8,758.5,754.6,762.4,757.4z"/>
		<path class="st18" d="M760.6,758.3c0,0-3.9-5.2-10.4-6.9C743.8,749.8,755.9,757.7,760.6,758.3z"/>
		<path class="st18" d="M760.9,760.9c0,0,0.6-7.1,5.2-6.1c4.6,0.9,0.4,7.3-0.3,7.5"/>
		<path class="st19" d="M720.6,779.7c0,0-0.9-23.3,9.8-19.9c1.2,0.4,0.7,3.7,1.5,4.7c1.6,2,9.1,2.5,9.1,5.1
			c-0.1,4.8-14.2,5.1-16.3,9.5"/>
		<path class="st19" d="M727.6,777.5c0,0-11.7-24.1-19.1-15.5c-1.6,1.8,2.3,7.3,1.3,9.5c-0.6,1.4-5.2,2-5,3.5c0.7,4.9,15,2,19.1,4.4
			"/>
		<path class="st19" d="M694.7,785.8l56.1-8.4c2-0.3,3.9,1.1,4.2,3.1l7,48c0.3,2-1.1,3.9-3.1,4.2l-56.1,8.4c-2,0.3-3.9-1.1-4.2-3.1
			l-7-48C691.3,788,692.7,786.1,694.7,785.8z"/>
		<g class="st20">
			<path class="st19" d="M694.7,785.8l56.1-8.4c2-0.3,3.9,1.1,4.2,3.1l1.1,7.4c0.3,2-1.1,3.9-3.1,4.2l-56.1,8.4
				c-2,0.3-3.9-1.1-4.2-3.1l-1.1-7.4C691.3,788,692.7,786.1,694.7,785.8z"/>
		</g>
		<polygon class="st19" points="729.3,773.8 736.5,772.6 739.1,790.1 731.9,791.2 		"/>
		<polygon class="st19" points="713.5,776.5 720.8,775.4 723.3,792.8 716,793.9 		"/>
		<path class="st19" d="M688.8,782.1l1.9,13.3c0.2,1.1,0.8,1.9,1.8,1.7l-2.5-17.2C689.1,780.1,688.7,781.1,688.8,782.1z"/>
		<polygon class="st19" points="698.4,778.8 705.7,777.7 708.3,795.1 701,796.2 		"/>
		<polygon class="st19" points="743.1,772.1 750.4,771 752.9,788.4 745.7,789.5 		"/>
		<path class="st19" d="M757.8,785.4l-1.9-13.3c-0.2-1.1-1.2-1.8-2.3-1.6l-3.1,0.5l2.5,17.4l3.1-0.5
			C757.1,787.8,757.9,786.5,757.8,785.4z"/>
		<polygon class="st19" points="735.8,773.2 743.1,772.1 745.7,789.5 738.4,790.6 		"/>
		<polygon class="st19" points="720.8,775.4 728.6,774.3 731.1,791.6 723.3,792.8 		"/>
		<polygon class="st19" points="705.7,777.7 713.5,776.5 716,793.9 708.3,795.1 		"/>
		<polygon class="st19" points="690.1,780 698.5,778.8 701,796.2 692.7,797.4 		"/>
		<polygon class="st21" points="689,782.9 756,772.8 756.6,777.1 689.6,787.1 		"/>
		<polygon class="st21" points="690,790.3 757.1,780.2 757.7,784.4 690.7,794.5 		"/>
		<path class="st21" d="M690.6,802.6c0,0-1.8,11.4-1.5,12.7s-4.8,9.5-7.9,22.8c-3.1,13.2-5.1,19.4-3.6,32.9s13,24.1,13,24.1
			s18.1,11.9,38,10.4c0,0,31.9,3.9,45.9-1.3c0,0,20.7-3.6,31.1-15.3c10.5-11.6,9.9-34.1,9.9-34.1s-3.8-22.1-12.2-35.8l-3.3-16.3
			L691.1,801L690.6,802.6z"/>
		<ellipse class="st1" cx="799.7" cy="802.7" rx="3.6" ry="3.6"/>
		<ellipse class="st1" cx="797.6" cy="798.7" rx="3.6" ry="3.6"/>
		<ellipse class="st1" cx="794" cy="803" rx="3.6" ry="3.6"/>
		<ellipse class="st1" cx="789.2" cy="803" rx="3.6" ry="3.6"/>
		<ellipse class="st1" cx="783.7" cy="803" rx="3.6" ry="3.6"/>
		<ellipse class="st1" cx="779.1" cy="802.4" rx="3.6" ry="3.6"/>
		<ellipse class="st1" cx="774.1" cy="801.6" rx="3.6" ry="3.6"/>
		<ellipse class="st1" cx="768.4" cy="801" rx="3.6" ry="3.6"/>
		<ellipse class="st1" cx="763.8" cy="801" rx="3.6" ry="3.6"/>
		<ellipse class="st1" cx="753.7" cy="802.4" rx="3.6" ry="3.6"/>
		<ellipse class="st1" cx="748.4" cy="802.4" rx="3.6" ry="3.6"/>
		<ellipse class="st1" cx="744" cy="801" rx="3.6" ry="3.6"/>
		<ellipse class="st1" cx="738.8" cy="799.4" rx="3.6" ry="3.6"/>
		<ellipse class="st1" cx="735.2" cy="800.3" rx="3.6" ry="3.6"/>
		<ellipse class="st1" cx="729.1" cy="801" rx="3.6" ry="3.6"/>
		<ellipse class="st1" cx="724.5" cy="801.6" rx="3.6" ry="3.6"/>
		<ellipse class="st1" cx="719.5" cy="802.4" rx="3.6" ry="3.6"/>
		<ellipse class="st1" cx="713.8" cy="802.4" rx="3.6" ry="3.6"/>
		<ellipse class="st1" cx="709.2" cy="802.4" rx="3.6" ry="3.6"/>
		<ellipse class="st1" cx="704.2" cy="801.6" rx="3.6" ry="3.6"/>
		<ellipse class="st1" cx="698.9" cy="801" rx="3.6" ry="3.6"/>
		<ellipse class="st1" cx="692.5" cy="798" rx="3.6" ry="3.6"/>
		<ellipse class="st1" cx="693.6" cy="800.3" rx="3.6" ry="3.6"/>
		<ellipse class="st1" cx="694" cy="795.8" rx="3.6" ry="3.6"/>
		<ellipse class="st1" cx="759.2" cy="801" rx="3.6" ry="3.6"/>
	</g>
</g>
<g id="snowman" class="st4">
	<g class="st5">
		<path class="st22" d="M1826.9,818.1c-4.6-5.6-3.9-9.5-5.6-12.3s2.5-9.5,2.8-13.3l-2.1-2.5c0,0,0.7,4.2-1.4,6.3s-2.1,6.3-2.1,6.3
			s-3.9-6-4.2-8.8c-0.3-2.8-7.4-7-7.4-7l-1.8,3.2c0,0,5.3,1.8,5.6,6s3.9,8.1,3.9,8.1s-6-3.5-9.8-3.5l-0.3,2.8c0,0,6.7,0.7,9.1,4.2
			s10.2,11.9,10.5,17.2c0.2,3.2,4.6,8.3,7.9,11.8c1.4-2,3-3.9,4.6-5.7C1833.8,827.1,1829.7,821.6,1826.9,818.1z"/>
		<path class="st1" d="M1942.8,921c-1.3,1.7-2.7,3.3-4.2,4.8C1940.1,924.3,1941.5,922.7,1942.8,921z"/>
		<path class="st1" d="M1885,947.3c1.1,0,2.1,0.1,3.2,0.1c18.5,0,36.2-7.3,49.3-20.4c-13.1,13.1-30.8,20.4-49.3,20.4
			C1887.1,947.4,1886.1,947.4,1885,947.3z"/>
		<path class="st1" d="M1929.3,881c0-15-4.8-29.6-13.8-41.6c0.2,0.5,0.3,0.9,0.5,1.4c0.2,0.6,0.5,1.2,0.7,1.8l0,0
			c0.8,1.7,1.7,3.4,2.5,4.8c1.4,2.5,2.6,4.2,2.6,4.2c-6.1-1.9-17.3,5.1-17.3,5.1c-1-2-1.8-4-2.5-6.1c0-0.1-0.1-0.1-0.1-0.2
			c-0.3-0.7-0.5-1.5-0.7-2.4v-0.1c-0.1-0.4-0.2-0.8-0.3-1.3l0,0c-0.8-3-1.2-6.2-1-9.3l0,0c0-0.5,0.1-1,0.2-1.5v-0.1
			c0.1-0.5,0.2-0.9,0.3-1.3l0.1-0.3c0.1-0.4,0.3-0.9,0.4-1.3l0,0c0.1-0.2,0.2-0.5,0.3-0.7c0-0.1,0.1-0.2,0.1-0.3s0.1-0.3,0.1-0.4
			c0.1-0.3,0.1-0.6,0.1-1c0.1-1.1,0-2.3-0.3-3.3c-2.9,0.6-5.9,0.9-8.9,1.1h-0.1c-0.5,0-1.1,0-1.6,0.1h-2.2c-0.6,0-1.3,0-1.9-0.1
			c-6.8-0.3-13.6-1.3-20.3-3l-0.3-0.1c-0.3-0.1-0.7-0.2-1-0.3l-0.3-0.1l-1.1-0.3l-0.2-0.1c-0.4-0.1-0.7-0.2-1.1-0.3h-0.1l-1.1-0.4
			l0,0c-4.6-1.6-7.9-3.5-9.1-5.3c-5.6,3.4-10.7,7.7-15.1,12.5c-1.6,1.8-3.2,3.7-4.6,5.7c-22.7,31-16,74.6,15,97.4
			c11,8.1,24.2,12.7,37.9,13.4c-1.1-0.1-2.1-0.1-3.2-0.2C1910.1,937.6,1929.3,911,1929.3,881z M1854.6,900.2c-2.3,0-4.2-1.9-4.2-4.2
			s1.9-4.2,4.2-4.2s4.2,1.9,4.2,4.2C1858.9,898.3,1857,900.2,1854.6,900.2L1854.6,900.2z M1855.7,870.7c-2.3,0-4.2-1.9-4.2-4.2
			s1.9-4.2,4.2-4.2c2.3,0,4.2,1.9,4.2,4.2l0,0C1859.9,868.8,1858,870.7,1855.7,870.7z M1863.1,843.7c-2.3,0-4.2-1.9-4.2-4.2
			s1.9-4.2,4.2-4.2s4.2,1.9,4.2,4.2C1867.3,841.8,1865.4,843.7,1863.1,843.7L1863.1,843.7z"/>
		<path class="st23" d="M1939.2,852.5c-4.9,1.8-8.1-4.2-4.9-6.7c0,0,4-5.6,8.4-11.5c-0.2-0.3-0.5-0.6-0.7-0.9
			c-1.1-1.3-2.2-2.5-3.3-3.8c-0.8-0.8-1.6-1.6-2.4-2.4c-1.2-1.2-2.5-2.3-3.8-3.3c-1.7-1.4-3.5-2.8-5.4-4l0,0c0,0.1,0,0.1,0,0.2
			s0,0.2,0,0.3v0.2c0,0.2,0,0.3,0,0.5l0,0c0,0.2,0,0.3,0,0.5s0,0.2,0,0.3v0.1c0,0.1,0,0.3,0,0.4l0,0c0,0.2,0.1,0.3,0.1,0.5
			c0.5,1.6,1.3,3,2.3,4.2l0,0c0.3,0.4,0.6,0.8,1,1.2l0,0c1,1.1,2.1,2.2,3.2,3.2l0,0c1.8,1.6,3.2,2.7,3.2,2.7
			c-6.4-0.2-16.6,7.2-16.6,7.2c-1.2-1.3-2.4-2.7-3.4-4.1l-0.1-0.1c-0.4-0.5-0.7-1.1-1.1-1.6c0,0,0,0,0-0.1c-0.2-0.3-0.4-0.6-0.5-0.9
			l0,0c-0.2-0.3-0.3-0.6-0.5-1c0,0.2,0,0.3,0,0.5l0,0c0,0.2,0,0.4,0,0.6c0.1,1.6,0.4,3.1,0.9,4.6c23,30.9,16.6,74.5-14.3,97.5
			c-5.9,4.4-12.5,7.8-19.5,10.2c1.1,0.1,2.1,0.2,3.2,0.2h0.1c1.1,0.1,2.1,0.1,3.2,0.1c18.5,0,36.2-7.3,49.3-20.4
			c0.4-0.4,0.8-0.8,1.2-1.2c1.5-1.5,2.9-3.1,4.2-4.8c2.2-2.7,4.1-5.6,5.8-8.6c0.8-1.5,1.6-3,2.4-4.5c9.2-19.1,9.2-41.3,0-60.4
			c-0.7-1.5-1.5-3-2.4-4.5c-0.1-0.1-0.1-0.2-0.2-0.3C1945.5,846.2,1942.5,849.4,1939.2,852.5z"/>
		<path class="st1" d="M1867.2,805.8l1.1,0.4l0.2,0.1l1.4,0.5l0.2,0.1c0.5,0.2,1,0.4,1.5,0.5l0,0c3.8,1.3,7.8,2.2,11.8,2.5
			c0.4,0,0.8,0.1,1.3,0.1l0,0c0.4,0,0.8,0,1.3,0h0.3c0.3,0,0.7,0,1,0c0.4,0,0.9,0,1.3-0.1h0.1h0.2l1.1-0.1c0.4,0,0.8-0.1,1.2-0.1
			l0,0l1.1-0.1c1.5-2.4,4.5-2.7,7.5-2.5c13.8-11.4,18-30.8,10.2-46.8c-16.7-1.5-36.1-4.2-49.8-8.5c-5.8,6.1-9.5,13.8-10.6,22.2
			c10.2-2.3,22.4-3.8,25.4-1.8c4.2,2.8,5.6,10.8,0.5,12.2c-2.9,0.8-15.5,0.2-25.9-1c0.9,7.7,4.1,14.9,9.2,20.7
			c0.1,0,0.2-0.1,0.3-0.1C1860.9,803.3,1863.6,804.4,1867.2,805.8z M1865.3,768.3c-2.3,0-4.2-1.9-4.2-4.2s1.9-4.2,4.2-4.2
			c2.3,0,4.2,1.9,4.2,4.2l0,0C1869.5,766.4,1867.6,768.3,1865.3,768.3L1865.3,768.3L1865.3,768.3z M1889.6,760.4
			c2.6,0,4.7,2.1,4.7,4.7c0,2.6-2.1,4.7-4.7,4.7s-4.7-2.1-4.7-4.7l0,0C1884.9,762.5,1887,760.4,1889.6,760.4L1889.6,760.4z
			 M1875.6,795.9c6.5,0.5,20.1-9.8,20.1-9.8s-8.4,14-20.1,14s-15.9-10.3-15.9-10.3C1864.3,793.3,1869.8,795.4,1875.6,795.9
			L1875.6,795.9z"/>
		<path class="st1" d="M1916.8,804.8c0.4-0.4,0.8-0.9,1.2-1.4C1917.6,804,1917.2,804.4,1916.8,804.8z"/>
		<path class="st1" d="M1921,799.3c-0.8,1.3-1.8,2.6-2.7,3.8C1919.3,801.9,1920.2,800.6,1921,799.3z"/>
		<path class="st23" d="M1910,760.2c7.8,16.1,3.6,35.4-10.2,46.8c0.7,0,1.4,0.1,2.1,0.2c2-1.9,6-2.4,9.3-2.7
			c1.8-0.5,3.3-0.7,4.5-0.2c0.3,0.1,0.7,0.3,1,0.5c0.4-0.4,0.8-0.9,1.2-1.4l0.3-0.4c1-1.2,1.9-2.5,2.7-3.8c7.3-11.5,8-26,1.9-38.1
			C1918.9,761,1914.5,760.6,1910,760.2z"/>
		<path class="st24" d="M1875.6,784.2c5.1-1.4,3.7-9.4-0.5-12.2c-3-2-15.2-0.5-25.4,1.8c-8.1,1.8-15,4.2-14.8,5.6
			c0.2,1.5,6.9,2.7,14.8,3.7C1860.1,784.5,1872.6,785,1875.6,784.2z"/>
		<path class="st22" d="M1865.3,759.9c-2.3,0-4.2,1.9-4.2,4.2s1.9,4.2,4.2,4.2c2.3,0,4.2-1.9,4.2-4.2l0,0
			C1869.5,761.8,1867.6,759.9,1865.3,759.9z"/>
		<path class="st22" d="M1889.6,769.7c2.6,0,4.7-2.1,4.7-4.7s-2.1-4.7-4.7-4.7s-4.7,2.1-4.7,4.7l0,0
			C1884.9,767.6,1887,769.7,1889.6,769.7L1889.6,769.7z"/>
		<path class="st22" d="M1875.6,800.1c11.7,0,20.1-14,20.1-14s-13.6,10.3-20.1,9.8c-5.8-0.5-11.3-2.6-15.9-6.1
			C1859.7,789.8,1863.9,800.1,1875.6,800.1z"/>
		<path class="st21" d="M1883.7,828c-1.8-6-1.1-13.7-0.4-18.1l0,0c-4-0.3-8-1.1-11.8-2.5c-2.8,3.3-4,11.6-4.5,18l-1-0.3
			c6.6,1.7,13.4,2.7,20.3,3c0.6,0,1.3,0.1,1.9,0.1c-0.6,0-1.3,0-1.9-0.1C1885.4,828.1,1884.5,828.1,1883.7,828z"/>
		<path class="st25" d="M1864.4,824.8l-1.1-0.3L1864.4,824.8z"/>
		<path class="st25" d="M1865.7,825.1c-0.3-0.1-0.7-0.2-1-0.3C1865,824.9,1865.3,825,1865.7,825.1z"/>
		<path class="st25" d="M1892.1,828.2c-0.5,0-1.1,0-1.6,0.1C1891,828.2,1891.5,828.2,1892.1,828.2z"/>
		<path class="st25" d="M1890.1,828.2L1890.1,828.2z"/>
		<path class="st25" d="M1861.9,824c-0.4-0.1-0.8-0.2-1.1-0.4L1861.9,824z"/>
		<path class="st25" d="M1863.1,824.4c-0.4-0.1-0.7-0.2-1.1-0.3C1862.4,824.2,1862.8,824.3,1863.1,824.4z"/>
		<path class="st21" d="M1860.8,823.6c-1.1-0.4-2.2-0.8-3.1-1.2c0.7-6.5,5.6-13.8,8-17.2l1.5,0.6c-3.6-1.4-6.2-2.5-8-2
			c-0.1,0-0.2,0.1-0.3,0.1c-4.1,1.7-7.6,8.4-7.6,13c0,0.5,0.2,1,0.5,1.4C1852.9,820.2,1856.1,822,1860.8,823.6z"/>
		<path class="st25" d="M1868.3,806.2l0.2,0.1L1868.3,806.2z"/>
		<path class="st25" d="M1869.8,806.8l0.2,0.1L1869.8,806.8z"/>
		<path class="st25" d="M1888.8,809.9l1.1-0.1L1888.8,809.9z"/>
		<path class="st25" d="M1886.2,810L1886.2,810z"/>
		<path class="st25" d="M1884.6,810L1884.6,810z"/>
		<path class="st25" d="M1887.2,810c0.4,0,0.9,0,1.3-0.1C1888.1,810,1887.7,810,1887.2,810z"/>
		<path class="st21" d="M1915.8,804.3c-1.2-0.5-2.6-0.3-4.5,0.2l0,0h0.1l0,0l1.7-0.2c1-0.1,2.4,0.5,3.9,1.5c-5,1.6-9.3,4.9-12.1,7.4
			c1.8,1.1,3.6,2.4,5.3,3.7c3.7-3.1,8.1-5.3,11.6-6.8l0,0c-0.4-0.4-0.8-0.9-1.2-1.3c0.1,0.1,0.1,0.1,0.2,0.2c-1-1.8-2.4-3.3-4.1-4.4
			l0,0C1916.5,804.6,1916.1,804.5,1915.8,804.3z M1920.7,809c-0.2-0.2-0.4-0.4-0.6-0.6C1920.3,808.6,1920.5,808.8,1920.7,809z
			 M1918.9,807.3c-0.2-0.2-0.4-0.3-0.6-0.5C1918.5,807,1918.7,807.1,1918.9,807.3L1918.9,807.3z M1920.1,808.4
			c-0.2-0.2-0.4-0.4-0.6-0.6C1919.7,808,1919.9,808.2,1920.1,808.4z M1919.5,807.8c-0.2-0.2-0.4-0.4-0.6-0.5
			C1919.1,807.5,1919.3,807.7,1919.5,807.8z M1917.1,805.9c0.2,0.1,0.4,0.3,0.6,0.4C1917.5,806.2,1917.3,806,1917.1,805.9
			L1917.1,805.9z M1917.7,806.3c0.2,0.1,0.4,0.3,0.6,0.5C1918.1,806.6,1917.9,806.5,1917.7,806.3L1917.7,806.3z"/>
		<path class="st26" d="M1871.5,807.4L1871.5,807.4c-0.5-0.2-1-0.4-1.5-0.5l-0.2-0.1l-1.4-0.5l-0.2-0.1l-1.1-0.4l-1.5-0.6
			c-2.4,3.3-7.3,10.6-8,17.2c1,0.4,2,0.8,3.1,1.2l0,0c0.4,0.1,0.7,0.3,1.1,0.4h0.1c0.4,0.1,0.7,0.2,1.1,0.3l0.2,0.1l1.1,0.3l0.3,0.1
			c0.3,0.1,0.7,0.2,1,0.3l0.3,0.1l1,0.3C1867.5,819,1868.7,810.7,1871.5,807.4z"/>
		<path class="st26" d="M1891.2,809.7L1891.2,809.7c-0.4,0-0.8,0.1-1.2,0.1l-1.1,0.1h-0.2h-0.1c-0.4,0-0.9,0-1.3,0.1
			c-0.3,0-0.7,0-1,0h-0.3c-0.4,0-0.9,0-1.3,0l0,0c-0.4,0-0.9,0-1.3-0.1l0,0c-0.7,4.4-1.4,12.1,0.4,18.1c0.9,0.1,1.8,0.1,2.6,0.2
			c0.6,0,1.3,0.1,1.9,0.1h2.2c0.6,0,1.1,0,1.6-0.1h0.1c0.6,0,1.2-0.1,1.8-0.1C1892.9,823.1,1891.4,815.4,1891.2,809.7z"/>
		<path class="st25" d="M1900.4,834.1c0.1-0.4,0.3-0.9,0.4-1.3C1900.6,833.3,1900.5,833.7,1900.4,834.1z"/>
		<path class="st25" d="M1901.2,847.9c-0.1-0.4-0.2-0.8-0.3-1.3C1900.9,847,1901.1,847.5,1901.2,847.9z"/>
		<path class="st25" d="M1901.9,850.4c-0.3-0.7-0.5-1.5-0.7-2.4C1901.4,848.8,1901.7,849.6,1901.9,850.4z"/>
		<path class="st25" d="M1900,835.7c0.1-0.5,0.2-0.9,0.3-1.3C1900.2,834.8,1900.1,835.3,1900,835.7z"/>
		<path class="st25" d="M1900.8,832.8c0.1-0.2,0.2-0.5,0.3-0.7C1901,832.3,1900.9,832.6,1900.8,832.8z"/>
		<path class="st21" d="M1902.4,851.6c-0.1-0.3-0.2-0.7-0.4-1c0.7,2.1,1.6,4.1,2.5,6.1c0,0,11.2-7,17.3-5.1c0,0-1.2-1.7-2.6-4.2l0,0
			C1914.7,848.4,1908.4,849.9,1902.4,851.6z"/>
		<path class="st25" d="M1899.8,837.3c0-0.5,0.1-1,0.2-1.5C1899.9,836.3,1899.9,836.8,1899.8,837.3z"/>
		<path class="st25" d="M1916.8,842.5L1916.8,842.5z"/>
		<path class="st25" d="M1901.1,831.8c0-0.1,0.1-0.3,0.1-0.4C1901.2,831.5,1901.2,831.7,1901.1,831.8z"/>
		<path class="st25" d="M1914.6,834.2C1914.6,834.2,1914.6,834.1,1914.6,834.2C1914.6,834.1,1914.6,834.2,1914.6,834.2z"/>
		<path class="st21" d="M1899.8,838.9c0-0.5,0-1,0.1-1.6c-0.2,3.1,0.2,6.3,1,9.3c4.1-2.2,10-5,15.2-5.8l0,0
			c-0.2-0.5-0.3-0.9-0.5-1.4c-0.5-1.5-0.8-3-0.9-4.6l0,0C1909.7,835.9,1904,837.3,1899.8,838.9z"/>
		<path class="st26" d="M1900.8,846.6L1900.8,846.6c0.1,0.4,0.2,0.9,0.3,1.3v0.1c0.2,0.8,0.5,1.6,0.7,2.4c0,0.1,0,0.1,0.1,0.2
			c0.1,0.4,0.2,0.7,0.4,1c6-1.7,12.3-3.2,16.9-4.2l0,0c-0.8-1.4-1.7-3.1-2.5-4.8l0,0c-0.3-0.6-0.5-1.2-0.7-1.8l0,0
			C1910.8,841.6,1904.9,844.4,1900.8,846.6z"/>
		<path class="st27" d="M1926.3,817c0.1,0.3,0.3,0.6,0.4,0.9C1926.5,817.6,1926.4,817.3,1926.3,817z"/>
		<path class="st27" d="M1926.7,818.2c0,0.1,0.1,0.2,0.1,0.3C1926.8,818.4,1926.7,818.3,1926.7,818.2z"/>
		<path class="st27" d="M1926.9,818.8c0,0.1,0,0.2,0.1,0.3C1926.9,818.9,1926.9,818.9,1926.9,818.8z"/>
		<path class="st27" d="M1927,819.3c0,0.1,0,0.2,0,0.3C1927.1,819.5,1927,819.4,1927,819.3z"/>
		<path class="st26" d="M1912.9,828.9c-0.1-0.7-0.2-1.4-0.2-2.2c0,0.1,0,0.2,0,0.2c-3.9,0.5-8,1.9-11.3,3.4l0,0c0,0.3-0.1,0.6-0.1,1
			c0,0.1-0.1,0.3-0.1,0.4c0,0.1-0.1,0.2-0.1,0.3c-0.1,0.2-0.2,0.5-0.3,0.7l0,0c-0.2,0.4-0.3,0.8-0.4,1.3l-0.1,0.3
			c-0.1,0.4-0.2,0.9-0.3,1.3v0.1c-0.1,0.5-0.1,1-0.2,1.5l0,0c0,0.5-0.1,1-0.1,1.6c4.2-1.6,9.9-3,14.8-4.1l0,0c0-0.2,0-0.4,0-0.6l0,0
			c0-0.2,0-0.3,0-0.5c0.2,0.3,0.3,0.6,0.5,1c3.8-2.5,9.3-5.7,14.4-7.3c-1-1.2-1.8-2.7-2.3-4.2l0,0
			C1922.4,824.8,1916.9,826.9,1912.9,828.9z"/>
		<path class="st27" d="M1915.7,835.5c-0.2-0.3-0.4-0.6-0.5-0.9C1915.3,834.9,1915.5,835.2,1915.7,835.5z"/>
		<path class="st27" d="M1927.1,820.5L1927.1,820.5z"/>
		<path class="st27" d="M1927,821.9L1927,821.9z"/>
		<path class="st27" d="M1927.1,822.5L1927.1,822.5L1927.1,822.5z"/>
		<path class="st26" d="M1916.9,837.4c1,1.5,2.2,2.9,3.4,4.1c0,0,10.2-7.5,16.6-7.2c0,0-1.4-1.1-3.2-2.7c-4.4,1.6-10.5,4-16.3,6.4
			C1917.2,837.9,1917,837.6,1916.9,837.4z"/>
		<path class="st27" d="M1927,821.6c0-0.2,0-0.3,0-0.5l0,0C1927,821.3,1927,821.4,1927,821.6z"/>
		<path class="st27" d="M1930.5,828.5L1930.5,828.5z"/>
		<path class="st27" d="M1927.1,820.1c0-0.1,0-0.1,0-0.2l0,0C1927.1,820,1927.1,820.1,1927.1,820.1z"/>
		<path class="st27" d="M1916.8,837.2c-0.4-0.5-0.7-1.1-1.1-1.6C1916,836.1,1916.4,836.7,1916.8,837.2z"/>
		<path class="st27" d="M1919.5,807.9c0.2,0.2,0.4,0.4,0.6,0.6C1919.9,808.2,1919.7,808,1919.5,807.9z"/>
		<path class="st27" d="M1918.9,807.3c-0.2-0.2-0.4-0.3-0.6-0.5C1918.5,807,1918.7,807.1,1918.9,807.3z"/>
		<path class="st27" d="M1918.3,806.8c-0.2-0.2-0.4-0.3-0.6-0.5C1917.9,806.5,1918.1,806.6,1918.3,806.8z"/>
		<path class="st27" d="M1920.7,809c-0.2-0.2-0.4-0.4-0.6-0.6C1920.3,808.6,1920.5,808.8,1920.7,809z"/>
		<path class="st27" d="M1918.9,807.3c0.2,0.2,0.4,0.3,0.6,0.5C1919.3,807.7,1919.1,807.5,1918.9,807.3z"/>
		<path class="st27" d="M1921.8,810.3c-0.3-0.4-0.6-0.7-1-1.1c-0.1-0.1-0.1-0.1-0.2-0.2C1921.1,809.4,1921.4,809.9,1921.8,810.3z"/>
		<path class="st26" d="M1910.2,817.1c-1.7-1.4-3.4-2.6-5.3-3.7c2.8-2.5,7.1-5.8,12.1-7.4c-1.5-1.1-2.9-1.7-3.9-1.5l-1.7,0.2l0,0
			h-0.1l0,0c-3.3,0.3-7.4,0.8-9.3,2.7c-0.5,0.5-0.8,1-1,1.6c-0.3,1,0.6,2,2.1,3.1c-2.9,1.3-5.6,3-8.1,5c1.6,1.9,3,3.9,4.4,6
			c3.5-2.5,7.3-4.3,11.4-5.5c1.4,1.4,2.5,2.9,2.6,4.7l0,0c3.7-2.1,8.4-4.4,12.9-5.3c-1.1-2.4-2.6-4.7-4.4-6.7
			C1918.3,811.8,1913.9,814,1910.2,817.1z"/>
		<path class="st27" d="M1917.7,806.3c-0.2-0.1-0.4-0.3-0.6-0.4C1917.3,806,1917.5,806.2,1917.7,806.3z"/>
		<path class="st27" d="M1912.8,825.8c0-0.1,0-0.2,0-0.3C1912.8,825.6,1912.8,825.7,1912.8,825.8z"/>
		<path class="st27" d="M1913.1,824.2c0.1-0.2,0.1-0.4,0.1-0.6C1913.2,823.8,1913.2,824,1913.1,824.2z"/>
		<path class="st27" d="M1912.9,825.1v-0.2V825.1z"/>
		<path class="st27" d="M1912.7,826.5c0-0.1,0-0.2,0-0.3C1912.7,826.3,1912.7,826.4,1912.7,826.5z"/>
		<path class="st27" d="M1913.3,823c0,0.1,0,0.2,0,0.3C1913.3,823.2,1913.3,823.1,1913.3,823z"/>
		<path class="st21" d="M1913.3,822.3L1913.3,822.3c-0.1-1.8-1.2-3.3-2.6-4.7c-4.1,1.2-7.9,3-11.4,5.5c-1.3-2.1-2.8-4.1-4.4-6
			c2.5-2,5.2-3.7,8.1-5c-1.5-1.1-2.4-2.1-2.1-3.1c0.2-0.6,0.5-1.2,1-1.6c-0.7-0.1-1.4-0.2-2.1-0.2c-3-0.2-6,0.1-7.5,2.5l-1.1,0.1
			c0.2,5.7,1.7,13.3,2.8,18.3c-0.6,0-1.2,0.1-1.8,0.1c3-0.1,6-0.5,8.9-1.1c0.3,1.1,0.4,2.2,0.3,3.3l0,0c3.3-1.5,7.4-3,11.3-3.4
			c0-0.1,0-0.2,0-0.2c0,0.7,0.1,1.4,0.2,2.2c4-2,9.5-4.2,14.2-5.9l0,0c0-0.2-0.1-0.3-0.1-0.5l0,0c0-0.1,0-0.3,0-0.4v-0.1
			c0-0.1,0-0.2,0-0.3c0-0.2,0-0.3,0-0.5l0,0c0-0.2,0-0.3,0-0.5v-0.2c0-0.1,0-0.2,0-0.3s0-0.2,0-0.2c0-0.1,0-0.2,0-0.3s0-0.2,0-0.3
			s0-0.2-0.1-0.3c0-0.1,0-0.2-0.1-0.3c0-0.1-0.1-0.2-0.1-0.3s-0.1-0.2-0.1-0.3l-0.1-0.2c-0.1-0.3-0.2-0.6-0.4-0.9l0,0l0,0
			C1921.7,817.9,1917,820.2,1913.3,822.3z M1913.3,823.6c0,0.2-0.1,0.4-0.1,0.6C1913.2,824,1913.2,823.8,1913.3,823.6L1913.3,823.6z
			 M1913.3,823.3c0-0.1,0-0.2,0-0.3C1913.3,823.1,1913.3,823.2,1913.3,823.3L1913.3,823.3z M1912.7,826.2c0,0.1,0,0.2,0,0.3
			C1912.7,826.4,1912.7,826.3,1912.7,826.2L1912.7,826.2z M1912.9,824.9v0.2V824.9z M1912.8,825.5c0,0.1,0,0.2,0,0.3
			C1912.8,825.7,1912.8,825.6,1912.8,825.5L1912.8,825.5z"/>
		<path class="st21" d="M1915.1,834.6L1915.1,834.6c0.2,0.3,0.3,0.6,0.5,0.9c0,0,0,0,0,0.1c0.4,0.6,0.7,1.1,1.1,1.6l0.1,0.1
			c0.2,0.2,0.3,0.5,0.5,0.7c5.8-2.5,11.8-4.8,16.3-6.4l0,0c-1.1-1-2.2-2.1-3.2-3.2l0,0c-0.3-0.4-0.7-0.8-1-1.2l0,0
			C1924.4,828.9,1918.9,832.1,1915.1,834.6L1915.1,834.6z"/>
		<path class="st22" d="M1966,806.4c0,0,4.5-4.9,4.9-10.3c0.4-5.4,7.2-7.6,7.2-7.6l-2.2-4c0,0-9,5.4-9.4,9s-5.4,11.2-5.4,11.2
			s0-5.4-2.7-8.1c-2.7-2.7-1.8-8.1-1.8-8.1l-2.7,3.1c0.4,4.9,5.8,13.4,3.6,17s-1.3,8.5-7.2,15.7c-2.2,2.7-5,6.4-7.7,10
			c-4.4,5.9-8.4,11.5-8.4,11.5c-3.2,2.5,0,8.5,4.9,6.7c3.3-3,6.4-6.3,9.3-9.7c2.9-3.5,5.3-7.2,5.5-10c0.4-6.7,10.3-17.5,13.4-21.9
			c3.1-4.5,11.6-5.4,11.6-5.4l-0.4-3.6C1973.6,801.9,1966,806.4,1966,806.4z"/>
		<path class="st22" d="M1863.1,835.3c-2.3,0-4.2,1.9-4.2,4.2s1.9,4.2,4.2,4.2c2.3,0,4.2-1.9,4.2-4.2l0,0
			C1867.3,837.2,1865.4,835.3,1863.1,835.3L1863.1,835.3z"/>
		<path class="st22" d="M1855.7,862.3c-2.3,0-4.2,1.9-4.2,4.2s1.9,4.2,4.2,4.2c2.3,0,4.2-1.9,4.2-4.2l0,0
			C1859.9,864.2,1858,862.3,1855.7,862.3z"/>
		<path class="st22" d="M1854.6,891.8c-2.3,0-4.2,1.9-4.2,4.2s1.9,4.2,4.2,4.2c2.3,0,4.2-1.9,4.2-4.2l0,0
			C1858.9,893.6,1857,891.8,1854.6,891.8L1854.6,891.8z"/>
		<path class="st28" d="M1922.9,761.2c5.7,0.3,10.7,0.5,14.5,0.5c17.1,0,8.6-10.8-14.8-18.8c-0.9,2.6-2,4.3-3.3,4.8
			c-7.6,2.6-45.8,0-49.2-10.6c-0.2-0.6-0.1-1.9,0.1-3.6c-19.8-1.1-28.9,1.7-27.4,7c1.3,4.5,8.1,8.3,17.5,11.2
			c13.7,4.3,33,7,49.8,8.5C1914.5,760.6,1918.9,761,1922.9,761.2z"/>
		<path class="st29" d="M1870,737.1c3.4,10.6,41.6,13.3,49.2,10.6c1.4-0.5,2.5-2.3,3.3-4.8c3.4-9.7,3.8-30.8,3.5-35.3
			c-0.4-5.7-9.8,0.4-20-3.8s-15.9-9.1-21.2-6.4c-4.5,2.3-13,26.5-14.6,36.2C1869.9,735.2,1869.8,736.5,1870,737.1z"/>
	</g>
</g>
<g id="coke" class="st4">
	<g class="st5">
		
			<linearGradient id="SVGID_1_" gradientUnits="userSpaceOnUse" x1="2890.2212" y1="-1170.6101" x2="2872.437" y2="-1180.8763" gradientTransform="matrix(0.9076 -0.4198 0.4198 0.9076 -168.3626 3035.7385)">
			<stop  offset="0.37" style="stop-color:#FFFFFF"/>
			<stop  offset="0.45" style="stop-color:#FBFEFF"/>
			<stop  offset="0.53" style="stop-color:#EFFAFE"/>
			<stop  offset="0.61" style="stop-color:#DCF4FD"/>
			<stop  offset="0.69" style="stop-color:#C0EBFB"/>
			<stop  offset="0.77" style="stop-color:#9DE0F9"/>
			<stop  offset="0.84" style="stop-color:#72D2F6"/>
			<stop  offset="0.92" style="stop-color:#3EC2F3"/>
			<stop  offset="1" style="stop-color:#04AFEF"/>
			<stop  offset="1" style="stop-color:#00AEEF"/>
		</linearGradient>
		<path class="st30" d="M1943.5,752c0,0,0.7-0.1,0.6,0.2c0,0.3,0.2,2.2,0.2,2.2s0.5,0.5,1.1,0.2l2.6,6.8c0,0,2.4,8.3,2.1,8.9
			c-0.2,0.6,12-3.6,12.8-5.9c0,0-8.4-10.9-8.6-13.7l0.5-0.8l-1.9-1.9l0.5-0.5C1953.4,747.5,1948.3,748.9,1943.5,752z"/>
		
			<linearGradient id="SVGID_2_" gradientUnits="userSpaceOnUse" x1="2869.375" y1="-1129.5579" x2="2892.8137" y2="-1129.5579" gradientTransform="matrix(0.9076 -0.4198 0.4198 0.9076 -168.3626 3035.7385)">
			<stop  offset="0.16" style="stop-color:#A97C50"/>
			<stop  offset="0.17" style="stop-color:#A77A4E"/>
			<stop  offset="0.25" style="stop-color:#91663E"/>
			<stop  offset="0.34" style="stop-color:#815732"/>
			<stop  offset="0.44" style="stop-color:#784F2B"/>
			<stop  offset="0.58" style="stop-color:#754C29"/>
			<stop  offset="1" style="stop-color:#3C2415"/>
		</linearGradient>
		
			<linearGradient id="SVGID_3_" gradientUnits="userSpaceOnUse" x1="2899.0625" y1="-1160.1094" x2="2864.1001" y2="-1099.5524" gradientTransform="matrix(0.9076 -0.4198 0.4198 0.9076 -168.3626 3035.7385)">
			<stop  offset="0.37" style="stop-color:#FFFFFF"/>
			<stop  offset="0.45" style="stop-color:#FBFEFF"/>
			<stop  offset="0.53" style="stop-color:#EFFAFE"/>
			<stop  offset="0.61" style="stop-color:#DCF4FD"/>
			<stop  offset="0.69" style="stop-color:#C0EBFB"/>
			<stop  offset="0.77" style="stop-color:#9DE0F9"/>
			<stop  offset="0.84" style="stop-color:#72D2F6"/>
			<stop  offset="0.92" style="stop-color:#3EC2F3"/>
			<stop  offset="1" style="stop-color:#04AFEF"/>
			<stop  offset="1" style="stop-color:#00AEEF"/>
		</linearGradient>
		<path class="st31" d="M1950.4,771.1l3.1,14.5c0,0,0.6,1.1,0.9,0.9l1.9,6c0,0,1.8,5,2.6,6.2c0.8,1.2,1.5,2.2,1.3,2.7
			c-0.2,0.4,0,1.1,0,1.1s1.1,1.1,1.7,1c0.6-0.2,10.4,18.4,10,19.3s1.4,11.6,4.6,12.7c3.2,1.1,13.7,1.6,18.6-7.7
			c0,0,3.4-3.7-5.6-13.6l-1.1-1.1l-7-19.7c0,0-0.1-1.5-1.5-1.9c0,0-1.5-7.5-7.4-13.4l0.1-0.7l-9.7-12.7l-12.8,5.9L1950.4,771.1z"/>
		<path class="st1" d="M1955.3,787.9c0,0,13.9-3.4,18-8.6c0,0,6.7,11.6,6.4,12c-0.3,0.4-5,6.8-19.2,9.2
			C1960.5,800.4,1954.3,788.6,1955.3,787.9z"/>
		<path class="st21" d="M1956,789c0,0,14.8-4.7,17.4-8c0,0,5.7,9,5.5,9.9s-13.1,8.9-18.5,8.7C1960.5,799.6,1955.3,789.3,1956,789z"
			/>
		<path class="st1" d="M1960.5,790.2c0,0-0.4,1,0.3,0.9c0.6,0,0-1.3-0.1-1.3s-0.9-0.3-1.2,0.7s-0.6,1.6-0.5,1.9s-0.1,1.5,0.1,2
			c0.1,0.4,0.3,0.8,0.4,1.2c0.2,0.5,0.8,1.4,1.4,1.2s1.3-0.5,1.6-0.8c0.3-0.3,1.5-1.3,2.8-0.8c0,0,1.7-0.9,2.4-0.8
			c0,0-1.3-1.1-3-0.4c-1.6,0.7-2.2,1.6-3.1,1.9c-0.8,0.3-1.3-0.5-1.3-0.5s-0.9-1.5-0.7-2.6c0.2-1.2,0.3-2.3,0.4-2.4
			C1960,790.5,1960.1,790,1960.5,790.2z"/>
		<path class="st1" d="M1960.8,791.4c-0.6,0.1-0.7,1.7-0.7,1.7c0,0.6,0.1,1.1,0.4,1.6c0.3,0.7,0.6,0.5,0.9,0
			c0.4-0.6,0.2-2.2,0.2-2.2S1961.5,791.3,1960.8,791.4z M1961.1,794.2c-0.4,0.2-0.2-1.3-0.2-1.3l0.5,0.2
			C1961.4,793,1961.5,794,1961.1,794.2z M1961.4,792.5c-0.3,0.2-0.4-0.1-0.4-0.3c-0.1-0.1,0-0.3,0.1-0.3h0.1
			C1961.3,791.9,1961.4,792.5,1961.4,792.5L1961.4,792.5z"/>
		<path class="st1" d="M1966.2,791.2l-0.1,0.7c-0.6,1.6-0.1-2.6-0.2-2.6c-0.1-0.1-1.3,0.6-1.7,1c-0.5,0.4-0.2,3.2-1.1,3.2
			c-0.9,0.1,0.2-3.3,0.1-2.5c-0.2,0.9,0.2,0.7,0.2,0.7c0.6-0.7-0.1-1.2-0.5-1.2s-0.8,1.3-0.9,1.6c0,0.2-0.2,0.3-0.4,0.3l-0.2,0.1
			l-0.1,0.4l0.6-0.1c0,0.6,0.2,1.1,0.6,1.5c0.6,0.7,1.5-1,1.5-1c0.1,1,1.3,0,1.3,0c0.8,0.7,1.3-1.8,1.2-2.1
			C1966.4,790.9,1966.2,791.2,1966.2,791.2z M1965.1,792.8c-0.3,0.4-0.7-1.7,0-2.4C1965.1,790.4,1965.3,792.4,1965.1,792.8
			L1965.1,792.8z"/>
		<polygon class="st1" points="1966.3,789.2 1966.3,790.2 1967.1,789.9 1967.1,788.8 		"/>
		<path class="st1" d="M1969.6,791.5c0,0-0.5,0.7-0.4,1c0,0.3-0.8-1.2,0-2.6c0.8-1.4,1.6,0.9,1.5,1.3c0,0,0,1.4-0.5,2
			s-1.5,1.4-2.3,0.4c-0.8-1.1-0.4-4.4-0.4-4.4s0.7-2.9,2-3.3c1.3-0.4,1.1,2.2,1.1,2.2s-0.2,1.4-0.8,0.9c-0.7-0.6-0.1-2.6-0.1-2.6
			s-1.3,1.6-1.2,3.3c0.1,1.7,0.1,3.2,0.4,3.3s0.8,0.2,1.1-0.2s0.6-2,0.3-2.4C1969.8,790,1969.5,790,1969.6,791.5"/>
		<path class="st1" d="M1969.9,785.8c0,0,0.5-1.4,2.7-0.9c0,0,1.6,0.4,1.4-1.7c0,0,1.1,1.3-0.4,2.7c0,0-2.8-0.4-3.3,0.1
			C1969.7,786.5,1969.9,785.8,1969.9,785.8z"/>
		<path class="st1" d="M1971.6,788.5c-0.4,0.1-0.7,1.8-0.7,1.8c0,1.9,0.6,2.6,1.3,2.1s0.4-2.1,0.4-3
			C1972.5,788.6,1971.9,788.4,1971.6,788.5z M1971.7,791.3l-0.1-1.2l0.7,0.1C1972.6,791.8,1971.7,791.3,1971.7,791.3L1971.7,791.3z
			 M1972.2,789.7c-0.1,0.3-0.4-0.2-0.4-0.2s0-0.1,0-0.2c0-0.2,0-0.4,0.1-0.4C1972,789,1972.3,789.3,1972.2,789.7L1972.2,789.7z"/>
		<path class="st1" d="M1975.3,786.3L1975.3,786.3z"/>
		<path class="st1" d="M1975.8,789.1c-0.2,0.1-0.5-2.6-0.5-2.8c0,0,0,0.2-0.6,0.4s-0.6,1.7-0.7,3.2s-0.4-0.7-0.4-0.7
			c0.2-0.6,0.3-1.2,0.4-1.9c0.1-0.8-0.2-4.3-1-3.6c-0.8,0.8-0.2,5.7-0.2,5.7l-0.3,0.3l-0.2,0.1l0.2,0.4c0,0,0.5-0.5,0.4-0.4
			c0,0.1,0.3,0.9,0.3,0.9c0.7,1.5,1.3-0.3,1.3-0.3c0.6,0.9,0.9-0.4,0.9-0.4c0.3,0.4,0.6,0,0.6,0c0.6-1.6-0.1-2.2-0.1-2.2
			S1976,789,1975.8,789.1z M1973.2,784c0.1,0.1,0.5,0.6,0.3,0.9c-0.1,0.2-0.4,0-0.4,0S1973.1,783.9,1973.2,784L1973.2,784z
			 M1973.2,785.9v-0.3c0,0,0.3-0.1,0.5,0.3c0.2,0.4-0.1,2.5-0.2,2.5C1973.3,788.4,1973.2,785.9,1973.2,785.9L1973.2,785.9z
			 M1975,789.5c-0.2-0.2-0.3-2.2-0.3-2.2s0-0.2,0.2,0.1S1975.2,789.7,1975,789.5L1975,789.5z"/>
		
			<radialGradient id="SVGID_4_" cx="2880.6553" cy="-1186.7512" r="4.2594" gradientTransform="matrix(0.9076 -0.4198 0.4198 0.9076 -168.3626 3035.7385)" gradientUnits="userSpaceOnUse">
			<stop  offset="0" style="stop-color:#F4929E"/>
			<stop  offset="0.16" style="stop-color:#F28D99"/>
			<stop  offset="0.36" style="stop-color:#EB7E8A"/>
			<stop  offset="0.57" style="stop-color:#DF6572"/>
			<stop  offset="0.8" style="stop-color:#CF4351"/>
			<stop  offset="1" style="stop-color:#BE1E2D"/>
		</radialGradient>
		<path class="st32" d="M1943.3,753.1c0,0,9-4.7,10.2-4.6c1.2,0.1-1.1-2.6-2.7-2s-5.1,1.8-7.2,3.5
			C1943.6,749.9,1942.5,750.3,1943.3,753.1z"/>
	</g>
	<g class="st5">
		
			<linearGradient id="SVGID_5_" gradientUnits="userSpaceOnUse" x1="1798.1982" y1="771.0045" x2="1780.425" y2="760.7446" gradientTransform="matrix(0.9239 0.3825 -0.3825 0.9239 462.2946 -632.1534)">
			<stop  offset="0.37" style="stop-color:#FFFFFF"/>
			<stop  offset="0.45" style="stop-color:#FBFEFF"/>
			<stop  offset="0.53" style="stop-color:#EFFAFE"/>
			<stop  offset="0.61" style="stop-color:#DCF4FD"/>
			<stop  offset="0.69" style="stop-color:#C0EBFB"/>
			<stop  offset="0.77" style="stop-color:#9DE0F9"/>
			<stop  offset="0.84" style="stop-color:#72D2F6"/>
			<stop  offset="0.92" style="stop-color:#3EC2F3"/>
			<stop  offset="1" style="stop-color:#04AFEF"/>
			<stop  offset="1" style="stop-color:#00AEEF"/>
		</linearGradient>
		<path class="st33" d="M1821.3,748c0,0,0.5,0.4,0.3,0.6c-0.2,0.2-1.5,1.7-1.5,1.7s-0.1,0.7,0.6,1l-3.3,6.5c0,0-4.5,7.4-5.1,7.6
			c-0.6,0.2,10.8,6.4,13,5.4c0,0,2.3-13.6,4.2-15.6l0.9-0.2l0.1-2.7h0.7C1831.3,752.2,1826.8,749.4,1821.3,748z"/>
		
			<linearGradient id="SVGID_6_" gradientUnits="userSpaceOnUse" x1="1777.4342" y1="812.2813" x2="1800.869" y2="812.2813" gradientTransform="matrix(0.9239 0.3825 -0.3825 0.9239 462.2946 -632.1534)">
			<stop  offset="0.16" style="stop-color:#A97C50"/>
			<stop  offset="0.17" style="stop-color:#A77A4E"/>
			<stop  offset="0.25" style="stop-color:#91663E"/>
			<stop  offset="0.34" style="stop-color:#815732"/>
			<stop  offset="0.44" style="stop-color:#784F2B"/>
			<stop  offset="0.58" style="stop-color:#754C29"/>
			<stop  offset="1" style="stop-color:#3C2415"/>
		</linearGradient>
		
			<linearGradient id="SVGID_7_" gradientUnits="userSpaceOnUse" x1="1807.3805" y1="781.512" x2="1772.4504" y2="842.0128" gradientTransform="matrix(0.9239 0.3825 -0.3825 0.9239 462.2946 -632.1534)">
			<stop  offset="0.37" style="stop-color:#FFFFFF"/>
			<stop  offset="0.45" style="stop-color:#FBFEFF"/>
			<stop  offset="0.53" style="stop-color:#EFFAFE"/>
			<stop  offset="0.61" style="stop-color:#DCF4FD"/>
			<stop  offset="0.69" style="stop-color:#C0EBFB"/>
			<stop  offset="0.77" style="stop-color:#9DE0F9"/>
			<stop  offset="0.84" style="stop-color:#72D2F6"/>
			<stop  offset="0.92" style="stop-color:#3EC2F3"/>
			<stop  offset="1" style="stop-color:#04AFEF"/>
			<stop  offset="1" style="stop-color:#00AEEF"/>
		</linearGradient>
		<path class="st34" d="M1811.9,766l-8.6,12.2c0,0-0.4,1.1-0.1,1.3l-3.2,5.5c0,0-2.5,4.7-2.8,6.1c-0.3,1.4-0.6,2.6-1.1,2.8
			c-0.4,0.2-0.8,0.8-0.8,0.8s-0.1,1.6,0.5,1.9c0.5,0.3-6.5,20.1-7.4,20.4c-0.9,0.3-7.6,8.9-6.2,12s8.2,11.2,18.3,8.5
			c0,0,5,0,6.2-13.3l0.1-1.5l9.8-18.5c0,0,1-1.1,0.3-2.4c0,0,4.4-6.2,4.8-14.5l0.6-0.4l2.7-15.7l-13-5.4L1811.9,766z"/>
		<path class="st1" d="M1802.9,780.9c0,0,11.9,7.9,18.6,7.4c0,0-4,12.8-4.5,12.8s-8.4,0.9-19.8-7.9
			C1797.2,793.2,1801.7,780.7,1802.9,780.9z"/>
		<path class="st21" d="M1802.6,782.2c0,0,13.5,7.7,17.7,7.4c0,0-2.7,10.3-3.6,10.7c-0.8,0.4-15.4-3.6-18.9-7.7
			C1797.8,792.7,1801.8,782,1802.6,782.2z"/>
		<path class="st1" d="M1804.7,786.3c0,0-1,0.4-0.5,0.8c0.4,0.4,1-0.9,0.9-1s-0.4-0.8-1.3-0.4c-0.9,0.4-1.5,0.6-1.8,0.9
			c-0.3,0.3-1.1,0.9-1.4,1.5c-0.2,0.4-0.4,0.7-0.6,1.1c-0.2,0.5-0.5,1.5,0,1.8s1.2,0.7,1.7,0.7c0.4,0,2,0.2,2.4,1.5
			c0,0,1.8,0.7,2.2,1.2c0,0-0.1-1.8-1.7-2.4s-2.7-0.5-3.5-1s-0.5-1.3-0.5-1.3s0.5-1.7,1.4-2.3c1-0.7,1.9-1.4,2.1-1.3
			C1804.1,786.2,1804.6,785.9,1804.7,786.3z"/>
		<path class="st1" d="M1804.1,787.4c-0.5-0.4-1.7,0.6-1.7,0.6c-0.4,0.4-0.8,0.8-1,1.4c-0.3,0.7,0,0.8,0.7,0.7s1.7-1.3,1.7-1.3
			S1804.6,787.8,1804.1,787.4z M1802.2,789.5c-0.4-0.2,0.8-1.1,0.8-1.1l0.2,0.5C1803.3,788.9,1802.6,789.6,1802.2,789.5z
			 M1803.6,788.5c-0.3-0.1-0.2-0.3-0.1-0.5c0.1-0.1,0.2-0.2,0.3-0.1l0.1,0.1C1804,788.1,1803.6,788.5,1803.6,788.5L1803.6,788.5z"/>
		<path class="st1" d="M1807.9,791.3l-0.6,0.4c-1.6,0.7,1.8-1.8,1.8-1.9c0-0.1-1.3-0.5-1.9-0.6s-2.5,2-3.2,1.4s2.6-2.1,1.8-1.6
			c-0.8,0.5-0.4,0.6-0.4,0.6c0.9,0,0.8-0.9,0.5-1.2s-1.5,0.3-1.8,0.4c-0.1,0.1-0.3,0-0.4-0.1l-0.2-0.1l-0.3,0.2l0.5,0.4
			c-0.4,0.4-0.7,0.9-0.7,1.4c0,0.9,1.7,0.4,1.7,0.4c-0.7,0.7,0.9,1,0.9,1c0,1,2.2-0.3,2.4-0.6
			C1808.3,791.2,1807.9,791.3,1807.9,791.3z M1806,791.5c-0.5,0,0.8-1.7,1.7-1.6C1807.7,789.8,1806.4,791.4,1806,791.5L1806,791.5z"
			/>
		<polygon class="st1" points="1809.4,789.9 1808.7,790.6 1809.4,791 1810.2,790.2 		"/>
		<path class="st1" d="M1810,794c0,0-0.9,0.1-1.1,0.4c-0.2,0.2,0.3-1.4,1.9-1.8c1.6-0.4,0.4,1.8,0.1,1.9c0,0-1,1-1.8,1
			s-2.1-0.2-1.9-1.5s3-3.2,3-3.2s2.6-1.5,3.8-0.8c1.2,0.7-0.9,2.3-0.9,2.3s-1.2,0.8-1.2,0c0-0.9,1.8-1.8,1.8-1.8s-2.1,0.2-3.3,1.3
			c-1.2,1.2-2.3,2.2-2.1,2.5c0.2,0.4,0.4,0.7,0.9,0.6c0.5-0.1,1.9-1,1.9-1.4C1811.2,793.1,1811,792.8,1810,794"/>
		<path class="st1" d="M1814.3,790.3c0,0,1.4-0.5,2.5,1.4c0,0,0.8,1.4,2.1-0.1c0,0-0.3,1.7-2.3,1.5c0,0-1.6-2.3-2.3-2.4
			C1813.7,790.6,1814.3,790.3,1814.3,790.3z"/>
		<path class="st1" d="M1813.5,793.3c-0.3-0.2-1.8,0.8-1.8,0.8c-1.4,1.2-1.5,2.2-0.7,2.4s1.8-1.1,2.4-1.7
			C1814.1,794.1,1813.8,793.6,1813.5,793.3z M1811.5,795.4l0.8-0.9l0.4,0.5C1811.8,796.4,1811.5,795.4,1811.5,795.4L1811.5,795.4z
			 M1813.1,794.6c-0.3,0.2-0.2-0.4-0.2-0.4s0-0.1,0.1-0.1c0.1-0.1,0.3-0.2,0.3-0.2C1813.4,794,1813.4,794.5,1813.1,794.6
			L1813.1,794.6z"/>
		<path class="st1" d="M1817.6,794.6L1817.6,794.6z"/>
		<path class="st1" d="M1815.9,796.8c-0.2-0.1,1.6-2.1,1.7-2.2c0,0-0.1,0.1-0.7-0.2s-1.6,0.7-2.8,1.7c-1.2,1,0.2-0.8,0.2-0.8
			c0.6-0.3,1.1-0.6,1.6-0.9c0.7-0.5,3.1-3.1,1.9-3.2c-1.1-0.1-4.3,3.7-4.3,3.7h-0.4l-0.2-0.1l-0.2,0.4c0,0,0.7,0,0.6,0
			s-0.5,0.8-0.5,0.8c-0.7,1.5,1.1,0.8,1.1,0.8c-0.3,1.1,0.9,0.3,0.9,0.3c-0.1,0.5,0.3,0.4,0.3,0.4c1.6-0.6,1.6-1.6,1.6-1.6
			S1816.1,796.9,1815.9,796.8z M1817.9,791.5c0,0.1-0.1,0.8-0.4,0.8s-0.3-0.3-0.3-0.3S1817.9,791.3,1817.9,791.5L1817.9,791.5z
			 M1816.5,792.8l0.3-0.2c0,0,0.3,0.1,0.1,0.5c-0.2,0.4-1.9,1.6-2,1.6C1814.7,794.6,1816.5,792.8,1816.5,792.8L1816.5,792.8z
			 M1815.1,796.5c0-0.2,1.4-1.7,1.4-1.7s0.2-0.1,0.1,0.2C1816.4,795.5,1815.1,796.8,1815.1,796.5L1815.1,796.5z"/>
		
			<radialGradient id="SVGID_8_" cx="1788.7145" cy="754.7209" r="4.2594" gradientTransform="matrix(0.9239 0.3825 -0.3825 0.9239 462.2946 -632.1534)" gradientUnits="userSpaceOnUse">
			<stop  offset="0" style="stop-color:#F4929E"/>
			<stop  offset="0.16" style="stop-color:#F28D99"/>
			<stop  offset="0.36" style="stop-color:#EB7E8A"/>
			<stop  offset="0.57" style="stop-color:#DF6572"/>
			<stop  offset="0.8" style="stop-color:#CF4351"/>
			<stop  offset="1" style="stop-color:#BE1E2D"/>
		</radialGradient>
		<path class="st35" d="M1820.4,748.5c0,0,9.5,3.4,10.3,4.4c0.7,1,1.1-2.6-0.3-3.4c-1.5-0.8-4.8-2.5-7.5-2.9
			C1822.8,746.6,1821.8,746.1,1820.4,748.5z"/>
	</g>
</g>
<g id="house" class="st4">
	<g class="st5">
		<polygon id="roof_1_" class="st36" points="1793.5,361.5 1778,381.4 1951.2,602.4 1981.5,602.4 		"/>
		<path id="roof" class="st37" d="M1418.6,362.4l-15.6,19.9h15.1H1702c9.4,0,17.1,7.6,17.1,16.9s-7.7,16.9-17.1,16.9h-110.3h-171.3
			c-9.4,0-17.1,7.6-17.1,16.9s7.7,16.9,17.1,16.9h99.9c9.4,0,17.1,7.6,17.1,16.9s-7.7,16.9-17.1,16.9h-34.9
			c-9.4,0-17.1,7.6-17.1,16.9s7.7,16.9,17.1,16.9h34.9c9.4,0,17.1,7.6,17.1,16.9c0,9.3-7.7,16.9-17.1,16.9H1373
			c-9.4,0-17.1,7.6-17.1,16.9s7.7,16.9,17.1,16.9h68.6c9.4,0,17.1,7.6,17.1,16.9c0,0.7-0.1,1.4-0.3,2h117.8h30.5l188-241.3h-376.1
			V362.4z"/>
		<path id="snow2" class="st1" d="M1441.6,584.4H1373c-9.4,0-17.1-7.6-17.1-16.9c0-9.3,7.7-16.9,17.1-16.9h147.3
			c9.4,0,17.1-7.6,17.1-16.9c0-9.3-7.7-16.9-17.1-16.9h-34.9c-9.4,0-17.1-7.6-17.1-16.9s7.7-16.9,17.1-16.9h34.9
			c9.4,0,17.1-7.6,17.1-16.9s-7.7-16.9-17.1-16.9h-99.9c-9.4,0-17.1-7.6-17.1-16.9s7.7-16.9,17.1-16.9h171.4h110.3
			c9.4,0,17.1-7.6,17.1-16.9s-7.7-16.9-17.1-16.9h-284H1403l-172.4,221.5h30.5h197.3c0.1-0.6,0.3-1.4,0.3-2
			C1458.6,591.9,1451,584.4,1441.6,584.4z"/>
		<path id="snow" class="st1" d="M1655.5,467.2c0,8.6-7,15.6-15.8,15.6H1600c-8.8,0-15.8-7-15.8-15.6l0,0c0-8.6,7-15.6,15.8-15.6
			h39.7C1648.5,451.5,1655.5,458.6,1655.5,467.2L1655.5,467.2z"/>
		<g id="front">
			<polygon class="st38" points="1424.1,679.1 1474.8,734.1 1594.3,675.1 1637.1,717.1 1637.1,603.2 1606.7,603.2 1576.2,603.2 
				1261,603.2 1261,908.7 1371.5,908.7 1295.8,834.3 			"/>
			<polygon class="st39" points="1594.3,675.1 1474.8,734.1 1424.1,679.1 1295.8,834.3 1371.5,908.7 1576.2,908.7 1637.1,908.7 
				1637.1,717.1 			"/>
		</g>
		<g id="window2">
			<rect x="1295.8" y="675.1" class="st1" width="123.5" height="159.2"/>
			<rect x="1310.7" y="688.1" class="st40" width="40.5" height="59.1"/>
			<rect x="1363.9" y="688.1" class="st40" width="40.4" height="59.1"/>
			<rect x="1310.7" y="761.6" class="st40" width="40.5" height="59.1"/>
			<rect x="1363.9" y="761.6" class="st40" width="40.4" height="59.1"/>
			<polygon class="st41" points="1424.1,679.1 1419.2,675.1 1419.2,834.3 1424.1,834.3 			"/>
			<rect x="1310.7" y="688.1" class="st42" width="3.3" height="59.1"/>
			<rect x="1363.9" y="688.1" class="st42" width="3.3" height="59.1"/>
			<rect x="1310.7" y="761.6" class="st42" width="3.3" height="59.1"/>
			<rect x="1363.9" y="761.6" class="st42" width="3.3" height="59.1"/>
		</g>
		<g id="door_1_">
			<rect id="doorframe" x="1453.9" y="675.1" class="st1" width="140.4" height="233.6"/>
			<rect id="door" x="1463.8" y="684.9" class="st43" width="120.6" height="223.8"/>
		</g>
		<rect id="glass" x="1486.4" y="717.4" class="st40" width="75.3" height="74.5"/>
		<polygon id="side" class="st38" points="1858.8,675.1 1952.3,740.4 1952.3,603.2 1779.1,382.2 1606.7,603.2 1637.1,603.2 
			1637.1,908.7 1830.3,908.7 1730.6,834.3 		"/>
		<polygon id="shadow1" class="st39" points="1952.3,740.4 1858.8,675.1 1730.6,834.3 1830.3,908.7 1952.3,908.7 		"/>
		<g id="window1">
			<rect x="1735.5" y="675.1" class="st1" width="123.5" height="159.2"/>
			<rect x="1803.5" y="688.1" class="st40" width="40.4" height="59.1"/>
			<rect x="1750.4" y="688.1" class="st40" width="40.4" height="59.1"/>
			<rect x="1803.5" y="761.6" class="st40" width="40.4" height="59.1"/>
			<rect x="1750.4" y="761.6" class="st40" width="40.4" height="59.1"/>
			<polygon class="st41" points="1730.6,679.1 1735.5,675.1 1735.5,834.3 1730.6,834.3 			"/>
			<rect x="1840.6" y="688.1" class="st42" width="3.3" height="59.1"/>
			<rect x="1787.5" y="688.1" class="st42" width="3.3" height="59.1"/>
			<rect x="1840.6" y="761.6" class="st42" width="3.3" height="59.1"/>
			<rect x="1787.5" y="761.6" class="st42" width="3.3" height="59.1"/>
		</g>
		<g id="chimney">
			<rect x="1682" y="289.4" class="st37" width="68.3" height="73"/>
			<rect x="1750.4" y="289.4" class="st37" width="20.2" height="73"/>
			<rect x="1668.2" y="274.1" class="st44" width="116.2" height="15.3"/>
		</g>
		<g id="sign">
			<path class="st45" d="M1842.8,577.9l-129.5,27.2c-17.5,3.7-31.8-7.5-31.8-24.8v-0.2c0-17.3,14.3-34.5,31.8-38.2l129.5-27.2
				c17.5-3.7,31.8,7.5,31.8,24.8v0.2C1874.7,557.1,1860.3,574.2,1842.8,577.9z"/>
			<polygon class="st46" points="1850.8,568.1 1705.4,598.7 1705.4,553.4 1850.8,522.9 			"/>
			<text transform="matrix(1.0108 -0.2126 0 1 1747.5686 558.8542)" class="st1 st47 st48">Santa’s </text>
			<text transform="matrix(1.0108 -0.2126 0 1 1734.934 586.1122)" class="st1 st47 st48">Workshop</text>
			<polyline class="st49" points="1698,546.4 1781.2,471.1 1862.3,514.3 			"/>
		</g>
		<g id="flags">
			<path class="st50" d="M1261,603.2c0,0,30.7,36.6,69,26.3s39.7-25.7,39.7-25.7s42.1,28.5,68.1,27.1s47.7-29,47.7-29
				s42.5,38.8,71.8,30.9c29.3-7.9,49.4-29.6,49.4-29.6"/>
			<g>
				<polygon class="st1" points="1269.5,616.8 1316.5,625.4 1316.5,615.8 1269.5,607.2 				"/>
				<polygon class="st51" points="1269.7,626.5 1316.7,635.1 1316.7,625.5 1269.7,616.9 				"/>
				<polygon class="st43" points="1269.6,635.9 1316.6,644.5 1316.7,634.9 1269.7,626.3 				"/>
			</g>
			<g>
				<polygon class="st1" points="1501.9,617.3 1548.9,625.9 1548.9,616.3 1501.9,607.7 				"/>
				<polygon class="st51" points="1502,627 1549,635.6 1549.1,626 1502.1,617.4 				"/>
				<polygon class="st43" points="1502,636.4 1549,645 1549,635.5 1502,626.8 				"/>
			</g>
			<g>
				<polygon class="st1" points="1385.9,617.8 1432.9,626.4 1433,616.9 1386,608.2 				"/>
				<polygon class="st51" points="1386.1,627.5 1433.1,636.1 1433.1,626.6 1386.1,617.9 				"/>
				<polygon class="st43" points="1386.1,636.9 1433.1,645.6 1433.1,636 1386.1,627.3 				"/>
			</g>
			<g>
				<polygon class="st1" points="1372,618 1325,626.6 1325,617 1372,608.4 				"/>
				<polygon class="st51" points="1371.9,627.7 1324.9,636.3 1324.8,626.7 1371.8,618.1 				"/>
				<polygon class="st43" points="1371.9,637.1 1324.9,645.7 1324.9,636.2 1371.9,627.5 				"/>
			</g>
			<g>
				<polygon class="st1" points="1601.8,618.3 1554.8,627 1554.7,617.4 1601.7,608.8 				"/>
				<polygon class="st51" points="1601.6,628 1554.6,636.7 1554.6,627.1 1601.6,618.5 				"/>
				<polygon class="st43" points="1601.7,637.5 1554.7,646.1 1554.6,636.5 1601.6,627.9 				"/>
			</g>
			<g>
				<polygon class="st1" points="1489.3,618.5 1442.3,627.1 1442.3,617.6 1489.3,608.9 				"/>
				<polygon class="st51" points="1489.2,628.2 1442.2,636.8 1442.1,627.3 1489.1,618.6 				"/>
				<polygon class="st43" points="1489.2,637.6 1442.2,646.3 1442.2,636.7 1489.2,628 				"/>
			</g>
		</g>
	</g>
</g>
</svg>
