<svg id="Layer_1" data-name="Layer 1" xmlns="http://www.w3.org/2000/svg" viewBox="0 0 151.48 186.67"><defs><style>.cls-1{fill:#211e21;}.cls-2{fill:#bab2ab;}.cls-3{fill:#ccc2b8;}.cls-4{fill:#dbd4cc;}.cls-5{fill:#efe9e1;}.cls-6{fill:#d39024;}</style></defs><title>bible</title><path class="cls-1" d="M289.89,218.46l-98.49,23.9s-5.25,1.92-4.62,6.11c2.74,18.17,24.46,141.41,33,144.65,13.4,5.07,100.93-21.94,100.93-21.94Z" transform="translate(-186.73 -218.46)"/><polygon class="cls-2" points="109 4.71 23.93 25.03 109.84 13.38 109 4.71"/><polygon class="cls-3" points="111.61 6.6 26.18 24.61 112.45 14.87 111.61 6.6"/><polygon class="cls-4" points="115.29 7.45 26.18 24.61 116.13 15.72 115.29 7.45"/><path class="cls-5" d="M304.63,229l-92,14.14c29.54-6.9,83.36-20,83.36-20l-6.11-3.42s-73.45,17.46-98.49,23.9c-.92.24-2.83,1.44-2.83,3.27,0,3,3.51,2.4,3.51,2.4l118.25-15.38Z" transform="translate(-186.73 -218.46)"/><path class="cls-1" d="M338.09,391.27c2.23-4-27.77-157.94-27.77-157.94l-122.89,18c12.5,69.21,27.14,150.82,32.44,153.45C224.75,407.23,335.9,395.15,338.09,391.27Z" transform="translate(-186.73 -218.46)"/><rect class="cls-6" x="260.67" y="276.17" width="9.04" height="79.83" transform="translate(-236.29 -169.15) rotate(-9.72)"/><rect class="cls-6" x="232.19" y="295.08" width="60.17" height="8" transform="translate(-233.46 -169.89) rotate(-9.72)"/></svg>