<svg xmlns="http://www.w3.org/2000/svg" viewBox="0 0 102.05 243.22"><defs><style>.cls-1{fill:#fcfcfc;}.cls-2{fill:#e11e2f;}</style></defs><title>candycane</title><g id="Layer_2" data-name="Layer 2"><g id="Layer_1-2" data-name="Layer 1"><polygon class="cls-1" points="42.8 146.36 46.42 161.55 24.31 158.48 21 144.6 42.8 146.36"/><path class="cls-2" d="M2.57,33.16a47.28,47.28,0,0,1,16-22.24L37.76,23.44A29,29,0,0,0,25,34.06Z"/><path class="cls-1" d="M35.35,2.2l.42-.11c2.56-.61,5-1.06,7.49-1.4l6.83,20.19a54.94,54.94,0,0,0-9.21,1.37,32.77,32.77,0,0,0-3.12,1.19L18.59,10.92A50.34,50.34,0,0,1,35.35,2.2Z"/><path class="cls-1" d="M74.41,31.87l20.8-5.42a69.22,69.22,0,0,1,5.21,14.49L79.28,42.35A40,40,0,0,0,74.41,31.87Z"/><path class="cls-2" d="M79.28,42.35l21.14-1.41a61.78,61.78,0,0,1,1.63,10c0,.12,0,.22,0,.34l-20.76.77A48.6,48.6,0,0,0,79.28,42.35Z"/><path class="cls-1" d="M81.28,52.08,102,51.31a10.39,10.39,0,0,1-20.75.89A.62.62,0,0,0,81.28,52.08Z"/><path class="cls-1" d="M63.08,22.59,64.56,1.32a43.07,43.07,0,0,1,21,11.5l-19,11.43A24,24,0,0,0,63.08,22.59Z"/><path class="cls-2" d="M85.53,12.82a51,51,0,0,1,9.68,13.63l-20.8,5.42a25.86,25.86,0,0,0-6-6.43,18.1,18.1,0,0,0-1.88-1.19Z"/><path class="cls-2" d="M64.56,1.32,63.08,22.59a31.27,31.27,0,0,0-13-1.71L43.26.69A57.84,57.84,0,0,1,64.56,1.32Z"/><path class="cls-1" d="M2.57,33.16l22.46.9C21.89,39,19.94,45.68,21.21,54.9L.09,52.47A50.76,50.76,0,0,1,2.57,33.16Z"/><path class="cls-2" d="M21.21,54.9c.21,1.53.51,3.13.91,4.8l4.53,19L5.11,78,1.89,64.53A69,69,0,0,1,.09,52.47Z"/><polygon class="cls-1" points="26.65 78.7 31.49 98.96 9.75 97.48 5.11 78.01 26.65 78.7"/><polygon class="cls-2" points="9.75 97.48 31.49 98.96 33.21 106.2 11.49 104.76 9.75 97.48"/><polygon class="cls-1" points="33.21 106.2 38.05 126.48 16.19 124.47 11.49 104.76 33.21 106.2"/><polygon class="cls-2" points="38.05 126.48 42.8 146.36 21 144.6 16.19 124.47 38.05 126.48"/><polygon class="cls-2" points="46.42 161.55 51.57 183.11 29.13 178.69 24.31 158.48 46.42 161.55"/><polygon class="cls-1" points="51.57 183.11 56.07 201.96 34 199.1 29.13 178.69 51.57 183.11"/><polygon class="cls-2" points="56.07 201.96 62.52 229.02 40.78 227.52 34 199.1 56.07 201.96"/><polygon class="cls-1" points="62.52 229.02 64.76 238.4 44.53 243.22 40.78 227.52 62.52 229.02"/></g></g></svg>