<?xml version="1.0" encoding="utf-8"?>
<!-- Generator: Adobe Illustrator 22.0.1, SVG Export Plug-In . SVG Version: 6.00 Build 0)  -->
<svg version="1.1" id="Layer_1" xmlns="http://www.w3.org/2000/svg" xmlns:xlink="http://www.w3.org/1999/xlink" x="0px" y="0px"
	 viewBox="0 0 145.3 586.9" style="enable-background:new 0 0 145.3 586.9;" xml:space="preserve">
<style type="text/css">
	.st0{fill:url(#SVGID_1_);stroke:#FFFFFF;stroke-miterlimit:10;}
	.st1{fill:url(#SVGID_2_);stroke:url(#SVGID_3_);stroke-width:2;stroke-miterlimit:10;}
	.st2{fill:#FFFFFF;}
	.st3{fill:#ED1C24;}
	.st4{fill:url(#SVGID_4_);}
</style>
<title>cokebottle</title>
<g>
	
		<linearGradient id="SVGID_1_" gradientUnits="userSpaceOnUse" x1="347.3828" y1="257.3346" x2="238.724" y2="194.6095" gradientTransform="matrix(1 0 0 1 -219.21 -148.42)">
		<stop  offset="0.37" style="stop-color:#FFFFFF"/>
		<stop  offset="0.45" style="stop-color:#FBFEFF"/>
		<stop  offset="0.53" style="stop-color:#EFFAFE"/>
		<stop  offset="0.61" style="stop-color:#DCF4FD"/>
		<stop  offset="0.69" style="stop-color:#C0EBFB"/>
		<stop  offset="0.77" style="stop-color:#9DE0F9"/>
		<stop  offset="0.84" style="stop-color:#72D2F6"/>
		<stop  offset="0.92" style="stop-color:#3EC2F3"/>
		<stop  offset="1" style="stop-color:#04AFEF"/>
		<stop  offset="1" style="stop-color:#00AEEF"/>
	</linearGradient>
	<path class="st0" d="M38.5,13.3c0,0,3.9,1.2,3,2.8S37.1,29,37.1,29s1.4,4.2,5.7,4.1l-3.4,44.5c0,0-8,52.1-10.9,54.8
		s75.7,11.1,86,0.2c0,0-18.7-82.3-12.6-98.2l4.9-3.3L101,15.5l3.9-1.4C104.8,14.1,72.6,8.7,38.5,13.3z"/>
	
		<linearGradient id="SVGID_2_" gradientUnits="userSpaceOnUse" x1="220.21" y1="508.6012" x2="363.416" y2="508.6012" gradientTransform="matrix(1 0 0 1 -219.21 -148.42)">
		<stop  offset="0.16" style="stop-color:#A97C50"/>
		<stop  offset="0.17" style="stop-color:#A77A4E"/>
		<stop  offset="0.25" style="stop-color:#91663E"/>
		<stop  offset="0.34" style="stop-color:#815732"/>
		<stop  offset="0.44" style="stop-color:#784F2B"/>
		<stop  offset="0.58" style="stop-color:#754C29"/>
		<stop  offset="1" style="stop-color:#3C2415"/>
	</linearGradient>
	
		<linearGradient id="SVGID_3_" gradientUnits="userSpaceOnUse" x1="402.2067" y1="321.5098" x2="188.791" y2="691.1577" gradientTransform="matrix(1 0 0 1 -219.21 -148.42)">
		<stop  offset="0.37" style="stop-color:#FFFFFF"/>
		<stop  offset="0.45" style="stop-color:#FBFEFF"/>
		<stop  offset="0.53" style="stop-color:#EFFAFE"/>
		<stop  offset="0.61" style="stop-color:#DCF4FD"/>
		<stop  offset="0.69" style="stop-color:#C0EBFB"/>
		<stop  offset="0.77" style="stop-color:#9DE0F9"/>
		<stop  offset="0.84" style="stop-color:#72D2F6"/>
		<stop  offset="0.92" style="stop-color:#3EC2F3"/>
		<stop  offset="1" style="stop-color:#04AFEF"/>
		<stop  offset="1" style="stop-color:#00AEEF"/>
	</linearGradient>
	<path class="st1" d="M27.4,137.2L7.5,225.9c0,0,0.4,7.3,2.5,7.3l-5.2,38.3c0,0-2.9,32.4-1.5,41s2.5,16.3,0.4,18.4
		c-2,2.1-2.7,6.3-2.7,6.3s3.3,9.2,7.1,9.8s10.4,128.7,6.2,132.6s-22.1,67.7-6.9,82s72.2,44,123.1,5.1c0,0,28.2-12,3.7-89.8l-3.2-8.8
		l12-127.3c0,0,3.2-8.8-3.7-14.3c0,0,10.6-45.3-6.5-93l2.3-3.7l-21.3-95.2l-86-0.2L27.4,137.2z"/>
	<path class="st2" d="M11.6,242.4c0,0,85.6,17,122.2-1.7c0,0,7.5,81.5,4.6,82.7s-45.3,24.9-130.1,1.7C8.3,325.1,4.6,244,11.6,242.4z
		"/>
	<path class="st3" d="M13.1,250.5c0,0,94.1,12,117.3,0.2c0,0,8.7,64.5,5,69s-95.6,15.7-124.8,1C10.6,320.7,8.1,250.8,13.1,250.5z"/>
	<path class="st2" d="M34.4,268.8c0,0-4.5,4.5-1,5.9s3.6-7.3,3-7.6c-0.6-0.3-4.1-3.6-8.4,0.8s-7.1,7.2-8,9.3s-4.1,7.9-4.4,11.5
		c-0.4,2.6-0.6,5.2-0.6,7.8c0.2,3.2,0.6,9.7,4.3,10.4s8.6,0.9,11.1,0s11.6-3.5,17.3,2.8c0,0,11.7-0.5,15.4,1.7c0,0-4.6-9.7-15.5-9.7
		S31,305,25.7,304.4s-5.9-5.9-5.9-5.9S18.5,288,22.5,282s7.3-12.1,8.6-12.4C31,269.4,33.2,266.7,34.4,268.8z"/>
	<path class="st2" d="M33.5,276.3c-3.8-1.2-8,7.5-8,7.5c-1.6,3.1-2.3,6.5-2.2,9.9c0.2,4.5,1.7,4.4,5.3,2.2s6.6-11.5,6.6-11.5
		S37.3,277.6,33.5,276.3z M27.8,292.5c-2.4,0,2.3-7.9,2.3-7.9l2.2,2.1C32.3,286.7,30.1,292.5,27.8,292.5z M33.6,283.7
		c-1.9,0.3-1.8-1.5-1.7-2.8c0-0.8,0.7-1.4,1.5-1.4c0.3,0,0.6,0.1,0.8,0.3C34.9,280.3,33.5,283.7,33.6,283.7L33.6,283.7z"/>
	<path class="st2" d="M63.8,289.3l-2.4,3.9c-7.4,7.4,6-14.4,5.7-15c-0.3-0.7-8.6,0.1-12.2,1.1s-9.3,17.3-14.6,15.1
		c-5.3-2.1,9.6-18,6.6-13.5c-3.1,4.5-0.5,4.4-0.5,4.4c5.1-2.3,2.6-7,0.2-7.9c-2.4-0.9-7.6,5.2-8.9,6.5c-0.6,0.8-1.7,1-2.6,0.5h-1.4
		l-1.4,2.2l3.9,0.8c-1.6,3-1.9,6.6-0.8,9.8c1.9,5.3,10.7-1.9,10.7-1.9c-2.1,5.8,7.4,3.3,7.4,3.3c2.6,5.8,11.8-6.7,12.1-8.8
		C65.9,287.8,63.8,289.3,63.8,289.3z M53.5,294.8c-2.5,1.3,0.7-11.4,6-13.1C59.5,281.6,55.9,293.4,53.5,294.8L53.5,294.8z"/>
	<polygon class="st2" points="69.4,278 67.1,283.7 71.9,283.9 74.9,277.9 	"/>
	<path class="st2" d="M82,299.5c0,0-4.6,2.8-5.1,4.5s-1.6-8.8,6.7-14.6s6.7,9,4.9,10.8c0,0-3.4,8-7.8,9.7s-12.1,4-13.9-4
		s9.2-25.3,9.2-25.3s11.1-14.4,19.5-13.2s0.4,15,0.4,15s-4.6,7.5-6.8,2.7c-2.2-4.8,6-14.4,6-14.4s-11.3,5.7-15.4,15.3
		s-7.8,17.6-5.9,19.2s4,3.1,6.4,1.6s8.3-9.8,7.5-12.5s-2.6-3.6-5.7,4.8"/>
	<path class="st2" d="M98.1,268.5c0,0,6.5-6.2,17.2,2c0,0,7.6,6.2,11.8-5.8c0,0,2.5,10.1-9.4,13.8c0,0-14.5-9.5-18.5-7.9
		C95.2,272.1,98.1,268.5,98.1,268.5z"/>
	<path class="st2" d="M100.3,287.8c-2.2-0.6-8.4,8.5-8.4,8.5c-4.9,10.2-3.2,15.7,1.8,14.9c5-0.8,7.6-10.3,9.7-15.4
		S102.5,288.4,100.3,287.8z M94,304l2.6-6.9l3.4,2.2C97.7,308.9,94,304,94,304L94,304z M101.1,296c-1.4,1.6-2-2-2-2s0.1-0.4,0.3-0.9
		c0.3-0.9,0.9-2,1.4-1.8C101.7,291.5,102.5,294.4,101.1,296L101.1,296z"/>
	<path class="st2" d="M126.6,285L126.6,285z"/>
	<path class="st2" d="M122.1,301.7c-1.3-0.2,4.2-15.8,4.5-16.7c-0.1,0.2-0.6,0.8-4.1,0.7c-4-0.2-7.6,7.7-11.8,15.9
		c-4.2,8.3-0.5-5-0.5-5c2.6-2.9,5-5.9,7.1-9.2c2.7-4.3,10-24.6,3.5-22.3c-6.5,2.3-15.9,31-15.9,31l-2.4,1.2l-1.5-0.1l-0.2,2.8
		c0,0,3.8-1.6,3.4-1.3s-0.8,5.6-0.8,5.6c-0.2,10.1,8,1.7,8,1.7c1.1,6.8,5.8-0.1,5.8-0.1c0.7,3.1,3,1.7,3,1.7
		c7.6-7,5.1-12.5,5.1-12.5S123.4,301.9,122.1,301.7z M121,267c0.4,0.8,1.1,4.7-0.3,5.6s-2.4-0.9-2.4-0.9S120.5,266.2,121,267
		L121,267z M116,277.5l1-1.6c0,0,2.1,0.1,1.9,2.8s-7.1,13.8-7.8,13.5S116,277.5,116,277.5L116,277.5z M116.8,302.2
		c-0.6-1.4,4.1-12.9,4.1-12.9s0.8-1.3,0.9,1.2C121.9,293,117.5,303.6,116.8,302.2L116.8,302.2z"/>
	
		<radialGradient id="SVGID_4_" cx="289.1301" cy="158.3803" r="26.0243" gradientTransform="matrix(1 0 0 1 -219.21 -148.42)" gradientUnits="userSpaceOnUse">
		<stop  offset="0" style="stop-color:#F4929E"/>
		<stop  offset="0.16" style="stop-color:#F28D99"/>
		<stop  offset="0.36" style="stop-color:#EB7E8A"/>
		<stop  offset="0.57" style="stop-color:#DF6572"/>
		<stop  offset="0.8" style="stop-color:#CF4351"/>
		<stop  offset="1" style="stop-color:#BE1E2D"/>
	</radialGradient>
	<path class="st4" d="M34.5,18.7c0,0,61.8-3,68.2,0.8s0.4-17.3-9.8-18.1s-32.8-3-49,0.8C43.9,2.1,37.1,1.7,34.5,18.7z"/>
</g>
</svg>
