<svg xmlns="http://www.w3.org/2000/svg" viewBox="0 0 277.23 286.47"><defs><style>.cls-1{fill:#fdc57f;}.cls-2{fill:#fbb26e;}.cls-3{fill:#5d2c0b;}</style></defs><title>cookie</title><g id="Layer_2" data-name="Layer 2"><g id="_1" data-name="1"><path class="cls-1" d="M41.41,52c.78-.87,1.56-1.73,2.34-2.57C43,50.27,42.19,51.13,41.41,52Z"/><path class="cls-1" d="M52.84,40c.87-.86,1.75-1.7,2.62-2.52C54.59,38.34,53.71,39.18,52.84,40Z"/><path class="cls-1" d="M124.2,281.83l-2.94-.66Z"/><path class="cls-1" d="M127.8,282.59q-1.56-.31-3.12-.66Q126.24,282.28,127.8,282.59Z"/><path class="cls-1" d="M44.4,48.72c.73-.79,1.47-1.58,2.21-2.36C45.87,47.14,45.13,47.93,44.4,48.72Z"/><path class="cls-1" d="M29.42,66.27c.89-1.13,1.78-2.23,2.67-3.33C31.2,64,30.31,65.14,29.42,66.27Z"/><path class="cls-1" d="M32.89,62l1.93-2.32Z"/><path class="cls-1" d="M38.33,55.5c.91-1,1.81-2.08,2.71-3.09C40.14,53.42,39.24,54.45,38.33,55.5Z"/><path class="cls-1" d="M35.67,58.62c.71-.84,1.41-1.67,2.12-2.49C37.08,57,36.38,57.78,35.67,58.62Z"/><path class="cls-1" d="M94.57,273.52l-2-.69Z"/><path class="cls-1" d="M78.89,267.8l-1.35-.53Z"/><path class="cls-1" d="M52.65,40.22C50.8,42,49,43.9,47.1,45.85,49,43.9,50.8,42,52.65,40.22Z"/><path class="cls-1" d="M86.88,270.82l-1.81-.66Z"/><path class="cls-1" d="M90.74,272.21l-1.93-.68Z"/><path class="cls-1" d="M83,269.37l-1.67-.63Z"/><path class="cls-1" d="M120.58,281l-2.79-.67Z"/><path class="cls-1" d="M113.27,279.18l-2.54-.68Z"/><path class="cls-1" d="M116.94,280.13l-2.66-.68Z"/><path class="cls-1" d="M109.57,278.17l-2.43-.69Z"/><path class="cls-1" d="M98.36,274.78l-2.14-.7Z"/><path class="cls-1" d="M105.86,277.1l-2.33-.69Z"/><path class="cls-1" d="M102.12,276l-2.23-.7Z"/><path class="cls-2" d="M125.38,30.11c-25.52,8.29,2.55,40.16,23,36.74a12.88,12.88,0,0,0,6.6-3.07l-.77.16C135.69,67,110.9,41.17,125.38,30.11Z"/><path class="cls-2" d="M37.59,132.76a11.85,11.85,0,0,1,4-6.88c-4.71,1.17-8.73,4.36-9.82,9.8C29.29,148,42.83,161.29,53.4,152.06,44.34,153.64,35.56,142.87,37.59,132.76Z"/><path class="cls-2" d="M102.91,233.08c.78-4.28,2.37-7.29,4.44-9.27-4.76.82-8.86,4.41-10.27,12.19-2,11.1,15.57,22,25.94,13.14C113,251.34,101.24,242.28,102.91,233.08Z"/><path class="cls-2" d="M145.4,140.3c-21.87,7.11-22.55,45,4.17,39.71a36.34,36.34,0,0,0,12.14-4.76,37.84,37.84,0,0,1-6.3,1.84C131.31,181.91,129.49,151.53,145.4,140.3Z"/><path class="cls-2" d="M220.73,244.17a10.5,10.5,0,0,0,3.38-2.24c-10.15,1.62-18.34-11.65-7.4-19.43a22.13,22.13,0,0,0-4.14,1.84C198.12,232.46,209.07,248.83,220.73,244.17Z"/><path class="cls-2" d="M241.58,129.38c-13.69,2.86-32.93-14.55-13.85-26.95.55-.35,1.09-.67,1.62-1a41.2,41.2,0,0,0-7.45,3.91C199.84,119.68,229,140.71,241.58,129.38Z"/><path class="cls-3" d="M154.24,63.94l.77-.16c20-4.39,10.49-45.24-21.77-37.17a21.3,21.3,0,0,0-7.86,3.5C110.9,41.17,135.69,67,154.24,63.94Z"/><path class="cls-3" d="M41.57,125.88a11.85,11.85,0,0,0-4,6.88c-2,10.11,6.75,20.88,15.81,19.3,3.9-.68,7.85-3.64,11-10C73.15,124.63,51.21,117.66,41.57,125.88Z"/><path class="cls-3" d="M107.35,223.81c-2.07,2-3.66,5-4.44,9.27-1.67,9.2,10.12,18.26,20.11,16.06a14,14,0,0,0,9.06-6.72C139.85,229.78,117.67,213.91,107.35,223.81Z"/><path class="cls-3" d="M157.74,136.26a22.33,22.33,0,0,0-12.34,4c-15.91,11.23-14.09,41.61,10,36.79a37.84,37.84,0,0,0,6.3-1.84C185.57,166,190.06,135.18,157.74,136.26Z"/><path class="cls-3" d="M224.11,241.93a11.61,11.61,0,0,0,2.46-.68c11.66-4.67,10.5-30.33-8.17-19.83a19.62,19.62,0,0,0-1.69,1.08C205.77,230.28,214,243.55,224.11,241.93Z"/><path class="cls-3" d="M241.58,129.38a12.41,12.41,0,0,0,8.32-5.95c10.25-17.09,1.58-35.27-20.55-22-.53.32-1.07.64-1.62,1C208.65,114.83,227.89,132.24,241.58,129.38Z"/><path class="cls-1" d="M42.25,68.6C18.92,112.93,1.42,164.26,23.59,185.26s29.16,26.83,40.83,47.82,64.16,44.33,117.82,38.5c39.28-4.27,61-20.43,77.23-43C233,281.18,184.73,294,128,282.63c60,12.05,110.55-3,135.87-63.54,32.66-78.16,5.83-187.82-86.33-213.48C133.05-6.79,95,.35,55.7,37.29c22-20.74,43.73-32.08,66.39-35.84C100.58,12.32,59.16,36.47,42.25,68.6Zm22.17,73.49c-3.17,6.33-7.12,9.29-11,10-10.57,9.23-24.11-4.07-21.65-16.38,1.09-5.44,5.11-8.63,9.82-9.8C51.21,117.66,73.15,124.63,64.42,142.09ZM221.9,105.35a41.2,41.2,0,0,1,7.45-3.91c22.13-13.28,30.8,4.9,20.55,22a12.41,12.41,0,0,1-8.32,5.95C229,140.71,199.84,119.68,221.9,105.35Zm-9.33,119a22.13,22.13,0,0,1,4.14-1.84,19.62,19.62,0,0,1,1.69-1.08c18.67-10.5,19.83,15.16,8.17,19.83a11.61,11.61,0,0,1-2.46.68,10.5,10.5,0,0,1-3.38,2.24C209.07,248.83,198.12,232.46,212.57,224.34Zm-80.49,18.08a14,14,0,0,1-9.06,6.72c-10.37,8.86-28-2-25.94-13.14,1.41-7.78,5.51-11.37,10.27-12.19C117.67,213.91,139.85,229.78,132.08,242.42Zm29.63-67.17A36.34,36.34,0,0,1,149.57,180c-26.72,5.34-26-32.6-4.17-39.71a22.33,22.33,0,0,1,12.34-4C190.06,135.18,185.57,166,161.71,175.25ZM155,63.78a12.88,12.88,0,0,1-6.6,3.07c-20.48,3.42-48.55-28.45-23-36.74a21.3,21.3,0,0,1,7.86-3.5C165.5,18.54,175,59.39,155,63.78Z"/><path class="cls-2" d="M73.75,265.75c1.27.52,2.53,1,3.79,1.52l1.35.53,2.42.94,1.67.63,2.09.79,1.81.66,1.93.71,1.93.68,1.79.62,2,.69,1.65.56,2.14.7,1.53.49,2.23.7,1.41.44,2.33.69,1.28.38,2.43.69,1.16.33,2.54.68,1,.27,2.66.68.85.21,2.79.67.68.16,2.94.66.48.1q1.56.35,3.12.66l.23,0c56.7,11.37,104.94-1.45,131.44-54-16.18,22.53-38,38.69-77.23,43-53.66,5.83-106.16-17.5-117.82-38.5s-18.67-26.83-40.83-47.82S18.92,112.93,42.25,68.6c16.91-32.13,58.33-56.28,79.84-67.15C99.43,5.21,77.75,16.55,55.7,37.29l-.24.23c-.87.82-1.75,1.66-2.62,2.52l-.19.18C50.8,42,49,43.9,47.1,45.85l-.49.51c-.74.78-1.48,1.57-2.21,2.36-.22.24-.44.47-.65.71-.78.84-1.56,1.7-2.34,2.57l-.37.41c-.9,1-1.8,2-2.71,3.09l-.54.63c-.71.82-1.41,1.65-2.12,2.49l-.85,1L32.89,62c-.26.33-.53.65-.8,1-.89,1.1-1.78,2.2-2.67,3.33C-19.57,128.1-9.08,231.92,73.75,265.75Z"/></g></g></svg>