<svg xmlns="http://www.w3.org/2000/svg" viewBox="0 0 620.4 1098.69"><defs><style>.cls-1{fill:#99c6ee;}.cls-2,.cls-3{fill:#78b0e9;}.cls-3{stroke:#78b0e9;stroke-miterlimit:10;}.cls-4{fill:#f2f2f2;}.cls-5{fill:#e6e7e8;}.cls-6{fill:#d6d6d6;}.cls-7{fill:#ffce2d;}</style></defs><title>eggnog</title><g id="Layer_2" data-name="Layer 2"><g id="Layer_1-2" data-name="Layer 1"><g id="_Group_" data-name=" Group "><polygon id="_Path_4" data-name=" Path 4" class="cls-1" points="620.4 308.28 309.84 308.28 310.2 137.45 620.4 308.28"/><polygon id="_Path_5" data-name=" Path 5" class="cls-1" points="0 308.28 310.38 308.28 310.02 137.45 0 308.28"/><path id="_Path_6" data-name=" Path 6" class="cls-2" d="M20.93,1098.69H599.47a20.93,20.93,0,0,0,20.93-20.93h0V308.26H0v769.5A20.93,20.93,0,0,0,20.93,1098.69Z"/><polygon id="_Path_7" data-name=" Path 7" class="cls-2" points="620.4 308.28 310.2 170.29 310.2 137.45 620.4 275.44 620.4 308.28"/><polygon id="_Path_9" data-name=" Path 9" class="cls-2" points="0 308.28 310.2 170.29 310.2 137.45 0 275.44 0 308.28"/><polygon id="_Path_10" data-name=" Path 10" class="cls-2" points="310.2 137.45 296.19 143.68 296.19 0 323.49 0 323.49 143.36 310.2 137.45"/><polygon id="_Path_12" data-name=" Path 12" class="cls-3" points="310.2 137.45 296.19 132.06 296.19 143.68 310.2 137.45"/><polygon id="_Path_13" data-name=" Path 13" class="cls-2" points="310.2 137.45 323.49 132.06 323.49 143.68 310.2 137.45"/><g id="_Group_2" data-name=" Group 2"><rect id="_Path_14" data-name=" Path 14" class="cls-1" x="52.89" y="474.61" width="514.62" height="561.73" rx="22.73"/></g><path id="_Path_15" data-name=" Path 15" class="cls-4" d="M411.71,182.61l124.06,55.12,16-35.95a12.89,12.89,0,0,0-6.55-17L444.71,140.11a12.89,12.89,0,0,0-17,6.55Z"/><path class="cls-5" d="M487.53,169.1a3.21,3.21,0,0,1,5.86,2.6l-13.62,30.65a3.21,3.21,0,0,1-5.86-2.6Z"/><path class="cls-5" d="M535.76,190.53a3.21,3.21,0,1,1,6,2.29c0,.1-.09.21-.14.31L528,223.78a3.21,3.21,0,1,1-6-2.29c0-.1.09-.21.14-.31Z"/><path class="cls-5" d="M512,180a3.21,3.21,0,0,1,5.86,2.6l-13.62,30.62a3.21,3.21,0,0,1-5.86-2.6Z"/><path class="cls-5" d="M425.71,178.32l13.62-30.65a3.21,3.21,0,0,1,5.86,2.6l-13.62,30.65a3.21,3.21,0,1,1-6-2.29C425.61,178.53,425.66,178.42,425.71,178.32Z"/><path class="cls-5" d="M463.71,158.52a3.21,3.21,0,1,1,6,2.29c0,.1-.09.21-.14.31L456,191.77a3.21,3.21,0,0,1-5.86-2.6Z"/><rect class="cls-6" x="472.6" y="140.5" width="4.01" height="135.76" transform="translate(91.45 557.46) rotate(-66.04)"/></g><path class="cls-7" d="M454.72,702.26c-37.77-38.08-98.05-62.7-153.38-62.7a168.65,168.65,0,0,0-24.24,1.67c-19.38,2.74-56.78,11.1-89.69,37-34,26.76-54.65,64.76-61.49,113-2.81,19.83-1.74,41.65,2.89,59.89,5.85,23.26,17.33,40.59,33.22,50a52.76,52.76,0,0,0,28,7.6c15.42,0,31.31-5.78,48.18-11.93,20.45-7.45,43.55-15.89,70.61-15.89a131.24,131.24,0,0,1,31.47,3.8c7.75,1.83,14.59,3.65,21.28,5.32,22.19,5.63,38.15,9.73,54.57,9.73h0a94.32,94.32,0,0,0,22.42-2.66c37.24-8.81,57.16-43.55,57.61-100.4C496.37,762.46,482,729.85,454.72,702.26ZM435.57,884.83a81.85,81.85,0,0,1-19.46,2.35h0c-14.82,0-30.17-3.87-51.46-9.35-6.38-1.59-13.6-3.49-21.43-5.32a148.45,148.45,0,0,0-34.43-4.18c-29.26,0-53.51,8.82-74.94,16.65-16.49,6-30.71,11.17-43.93,11.17a40.38,40.38,0,0,1-21.43-5.85c-27.75-16.57-35-62-30-97.29,6.31-44.84,25.47-80.11,56.78-104.81,30.55-24,65.52-31.92,83.61-34.43a165.37,165.37,0,0,1,22.42-1.52c52.21,0,108.91,23.18,144.41,59,24.93,25.08,37.92,54.65,37.69,85.43-.15,23.87-3.95,43.4-11.32,58.14C464.15,870.84,451.83,881,435.57,884.83ZM269,681.66a76.77,76.77,0,1,0,76.77,76.77A76.84,76.84,0,0,0,269,681.66Zm-32.91,37.93a50.78,50.78,0,0,0-18,38.84,6.31,6.31,0,1,1-12.62,0A63.43,63.43,0,0,1,228,709.94a6.28,6.28,0,0,1,8.89.76A6.36,6.36,0,0,1,236.13,719.59ZM269,707.51a49.74,49.74,0,0,0-19.68,4,6.69,6.69,0,0,1-2.44.45,6.32,6.32,0,0,1-2.43-12.16A62.92,62.92,0,0,1,269,694.81a6.35,6.35,0,0,1,0,12.7Z"/></g></g></svg>