<svg xmlns="http://www.w3.org/2000/svg" viewBox="0 0 346.23 44.91"><defs><style>.cls-1{fill:none;stroke:#6d6e71;stroke-miterlimit:10;stroke-width:0.7px;}.cls-2{fill:#fff;}.cls-3{fill:#0047ba;}.cls-4{fill:#f5333f;}</style></defs><title>flags</title><g id="Layer_2" data-name="Layer 2"><g id="Layer_1-2" data-name="Layer 1"><g id="house"><g id="flags"><path class="cls-1" d="M.27,1.81s30.7,36.6,69,26.3S109,2.41,109,2.41s42.1,28.5,68.1,27.1,47.7-29,47.7-29,42.5,38.8,71.8,30.9S346,1.81,346,1.81"/><polygon class="cls-2" points="8.77 15.41 55.77 24.01 55.77 14.41 8.77 5.81 8.77 15.41"/><polygon class="cls-3" points="8.97 25.11 55.97 33.71 55.97 24.11 8.97 15.51 8.97 25.11"/><polygon class="cls-4" points="8.87 34.51 55.87 43.11 55.97 33.51 8.97 24.91 8.87 34.51"/><polygon class="cls-2" points="241.17 15.91 288.17 24.51 288.17 14.91 241.17 6.31 241.17 15.91"/><polygon class="cls-3" points="241.27 25.61 288.27 34.21 288.37 24.61 241.37 16.01 241.27 25.61"/><polygon class="cls-4" points="241.27 35.01 288.27 43.61 288.27 34.11 241.27 25.41 241.27 35.01"/><polygon class="cls-2" points="125.17 16.41 172.17 25.01 172.27 15.51 125.27 6.81 125.17 16.41"/><polygon class="cls-3" points="125.37 26.11 172.37 34.71 172.37 25.21 125.37 16.51 125.37 26.11"/><polygon class="cls-4" points="125.37 35.51 172.37 44.21 172.37 34.61 125.37 25.91 125.37 35.51"/><polygon class="cls-2" points="111.27 16.61 64.27 25.21 64.27 15.61 111.27 7.01 111.27 16.61"/><polygon class="cls-3" points="111.17 26.31 64.17 34.91 64.07 25.31 111.07 16.71 111.17 26.31"/><polygon class="cls-4" points="111.17 35.71 64.17 44.31 64.17 34.81 111.17 26.11 111.17 35.71"/><polygon class="cls-2" points="341.07 16.91 294.07 25.61 293.97 16.01 340.97 7.41 341.07 16.91"/><polygon class="cls-3" points="340.87 26.61 293.87 35.31 293.87 25.71 340.87 17.11 340.87 26.61"/><polygon class="cls-4" points="340.97 36.11 293.97 44.71 293.87 35.11 340.87 26.51 340.97 36.11"/><polygon class="cls-2" points="228.57 17.11 181.57 25.71 181.57 16.21 228.57 7.51 228.57 17.11"/><polygon class="cls-3" points="228.47 26.81 181.47 35.41 181.37 25.91 228.37 17.21 228.47 26.81"/><polygon class="cls-4" points="228.47 36.21 181.47 44.91 181.47 35.31 228.47 26.61 228.47 36.21"/></g></g></g></g></svg>