<?xml version="1.0" encoding="utf-8"?>
<!-- Generator: Adobe Illustrator 23.0.2, SVG Export Plug-In . SVG Version: 6.00 Build 0)  -->
<svg version="1.1" id="Layer_1" xmlns="http://www.w3.org/2000/svg" xmlns:xlink="http://www.w3.org/1999/xlink" x="0px" y="0px"
	 viewBox="0 0 1568 1400" style="enable-background:new 0 0 1568 1400;" xml:space="preserve">
<style type="text/css">
	.st0{fill:#108770;}
	.st1{fill:#00AE8D;}
	.st2{fill:#FFFFFF;}
	.st3{fill:#FFBF3C;}
	.st4{fill:#E2A840;}
	.st5{fill:#7DCDFF;}
	.st6{fill:#F1F2F2;}
	.st7{fill:#E6E6E6;}
	.st8{fill:#F5333F;}
	.st9{fill:#6D6E71;}
	.st10{fill:#F5333F;stroke:#108770;stroke-width:5.5835;stroke-miterlimit:10;}
	.st11{fill:none;}
	.st12{font-family:'SnellRoundhand-Bold';}
	.st13{font-size:29.3868px;}
	.st14{fill:none;stroke:#593B0C;stroke-width:5.5835;stroke-miterlimit:10;}
	.st15{display:none;fill:none;stroke:#6D6E71;stroke-miterlimit:10;}
	.st16{display:none;}
	.st17{display:inline;}
	.st18{fill:#0047BA;}
</style>
<g>
	<polygon id="roof_1_" class="st0" points="1078,367.6 1056,396.1 1301.4,712.7 1344.5,712.7 	"/>
	<path id="roof" class="st1" d="M546.6,368.8l-22.1,28.5h21.3h402.3c13.3,0,24.2,10.8,24.2,24.2s-10.8,24.2-24.2,24.2H791.8H549.1
		c-13.3,0-24.2,10.8-24.2,24.2c0,13.3,10.8,24.2,24.2,24.2h141.6c13.3,0,24.2,10.8,24.2,24.2c0,13.3-10.8,24.2-24.2,24.2h-49.4
		c-13.3,0-24.2,10.8-24.2,24.2c0,13.3,10.8,24.2,24.2,24.2h49.4c13.3,0,24.2,10.8,24.2,24.2c0,13.3-10.8,24.2-24.2,24.2H481.8
		c-13.3,0-24.2,10.8-24.2,24.2c0,13.3,10.8,24.2,24.2,24.2h97.3c13.3,0,24.2,10.8,24.2,24.2c0,1.1-0.2,2-0.4,2.8h167h43.2
		l266.4-345.8H546.6V368.8z"/>
	<path id="snow2" class="st2" d="M579.1,686.9h-97.3c-13.3,0-24.2-10.8-24.2-24.2c0-13.3,10.8-24.2,24.2-24.2h208.8
		c13.3,0,24.2-10.8,24.2-24.2c0-13.3-10.8-24.2-24.2-24.2h-49.4c-13.3,0-24.2-10.8-24.2-24.2c0-13.3,10.8-24.2,24.2-24.2h49.4
		c13.3,0,24.2-10.8,24.2-24.2c0-13.3-10.8-24.2-24.2-24.2H549.1c-13.3,0-24.2-10.8-24.2-24.2s10.8-24.2,24.2-24.2h243h156.3
		c13.3,0,24.2-10.8,24.2-24.2s-10.8-24.2-24.2-24.2H545.9h-21.3L280.1,713.9h43.2h279.6c0.2-0.9,0.4-2,0.4-2.8
		C603.3,697.7,592.5,686.9,579.1,686.9z"/>
	<path id="snow" class="st2" d="M882.4,519c0,12.3-10,22.4-22.4,22.4h-56.2c-12.5,0-22.4-10-22.4-22.4l0,0c0-12.3,10-22.4,22.4-22.4
		H860C872.4,496.5,882.4,506.7,882.4,519L882.4,519z"/>
	<g id="front">
		<polygon class="st3" points="554.4,822.6 626.2,901.4 795.6,816.9 856.2,877 856.2,713.9 813.2,713.9 770,713.9 323.2,713.9 
			323.2,1151.6 479.9,1151.6 372.4,1044.9 		"/>
		<polygon class="st4" points="795.6,816.9 626.2,901.4 554.4,822.6 372.4,1044.9 479.9,1151.6 770,1151.6 856.2,1151.6 856.2,877 
					"/>
	</g>
	<g id="window2">
		<rect x="372.4" y="816.9" class="st2" width="175" height="228"/>
		<rect x="393.6" y="835.6" class="st5" width="57.5" height="84.7"/>
		<rect x="469" y="835.6" class="st5" width="57.3" height="84.7"/>
		<rect x="393.6" y="940.9" class="st5" width="57.5" height="84.7"/>
		<rect x="469" y="940.9" class="st5" width="57.3" height="84.7"/>
		<polygon class="st6" points="554.4,822.6 547.5,816.9 547.5,1044.9 554.4,1044.9 		"/>
		<rect x="393.6" y="835.6" class="st7" width="4.6" height="84.7"/>
		<rect x="469" y="835.6" class="st7" width="4.6" height="84.7"/>
		<rect x="393.6" y="940.9" class="st7" width="4.6" height="84.7"/>
		<rect x="469" y="940.9" class="st7" width="4.6" height="84.7"/>
	</g>
	<g id="door_1_">
		<rect id="doorframe" x="596.5" y="816.9" class="st2" width="199" height="334.7"/>
		<rect id="door" x="610.6" y="830.9" class="st8" width="170.9" height="320.7"/>
	</g>
	<rect id="glass" x="642.6" y="877.5" class="st5" width="106.7" height="106.7"/>
	<polygon id="side" class="st3" points="1170.5,816.9 1303,910.5 1303,713.9 1057.6,397.3 813.2,713.9 856.2,713.9 856.2,1151.6 
		1130.2,1151.6 988.7,1044.9 	"/>
	<polygon id="shadow1" class="st4" points="1303,910.5 1170.5,816.9 988.7,1044.9 1130.2,1151.6 1303,1151.6 	"/>
	<g id="window1">
		<rect x="995.7" y="816.9" class="st2" width="175" height="228"/>
		<rect x="1092.1" y="835.6" class="st5" width="57.3" height="84.7"/>
		<rect x="1016.8" y="835.6" class="st5" width="57.3" height="84.7"/>
		<rect x="1092.1" y="940.9" class="st5" width="57.3" height="84.7"/>
		<rect x="1016.8" y="940.9" class="st5" width="57.3" height="84.7"/>
		<polygon class="st6" points="988.7,822.6 995.7,816.9 995.7,1044.9 988.7,1044.9 		"/>
		<rect x="1144.7" y="835.6" class="st7" width="4.6" height="84.7"/>
		<rect x="1069.5" y="835.6" class="st7" width="4.6" height="84.7"/>
		<rect x="1144.7" y="940.9" class="st7" width="4.6" height="84.7"/>
		<rect x="1069.5" y="940.9" class="st7" width="4.6" height="84.7"/>
	</g>
	<g id="chimney">
		<rect x="919.9" y="264.3" class="st1" width="96.8" height="104.6"/>
		<rect x="1016.8" y="264.3" class="st1" width="28.6" height="104.6"/>
		<rect x="900.3" y="242.4" class="st9" width="164.7" height="21.9"/>
	</g>
	<g id="sign">
		<path class="st10" d="M1147.9,677.7l-183.5,39c-24.8,5.3-45.1-10.7-45.1-35.5V681c0-24.8,20.3-49.4,45.1-54.7l183.5-39
			c24.8-5.3,45.1,10.7,45.1,35.5v0.2C1193,647.8,1172.7,672.4,1147.9,677.7z"/>
		<polygon class="st11" points="1159.2,663.6 953.1,707.4 953.1,642.6 1159.2,598.8 		"/>
		<text transform="matrix(1 -0.2126 0 1 1012.8503 650.3394)" class="st2 st12 st13">Santa’s </text>
		<text transform="matrix(1 -0.2126 0 1 994.9496 689.4449)" class="st2 st12 st13">Workshop</text>
		<polyline class="st14" points="942.6,632.6 1060.5,524.6 1175.5,586.6 		"/>
	</g>
	<path class="st15" d="M323.2,713.9c0,0,43.5,52.4,97.8,37.7s56.3-36.8,56.3-36.8s59.6,40.9,96.5,38.9c36.8-2,67.7-41.5,67.7-41.5
		s60.3,55.6,101.8,44.2c41.5-11.4,70.1-42.4,70.1-42.4"/>
	<g class="st16">
		<g class="st17">
			<polygon class="st2" points="335.2,733.3 401.8,745.7 401.9,731.9 335.3,719.6 			"/>
			<polygon class="st18" points="335.4,747.2 402.1,759.6 402.1,745.8 335.5,733.5 			"/>
			<polygon class="st8" points="335.4,760.7 402,773 402.1,759.3 335.4,747 			"/>
		</g>
		<g class="st17">
			<polygon class="st2" points="664.6,734.1 731.2,746.4 731.3,732.7 664.6,720.3 			"/>
			<polygon class="st18" points="664.8,748 731.4,760.3 731.5,746.6 664.9,734.2 			"/>
			<polygon class="st8" points="664.7,761.5 731.4,773.8 731.4,760.1 664.8,747.7 			"/>
		</g>
		<g class="st17">
			<polygon class="st2" points="500.3,734.8 566.9,747.2 566.9,733.4 500.3,721.1 			"/>
			<polygon class="st18" points="500.5,748.7 567.1,761.1 567.2,747.3 500.5,735 			"/>
			<polygon class="st8" points="500.4,762.2 567.1,774.6 567.1,760.8 500.5,748.5 			"/>
		</g>
		<g class="st17">
			<polygon class="st2" points="480.5,735.1 413.9,747.4 413.8,733.7 480.5,721.3 			"/>
			<polygon class="st18" points="480.3,749 413.7,761.3 413.6,747.6 480.2,735.2 			"/>
			<polygon class="st8" points="480.3,762.5 413.7,774.8 413.7,761.1 480.3,748.7 			"/>
		</g>
		<g class="st17">
			<polygon class="st2" points="806.2,735.6 739.6,747.9 739.5,734.2 806.1,721.8 			"/>
			<polygon class="st18" points="806,749.5 739.4,761.8 739.3,748.1 805.9,735.7 			"/>
			<polygon class="st8" points="806,763 739.4,775.3 739.4,761.6 806,749.2 			"/>
		</g>
		<g class="st17">
			<polygon class="st2" points="646.8,735.8 580.2,748.2 580.1,734.5 646.8,722.1 			"/>
			<polygon class="st18" points="646.6,749.7 580,762.1 579.9,748.3 646.5,736 			"/>
			<polygon class="st8" points="646.7,763.2 580,775.6 580,761.8 646.6,749.5 			"/>
		</g>
	</g>
</g>
</svg>
