<svg xmlns="http://www.w3.org/2000/svg" viewBox="0 0 240.31 225.75"><defs><style>.cls-1{fill:#ea5a4f;stroke:#fb5058;stroke-miterlimit:10;}.cls-2{fill:#fafafa;}.cls-3{fill:#f6861f;}.cls-4{fill:#ec7823;}.cls-5{fill:#f9a024;}</style></defs><title>kfc</title><g id="Layer_2" data-name="Layer 2"><g id="Layer_1-2" data-name="Layer 1"><path class="cls-1" d="M232.83,30.6l.06-.61h6.92V20.1a2.54,2.54,0,0,0-2.54-2.53h0l-2.59-6.45S221.76.5,120.15.5,5.63,11.12,5.63,11.12L3,17.57H3A2.53,2.53,0,0,0,.5,20.1V30H7.42l.06.61h0L9.91,56.21l7.85,4.22-3.49-5.65L9.91,56.21l13.7,144.35s11.71,24.69,96.23,24.69,96.86-24.69,96.86-24.69L230.4,56.21"/><path class="cls-2" d="M208.48,190.48S179,209.1,120.15,209.1s-88.32-18.62-88.32-18.62c-2.12,0-3.88-1.9-4.06-4.38l-10-139.75c-.2-2.8,1.68-5.19,4.06-5.19,0,0,26.78,3.22,98.32,3.22s98.33-3.22,98.33-3.22c2.38,0,4.25,2.39,4.05,5.19l-10,139.75C212.36,188.58,210.59,190.48,208.48,190.48Z"/><path class="cls-3" d="M161.28,162.83c-3.14-2.07-1.87-8.08-3.09-8.36-8.52-6.61-17.7-14.65-25.86-20.52-1.55-1-5.15-2-9.62-2.44-1.71.84-3.72,1-5.42,1.79-4.08.2-3.34-4.67-4.56-5-15-.66-24.64-3.16-33.23-14.19-.71-1.46-4.32-2.37-5.86-3.42C69,107.66,64.28,104.54,63,99.8c-.43-5.17-1.27-11.06-.87-16.64a18.38,18.38,0,0,1,3.17-11.59,35,35,0,0,0-7.65,7.63c-2.78,14.38-.59,30.13,10.17,39,7.65,7,17.51,12.06,28.16,16.69a21.55,21.55,0,0,0,13.82.38c2.88-.54,3.83,3.49,7.09,3.7,1.7-.84,3.36-1.66,4.58-1.39l1.44,2.92c10.57.17,16.91,8.74,23.38,15.48,1.55,1,4.67,3.08,7.92,3.28-1.74,7.17.63,14.07,7,16.35s16-1.58,16.19-9.79c.18-2.48.35-5,.46-7.46C172,162.7,166.86,167.66,161.28,162.83Z"/><path class="cls-4" d="M177.86,158.23c-.09,2.44-.26,4.92-.45,7.46-.17,8.15-9.82,12-16.19,9.79s-8.72-9.2-7-16.35c-3.25-.2-6.37-2.24-7.92-3.28-6.45-6.7-12.79-15.27-23.38-15.48l-1.44-2.91c-1.18-.3-2.88.54-4.58,1.38-3.25-.21-4.21-4.24-7.09-3.7A21.67,21.67,0,0,1,96,134.76c-10.69-4.61-20.53-9.69-28.16-16.69-10.74-8.8-12.95-24.59-10.17-39A32.76,32.76,0,0,0,51,98c0,12.65,7.87,23.61,18.45,30.72s23.67,10.83,36.81,13.7c8.57,1.89,17.34,3.54,25.15,6.93s14.75,8.87,17.45,16.44c1.33,3.75,1.65,7.94,4,11.16,3.47,4.84,11.34,6.25,17.63,3.39s10.46-9.56,9.93-15.56a14.4,14.4,0,0,0-2.43-6.72A.2.2,0,0,1,177.86,158.23Z"/><path class="cls-5" d="M167,148.35c-14-9-29.86-17.72-35.15-32.87-3-8.64-2.21-18.62-6-26.91C121.72,79.85,113,74,103.64,70c-9-3.81-19.53-6.08-29.68-2.89a30.18,30.18,0,0,0-8.7,4.44,18.6,18.6,0,0,0-3.17,11.59c-.4,5.58.4,11.49.87,16.64,1.3,4.74,6,7.86,10.66,10.94,1.54,1,5.15,2,5.86,3.42,8.61,11.07,18.23,13.51,33.23,14.19,1.18.3.43,5.17,4.56,4.95,1.7-.84,3.71-.95,5.42-1.79,4.43.5,8,1.42,9.62,2.45,8.16,5.86,17.36,13.94,25.86,20.51,1.18.3,0,6.33,3.09,8.36,5.58,4.83,10.68-.13,16.54-4.58,0-.14,0-.26,0-.4C175.23,154.05,171.05,151,167,148.35ZM72.16,82.8c-.08,1.41-.21,2.94.56,4.08.39.59,1,1.05,1.43,1.64a9.34,9.34,0,0,1,.92,2.82c1.05,3.79,4.66,6.61,4.75,10.58a4.65,4.65,0,0,1-4.27-2,4.09,4.09,0,0,0-.86-1.23c-.81-.59-2.1-.39-3.06-.75a3.44,3.44,0,0,1-1.53-1.44,21.35,21.35,0,0,1-2.68-17.91,2.75,2.75,0,0,1,4,.1A6,6,0,0,1,72.16,82.8Zm43.37,30.38c-2.27-3.67-4.59-7.33-6.87-11-3-4.75-6-9.6-10.85-12.8C91.63,85.33,82.7,84,79.3,77.71c5.31-2.32,11.11-.72,16.23.86,4.71,1.49,9.78,3.3,11.93,7.33.79,1.51,1.11,3.31,1.91,4.83a32.75,32.75,0,0,0,3.08,4.15A21.09,21.09,0,0,1,115.53,113.18Zm8.35-4.75c-.26,2-.5,4-.76,6a1.78,1.78,0,0,1-.53,1.24c-.7-2.15-2.49-3.91-2.69-6.21a15.46,15.46,0,0,1,.15-2.72,24.68,24.68,0,0,0-3.75-16.3,1.78,1.78,0,0,1,1.88-.58,3.58,3.58,0,0,1,1.59,1,12.85,12.85,0,0,1,3.12,3.6,10.46,10.46,0,0,1,.84,3.06,32.91,32.91,0,0,1,.57,5.35A34.25,34.25,0,0,1,123.88,108.43Z"/><path class="cls-3" d="M112.39,95a31.81,31.81,0,0,1-3.08-4.15c-.82-1.55-1.12-3.31-1.92-4.83-2.12-4.09-7.21-5.84-11.92-7.33-5.1-1.64-10.92-3.18-16.23-.86,3.39,6.26,12.33,7.62,18.51,11.67,4.83,3.2,7.89,8.05,10.85,12.8,2.28,3.67,4.59,7.33,6.87,11A20.62,20.62,0,0,0,112.39,95Z"/><path class="cls-3" d="M122.91,94.42a12.65,12.65,0,0,0-3.11-3.6,4,4,0,0,0-1.59-1,1.77,1.77,0,0,0-1.88.58,24.61,24.61,0,0,1,3.74,16.3,11.5,11.5,0,0,0-.15,2.72c.24,2.28,2,4,2.69,6.21a1.78,1.78,0,0,0,.53-1.24c.26-2,.5-4,.76-6a42.65,42.65,0,0,0,.44-5.6,32.91,32.91,0,0,0-.57-5.35A11,11,0,0,0,122.91,94.42Z"/><path class="cls-3" d="M67.44,78.67a21,21,0,0,0,2.67,17.91A3.88,3.88,0,0,0,71.65,98c1,.4,2.25.16,3.06.75a4.09,4.09,0,0,1,.86,1.23,4.65,4.65,0,0,0,4.27,2c-.15-4-3.76-6.8-4.75-10.58a9.15,9.15,0,0,0-.92-2.82c-.4-.59-1-1-1.43-1.64a6.24,6.24,0,0,1-.56-4.08,5.66,5.66,0,0,0-.73-4A2.72,2.72,0,0,0,67.44,78.67Z"/></g></g></svg>