<svg xmlns="http://www.w3.org/2000/svg" viewBox="0 0 147.95 249.09"><defs><style>.cls-1{fill:#aae0f8;}.cls-2{fill:#9dcee3;}.cls-3{fill:#97d2f2;}.cls-4{fill:#fff;}</style></defs><title>milk</title><g id="Layer_2" data-name="Layer 2"><g id="Layer_1-2" data-name="Layer 1"><path class="cls-1" d="M24.86,232.81,17.4,66.52,14.41,0H11.76C5.27,0,0,4.83,0,10.78l10.36,229c0,5.12,4.53,9.27,10.11,9.27H48.71l4.87-16.28Z"/><path class="cls-2" d="M136.19,0h-2.65l-3,66.52-7.46,166.29H53.58l-4.87,16.28h78.77c5.59,0,10.11-4.15,10.11-9.27L148,10.78C148,4.83,142.69,0,136.19,0Z"/><polygon class="cls-3" points="130.55 66.52 133.54 0 14.41 0 17.4 66.52 130.55 66.52"/><polygon class="cls-4" points="17.4 66.52 24.86 232.81 123.09 232.81 130.55 66.52 17.4 66.52"/></g></g></svg>