<svg id="Layer_1" data-name="Layer 1" xmlns="http://www.w3.org/2000/svg" viewBox="0 0 269.04 261.06"><defs><style>.cls-1{fill:#5b3614;}.cls-2{fill:#997650;}.cls-3{fill:#b08a5d;}.cls-4{fill:#c3996b;}.cls-5{fill:#ed1c24;}.cls-6{fill:#8b5e3c;}.cls-7{fill:#331c0f;}</style></defs><title>reindeer</title><path class="cls-1" d="M296.19,284A36.91,36.91,0,0,1,282,279c-7.37-4.51-9.44-15-12.89-15.6s.69,7.49,2.48,12.31-13.92,15.07-20.67,10.71-8.9-9.48-10.07-6,3.52,8.26,3.52,8.26-14.68,4.82-20.41.92-9.71-6.89-12.54-5.67,8.2,7.88,11.37,12.09,20.34,4.06,30.88.23,18.41-10.63,28.4-7.34S297.36,289.83,296.19,284Z" transform="translate(-155.36 -229.56)"/><path class="cls-2" d="M328.31,271.24s1-7-7.93-11.56-12.89-6.19-12.89-6.19-8,9.48-3.86,16.37a76.63,76.63,0,0,0,5.66,8.64Z" transform="translate(-155.36 -229.56)"/><path class="cls-1" d="M303.91,283s-3.79-11-11.37-17.06-13.79-3.37-14.34-5.51,7.31-2.91,13-1.68,1.72-5.66-2.14-10-1.93-6.74,1.79-4.67,1.93-7.35-3.3-11.17-1.45-5.43,7,1.22,7.92,19.43,8.13,27.08,6.07,13.7,6.69,17.22C309.84,282.1,303.91,283,303.91,283Z" transform="translate(-155.36 -229.56)"/><path class="cls-3" d="M229,418.65s-19.37,9.18-22.61,8.64-6.62,41.85-16.89,46a58.25,58.25,0,0,0-18.75,12.24c-2.34,2.22-2.2,8.49,7,2.68s21.51-5.89,25.37-16.3,19.37-18.82,29.64-25.17S229,418.65,229,418.65Z" transform="translate(-155.36 -229.56)"/><path class="cls-4" d="M296.88,321.57a382.42,382.42,0,0,0,25.78,30.07c14.82,15.53-13.24,32.13-36.19,34s-52.8.38-52.8.38-23.09-9.56-26.33-15-4.61,2.14-4.61,2.14l8.13,13.31a8.09,8.09,0,0,1-7.1-1.61c-3.31-2.83,2.2,8.19,4.75,8.65s-5.23,1.68-5.23,1.68,0,7,7.92,5.13,13.1-2.91,13.93-1.61-6.69,23.64-4.9,34.35-14.68,11.86-22.74,9.71-36.6,32.13-40.26,31.83-2.41,9.94,7.65,4.66,26.27-20.19,36-20.73,24.82,6.2,33.36-1.91,21.72-21,21.72-21,3,14.61,38.32,17.06,45.63-27.54,45.63-27.54,13.1-24,26.81-21.95,35.09,16.14,36.19,20.42,6.69,4.52,3.24-6.5S395.45,403,383.38,396.46s-28-4.89-35.56,3.75c0,0,17.16-26.62,24.88-32s37.91-3.75,41.91-1.15,14.27.61,7.58-4.21-15.1-6.73-25.85-8.26-27.71,5.51-33.08,10.1S351.47,379,351.47,379s3.58-30.14-7.51-43.53S296.88,321.57,296.88,321.57Z" transform="translate(-155.36 -229.56)"/><path class="cls-4" d="M330.45,268.56s18.4-2.68,28,14.53,16.13,18.06,26.68,16.91,4.2,10.4,1.38,13.92-12.07,7.19-12.07,7.19,4.07,6.66,5.72,7-.06,5.21-5.17,3.52a20.69,20.69,0,0,0-15.16,1.07c-4.34,2.22-8.34,9.26-28.47,5.36s-38.25-14.84-36.94-24.25-12.13,3.06-21.16-3.67a43.56,43.56,0,0,1-12.62-14.46s15.86-15,29.57-8.49c0,0,4.07-2.6,6.14-3s5,2,5,2S308.87,267.72,330.45,268.56Z" transform="translate(-155.36 -229.56)"/><path class="cls-5" d="M381.87,299.69s-1.73,7.58,4.41,8,6.41-4.59,5.72-7.42S384.83,294.72,381.87,299.69Z" transform="translate(-155.36 -229.56)"/><path class="cls-6" d="M403.72,411.46c-1.52,1.3-3.24,3.52-4.76,7.5,2.28,1.91,3.72,3.51,3.93,4.51,1,4.28,6.69,4.51,3.24-6.5A24.38,24.38,0,0,0,403.72,411.46ZM414.61,367c4,2.53,14.27.61,7.58-4.2a35.13,35.13,0,0,0-7-3.83,14.06,14.06,0,0,0-6.21,6.58C411.78,366,413.78,366.48,414.61,367ZM165,479.24c.28-.16.62-.31,1-.54a10.78,10.78,0,0,1-7.31-4.74,2.38,2.38,0,0,1-1.31.53C153.65,474.34,154.89,484.52,165,479.24Z" transform="translate(-155.36 -229.56)"/><path class="cls-6" d="M171.78,484.52a5.78,5.78,0,0,0,3,3.21,8,8,0,0,1,1.72,1.22c-7.92,4.52-7.92-1.3-5.72-3.44C171,485.2,171.36,484.9,171.78,484.52Z" transform="translate(-155.36 -229.56)"/><path class="cls-2" d="M302.46,300.84c-1,.84-2.13,2.6-11.09-6.42-7-7-16.34-6.58-20.13-6.12a45.73,45.73,0,0,0-10.75,7.26A43.44,43.44,0,0,0,273.1,310c6.75,5.05,16.06-.61,19.71.08,2.9-2.14,6.69-4.75,8.14-4.67C303.36,305.66,303.5,300,302.46,300.84Z" transform="translate(-155.36 -229.56)"/><path class="cls-7" d="M380.63,328.46a.75.75,0,0,0-.49-.46c-1.44-.23-4.75-5.51-5.51-6.66-2.14,1-5.79,2.22-8.55.77-4.13-2.22,2.35,5.35,6.9,6.42A18.94,18.94,0,0,0,380.63,328.46Z" transform="translate(-155.36 -229.56)"/><ellipse class="cls-7" cx="334.31" cy="304.96" rx="2" ry="4.43" transform="translate(-186.1 -191.99) rotate(-6.15)"/></svg>