<svg id="Layer_1" data-name="Layer 1" xmlns="http://www.w3.org/2000/svg" viewBox="0 0 264.97 318.51"><defs><style>.cls-1{fill:#2b3990;}.cls-2{fill:#21409a;}.cls-3{fill:#fff;}.cls-4{opacity:0.15;}.cls-5{fill:#00a651;}.cls-6{fill:#262262;}.cls-7{fill:#fbb040;}.cls-8{opacity:0.07;}.cls-9{fill:#ed1c24;}</style></defs><title>santabag</title><path class="cls-1" d="M332.81,259.7s76.47-57.17,59.25-14C392.06,245.67,424.57,281,332.81,259.7Z" transform="translate(-184.04 -212.88)"/><path class="cls-1" d="M363.84,270.39s-30.23-90-40.77-44.81C323.07,225.58,276,236.45,363.84,270.39Z" transform="translate(-184.04 -212.88)"/><polygon class="cls-2" points="132.21 176.4 218.64 148.63 223.18 132.16 106.86 169.41 132.21 176.4"/><polygon class="cls-2" points="72.69 94.38 194.13 56.53 168.78 49.54 77.23 77.92 72.69 94.38"/><polygon class="cls-2" points="57.43 149.65 233.89 93.37 238.44 76.9 61.98 133.18 57.43 149.65"/><polygon class="cls-2" points="174.73 188.14 211.01 176.26 215.56 159.79 149.39 181.15 174.73 188.14"/><polygon class="cls-2" points="89.68 164.66 226.26 121 230.81 104.53 64.34 157.67 89.68 164.66"/><path class="cls-2" d="M278.49,241.9a3.38,3.38,0,0,0-4.44,2.61L272,252l21.13-6.07Z" transform="translate(-184.04 -212.88)"/><path class="cls-2" d="M386.41,408.65c1.95.54,3.58-1.18,4.24-3.55l1.32-4.79-16,5.46Z" transform="translate(-184.04 -212.88)"/><polygon class="cls-2" points="65.06 122.02 236.65 68.27 211.31 61.28 69.61 105.55 65.06 122.02"/><polygon class="cls-2" points="84.86 50.29 80.31 66.75 151.6 44.79 126.26 37.8 84.86 50.29"/><polygon class="cls-3" points="191.92 192.89 207.93 187.42 211.01 176.26 174.73 188.14 191.92 192.89"/><polygon class="cls-3" points="149.39 181.15 215.56 159.79 218.64 148.63 132.21 176.4 149.39 181.15"/><polygon class="cls-3" points="106.86 169.41 223.18 132.16 226.26 121 89.68 164.66 106.86 169.41"/><path class="cls-3" d="M241.12,363.82c-.66,2.37.29,4.81,2.24,5.35l5,1.38,166.47-53.13,3.08-11.17L241.47,362.53Z" transform="translate(-184.04 -212.88)"/><path class="cls-3" d="M246,346.06l176.46-56.27,1.1-4c.66-2.37-.09-3.85-2-4.39l-.85-.23L249.1,334.9Z" transform="translate(-184.04 -212.88)"/><polygon class="cls-3" points="69.61 105.55 211.31 61.28 194.13 56.53 72.69 94.38 69.61 105.55"/><polygon class="cls-3" points="77.23 77.92 168.78 49.54 151.6 44.79 80.31 66.75 77.23 77.92"/><polygon class="cls-3" points="109.07 33.06 87.94 39.12 84.86 50.29 126.26 37.8 109.07 33.06"/><rect class="cls-4" x="331.5" y="215.1" width="19.45" height="155.12" transform="translate(-215.72 330.83) rotate(-74.57)"/><path class="cls-5" d="M421.94,310.17a7,7,0,0,1-8.53,5.07l-144.8-40a7,7,0,0,1-4.72-8.74l6.27-22.69a7,7,0,0,1,8.53-5.08l144.8,40a7,7,0,0,1,4.72,8.74Z" transform="translate(-184.04 -212.88)"/><path class="cls-6" d="M359.33,253.2s8.41-9.38,20.92-11.8S368.48,252.64,359.33,253.2Z" transform="translate(-184.04 -212.88)"/><path class="cls-6" d="M361.47,256.49s11.49-4.58,23.6-1S369.8,260.22,361.47,256.49Z" transform="translate(-184.04 -212.88)"/><path class="cls-6" d="M347.37,249.9S345,237.54,335.47,229,339.81,244.73,347.37,249.9Z" transform="translate(-184.04 -212.88)"/><path class="cls-6" d="M343.85,251.62s-7.52-9.82-19.77-12.93S334.78,250.56,343.85,251.62Z" transform="translate(-184.04 -212.88)"/><path class="cls-6" d="M344.41,256.5s1.13-13.3,10-11.54.86,13.71-.64,14.11" transform="translate(-184.04 -212.88)"/><path class="cls-7" d="M267.32,291.91S265.61,248,286,254.38c2.22.69,1.35,7.05,2.82,8.85,3.14,3.83,17.44,4.67,17.33,9.62-.2,9-27.21,9.67-31.1,17.92" transform="translate(-184.04 -212.88)"/><path class="cls-7" d="M280.66,287.74s-22.44-45.34-36.5-29.27c-3,3.4,4.34,13.76,2.52,17.89-1.16,2.64-10,3.68-9.52,6.54,1.43,9.24,28.61,3.72,36.5,8.29" transform="translate(-184.04 -212.88)"/><rect class="cls-7" x="217.87" y="294.99" width="122.52" height="105.44" rx="7.03" ry="7.03" transform="translate(-231.82 -168.4) rotate(-8.4)"/><g class="cls-8"><rect class="cls-7" x="212.22" y="295.41" width="122.52" height="28.12" rx="7.03" ry="7.03" transform="translate(-226.29 -169.64) rotate(-8.4)"/></g><rect class="cls-7" x="284.93" y="280.53" width="14.06" height="33.14" transform="matrix(0.99, -0.15, 0.15, 0.99, -224.29, -167.07)"/><rect class="cls-7" x="256.11" y="284.78" width="14.06" height="33.14" transform="translate(-225.22 -171.23) rotate(-8.4)"/><path class="cls-7" d="M206.61,296.56l3.69,25c.3,2.05,1.54,3.58,3.53,3.29L209,292.4C207.05,292.69,206.3,294.52,206.61,296.56Z" transform="translate(-184.04 -212.88)"/><rect class="cls-7" x="227.3" y="289.03" width="14.06" height="33.14" transform="translate(-226.15 -175.39) rotate(-8.4)"/><rect class="cls-7" x="312.74" y="276.42" width="14.06" height="33.14" transform="translate(-223.39 -163.05) rotate(-8.4)"/><path class="cls-7" d="M338.46,302.68l-3.7-25a3.78,3.78,0,0,0-4.42-3l-6,.89,4.84,32.79,6-.89C337.23,307.17,338.76,304.73,338.46,302.68Z" transform="translate(-184.04 -212.88)"/><rect class="cls-7" x="298.83" y="278.47" width="14.06" height="33.14" transform="translate(-223.84 -165.06) rotate(-8.4)"/><rect class="cls-7" x="270.02" y="282.65" width="15.06" height="33.14" transform="translate(-224.75 -169.15) rotate(-8.4)"/><rect class="cls-7" x="241.21" y="286.91" width="15.06" height="33.14" transform="translate(-225.68 -173.31) rotate(-8.4)"/><rect class="cls-7" x="211.4" y="291.23" width="16.07" height="33.14" transform="translate(-226.63 -177.55) rotate(-8.4)"/><rect class="cls-9" x="206.71" y="288.49" width="129.55" height="8.03" transform="translate(-223.84 -170.11) rotate(-8.4)"/><rect class="cls-9" x="208.76" y="302.4" width="129.55" height="8.03" transform="translate(-225.85 -169.66) rotate(-8.4)"/><path class="cls-9" d="M209.92,335.05S206.5,356.52,207,359s-9.27,18.05-15.12,42.93-9.76,36.6-6.83,62,24.88,45.38,24.88,45.38,34.64,22.44,72.7,19.52c0,0,61,7.32,87.83-2.44,0,0,39.52-6.83,59.53-28.79s19-64.31,19-64.31-7.32-41.57-23.42-67.43l-6.35-30.74L210.9,332.12Z" transform="translate(-184.04 -212.88)"/><circle class="cls-3" cx="234.64" cy="122.45" r="6.82"/><circle class="cls-3" cx="230.54" cy="115" r="6.82"/><circle class="cls-3" cx="223.72" cy="123.03" r="6.82"/><circle class="cls-3" cx="214.45" cy="123.03" r="6.82"/><circle class="cls-3" cx="203.96" cy="123.03" r="6.82"/><circle class="cls-3" cx="195.18" cy="121.81" r="6.82"/><circle class="cls-3" cx="185.66" cy="120.35" r="6.82"/><circle class="cls-3" cx="174.68" cy="119.24" r="6.82"/><circle class="cls-3" cx="165.9" cy="119.24" r="6.82"/><circle class="cls-3" cx="146.63" cy="121.81" r="6.82"/><circle class="cls-3" cx="136.38" cy="121.81" r="6.82"/><circle class="cls-3" cx="128.09" cy="119.24" r="6.82"/><circle class="cls-3" cx="118.08" cy="116.22" r="6.82"/><circle class="cls-3" cx="111.27" cy="117.92" r="6.82"/><circle class="cls-3" cx="99.56" cy="119.24" r="6.82"/><circle class="cls-3" cx="90.77" cy="120.35" r="6.82"/><circle class="cls-3" cx="81.26" cy="121.81" r="6.82"/><circle class="cls-3" cx="70.28" cy="121.81" r="6.82"/><circle class="cls-3" cx="61.5" cy="121.81" r="6.82"/><circle class="cls-3" cx="51.98" cy="120.35" r="6.82"/><circle class="cls-3" cx="41.74" cy="119.24" r="6.82"/><circle class="cls-3" cx="29.54" cy="113.53" r="6.82"/><circle class="cls-3" cx="31.74" cy="117.92" r="6.82"/><circle class="cls-3" cx="32.47" cy="109.4" r="6.82"/><circle class="cls-3" cx="157.12" cy="119.24" r="6.82"/></svg>