<?xml version="1.0" encoding="utf-8"?>
<!-- Generator: Adobe Illustrator 22.0.1, SVG Export Plug-In . SVG Version: 6.00 Build 0)  -->
<svg version="1.1" id="Layer_1" xmlns="http://www.w3.org/2000/svg" xmlns:xlink="http://www.w3.org/1999/xlink" x="0px" y="0px"
	 viewBox="0 0 362.8 557.4" style="enable-background:new 0 0 362.8 557.4;" xml:space="preserve">
<style type="text/css">
	.st0{fill:#BE1E2D;}
	.st1{fill:#FFFFFF;}
	.st2{fill:#603913;}
	.st3{fill:#A7A9AC;}
	.st4{fill:#FFF2DC;stroke:#FFFFFF;stroke-miterlimit:10;}
	.st5{fill:#726658;}
	.st6{fill:#FFC0ED;}
	.st7{fill:#BCBEC0;}
	.st8{fill:#AF5A61;}
</style>
<title>santaclaus</title>
<g>
	<g id="body">
		<g id="leftarm">
			<path class="st0" d="M287.3,277.8l44.9,77.4c0,0-28.3,19.1-38.8,19.8c0,0,2.1-34-13.5-54.8C279.8,320.2,292.1,298.5,287.3,277.8z
				"/>
			<path class="st1" d="M293.3,374.9c0,0,27.9-10,39.8-21.1c0,0,9.4-1.7,11.8,15.2c0,0-3,16.5-50.1,27.7c-1.9,0.5-3.9,0.9-6,1.3
				C288.9,398.1,296.1,379.9,293.3,374.9z"/>
			<path class="st2" d="M295.2,398c0,0,1.6,29.1,14.2,30c0,0,7.6,2.8,11.3-8.6c0,0,17,29.9,34.8,10.9c17.8-19-2.5-38.6-2.5-38.6
				s-9.8-13.8-13.2-14.8c-3.4-1-45.3,17.4-45.3,17.4L295.2,398z"/>
		</g>
		<g id="rightarm">
			<path class="st0" d="M75.5,272.2l-44.9,77.4c0,0,28.3,19.2,38.9,19.8c0,0-2.1-34,13.5-54.8C83,314.6,70.6,293,75.5,272.2z"/>
			<path class="st1" d="M69.4,369.4c0,0-27.9-10-39.8-21.1c0,0-9.4-1.7-11.8,15.2c0,0,3,16.5,50.1,27.7c1.9,0.5,3.9,0.9,6,1.3
				C73.9,392.6,66.7,374.3,69.4,369.4z"/>
			<path class="st2" d="M67.5,392.5c0,0-1.6,29.1-14.2,30c0,0-7.6,2.8-11.3-8.6c0,0-17,29.9-34.8,10.9s2.4-38.6,2.4-38.6
				s9.8-13.8,13.2-14.8c3.4-1,45.2,17.4,45.2,17.4L67.5,392.5z"/>
		</g>
		<ellipse id="belly" class="st0" cx="181.1" cy="363.1" rx="112.4" ry="114.9"/>
		<path id="belt" class="st2" d="M71.4,382.8c0,0,74.7,32.7,110,26.3c0,0,73.6-1.9,110.5-26.3c0,0-2,18.2-4.4,20.7
			s-33,27.6-106.5,29.2S75.9,403.5,75.9,403.5S73.6,397.5,71.4,382.8z"/>
		<g id="rightleg">
			<path class="st0" d="M105.4,447.7l1,37.9c0,0,37.7,8.6,64.3,0l-0.1-16.3C170.6,469.3,127,466.6,105.4,447.7z"/>
			<path class="st1" d="M100,496.4c0,0-3.7-13,10.1-9.7s55.2,4.7,60.7-1c0,0,11.8-3.5,4.6,25.5c0,0-31.2,19.2-73.1,0.9
				C102.2,512,99.6,501.3,100,496.4z"/>
			<path class="st2" d="M103.5,519.4c0,0-18.8,12.9-4.8,29.2s54.1,4.6,54.1,4.6s28.8-6.5,20.3-37.3l-0.9-2.2c0,0-33.4,14.7-64.7,1.5
				L103.5,519.4z"/>
		</g>
		<g id="leftleg">
			<path class="st0" d="M257.2,445.2l-1,37.9c0,0-37.7,8.6-64.3,0l0.1-16.3C191.9,466.8,235.5,464.1,257.2,445.2z"/>
			<path class="st1" d="M262.5,493.9c0,0,3.7-13-10.1-9.7c-13.8,3.3-55.2,4.7-60.7-1c0,0-11.8-3.5-4.6,25.5c0,0,31.2,19.2,73.1,0.9
				C260.3,509.5,263,498.8,262.5,493.9z"/>
			<path class="st2" d="M259,516.9c0,0,18.8,12.8,4.9,29.2c-13.9,16.4-54.2,4.6-54.2,4.6s-28.8-6.6-20.3-37.3l0.9-2.2
				c0,0,33.4,14.7,64.7,1.5L259,516.9z"/>
		</g>
		<path class="st3" d="M194,402h-33.9c-6.4,0-11.5,5.2-11.6,11.5v14.1c0,6.4,5.2,11.5,11.6,11.6H194c6.4,0,11.5-5.2,11.5-11.6v-14.1
			C205.5,407.2,200.3,402,194,402z M196,423c0,6.4-5.2,11.5-11.6,11.5h-15.6c-6.4,0-11.5-5.2-11.6-11.5v-2.9
			c0-6.4,5.2-11.5,11.6-11.6h15.6c6.4,0,11.5,5.2,11.6,11.6L196,423z"/>
	</g>
	<g id="face">
		<path id="beard" class="st1" d="M68.5,167.3c0,0,0.3-30.8,24.7-47.6s106-42.2,177.1,0.6c0,0,27,16.9,23.4,49.6l-0.5,10.8
			c0,0,1.3,29.1-3.1,37.8c0,0-1.2,24.7-20.4,35.6c0,0,35.7,25.8,16.3,69.9c-19.4,44.1-59.4,22.3-59.4,22.3s-11.3,45.3-47.8,39.4
			S137,346.3,137,346.3s-35.2,20.1-59.1-18.2c-23.9-38.3,8.7-72.4,16.1-74c0,0-23.3-10.2-26-61.1l3.1-9.5L68.5,167.3z"/>
		<path class="st4" d="M93.7,183.9c0,0,83.5-84.9,176,1c0,0,6.9,32.3-7.6,47.1c0,0-10.5-31.4-58.5-20.9c0,0-17.1,44.9-39.4,2.3
			c0,0-35-16.1-62.6,16.8C101.6,230.3,84.8,215.8,93.7,183.9z"/>
		<path class="st5" d="M144.5,176.8c6.1,0,11.2,2.6,13.3,6.2c0.6-1,0.9-2.2,0.9-3.4c0-5.3-6.4-9.6-14.2-9.6s-14.2,4.3-14.2,9.6
			c0,1.2,0.3,2.4,0.9,3.4C133.2,179.4,138.4,176.8,144.5,176.8z"/>
		<path class="st5" d="M213.5,176.2c6.1,0,11.2,2.6,13.3,6.2c0.6-1,0.9-2.2,0.9-3.4c0-5.3-6.4-9.6-14.2-9.6s-14.2,4.3-14.2,9.6
			c0,1.2,0.3,2.4,0.9,3.4C202.2,178.8,207.4,176.2,213.5,176.2z"/>
		<path class="st6" d="M213.6,209.8c0,0,4.1-21.6,26-13.8s15.3,24.9,15.3,24.9S236.5,205.8,213.6,209.8z"/>
		<path class="st6" d="M149.7,209.6c0,0-4.9-21.4-26.6-12.8S109,222.2,109,222.2S126.7,206.5,149.7,209.6z"/>
		<path class="st6" d="M183.9,210.9c-6.4,0-12.5-3.3-15.9-8.8c-2,3-3,6.5-3,10.1c0.2,10.4,8.8,18.6,19.2,18.3
			c10-0.2,18.1-8.3,18.3-18.3c0-3.5-1-6.9-2.9-9.9C196.3,207.7,190.3,210.9,183.9,210.9z"/>
		<path class="st7" d="M184,251.1c-5.2,0.1-10-2.9-12.1-7.7c-0.5,1.2-0.8,2.6-0.8,3.9c0,6.4,5.8,11.6,12.9,11.6s12.9-5.2,12.9-11.6
			c0-1.3-0.3-2.7-0.8-3.9C194,248.2,189.2,251.2,184,251.1z"/>
	</g>
	<g id="hat">
		<path id="hat-2" class="st0" d="M268.2,36.5c0,0-64.1-37.4-81.4-36.5S167-1.8,148.4,23.4s-55.2,96.3-55.2,96.3
			s82.6-51.5,177.1,0.6l-26.9-48.1L297.9,55L268.2,36.5z"/>
		<path id="hatshadow" class="st8" d="M202.2,11.8c0,0,37.9,42.4,39.8,60.4C241.9,72.2,249.8,51.6,202.2,11.8z"/>
		<circle id="pompom" class="st1" cx="300.2" cy="52.4" r="25.1"/>
	</g>
</g>
</svg>
