<?xml version="1.0" encoding="utf-8"?>
<!-- Generator: Adobe Illustrator 23.0.2, SVG Export Plug-In . SVG Version: 6.00 Build 0)  -->
<svg version="1.1" id="Layer_1" xmlns="http://www.w3.org/2000/svg" xmlns:xlink="http://www.w3.org/1999/xlink" x="0px" y="0px"
	 viewBox="0 0 672.2 525.5" style="enable-background:new 0 0 672.2 525.5;" xml:space="preserve">
<style type="text/css">
	.st0{fill:#58270E;}
	.st1{fill:#FFFFFF;}
	.st2{fill:#D0E1EA;}
	.st3{fill:#F7941D;}
	.st4{fill:#ED1C24;}
	.st5{fill:#7ED2F6;}
	.st6{fill:#006838;}
	.st7{fill:#FFF7A5;}
	.st8{fill:#333333;}
	.st9{fill:#231F20;}
	.st10{fill:url(#SVGID_1_);stroke:#FFFFFF;stroke-miterlimit:10;}
	.st11{fill:url(#SVGID_2_);stroke:url(#SVGID_3_);stroke-width:2;stroke-miterlimit:10;}
	.st12{fill:url(#SVGID_4_);}
	.st13{fill:url(#SVGID_5_);stroke:#FFFFFF;stroke-miterlimit:10;}
	.st14{fill:url(#SVGID_6_);stroke:url(#SVGID_7_);stroke-width:2;stroke-miterlimit:10;}
	.st15{fill:url(#SVGID_8_);}
</style>
<title>snowman</title>
<g>
	<path class="st0" d="M195.2,254.6c-9.6-11.8-8.1-19.8-11.8-25.7s5.1-19.8,5.9-27.9l-4.4-5.1c0,0,1.5,8.8-2.9,13.2
		c-4.4,4.4-4.4,13.2-4.4,13.2s-8.1-12.5-8.8-18.4s-15.5-14.7-15.5-14.7l-3.7,6.6c0,0,11,3.7,11.8,12.5s8.1,16.9,8.1,16.9
		s-12.5-7.4-20.6-7.4l-0.7,5.9c0,0,14,1.5,19.1,8.8c5.1,7.3,21.3,25,22,36c0.4,6.8,9.5,17.5,16.5,24.7c3-4.1,6.3-8.1,9.7-11.9
		C209.7,273.5,201.1,261.8,195.2,254.6z"/>
	<path class="st1" d="M437.9,470.1c-2.8,3.5-5.7,6.8-8.8,10.1C432.3,477,435.2,473.6,437.9,470.1z"/>
	<path class="st1" d="M316.9,525.3c2.2,0.1,4.4,0.2,6.7,0.2c38.7,0,75.9-15.3,103.2-42.8c-27.3,27.4-64.5,42.8-103.2,42.8
		C321.3,525.5,319.1,525.4,316.9,525.3z"/>
	<path class="st1" d="M409.7,386.4c0-31.4-10.1-62-28.9-87.2c0.3,1,0.7,1.9,1,2.9c0.5,1.2,1,2.5,1.5,3.7l0,0
		c1.6,3.6,3.5,7.1,5.2,10.1c3,5.2,5.5,8.8,5.5,8.8c-12.7-3.9-36.2,10.8-36.2,10.8c-2.1-4.2-3.8-8.4-5.3-12.8
		c-0.1-0.1-0.1-0.3-0.2-0.5c-0.5-1.6-1-3.2-1.5-4.9l-0.1-0.2c-0.2-0.9-0.5-1.8-0.7-2.7l0,0c-1.7-6.3-2.4-12.9-2.1-19.5v-0.1
		c0.1-1,0.2-2.1,0.4-3.1c0-0.1,0-0.1,0-0.2c0.2-1,0.4-1.9,0.6-2.8l0.1-0.5c0.3-0.9,0.6-1.8,0.9-2.7l0,0c0.2-0.5,0.4-1,0.5-1.6
		c0.1-0.2,0.1-0.4,0.2-0.6c0.1-0.2,0.1-0.5,0.2-0.8c0.1-0.7,0.2-1.3,0.3-2c0.2-2.4,0-4.7-0.6-7c-6.2,1.2-12.4,1.9-18.6,2.2h-0.3
		c-1.1,0-2.3,0.1-3.4,0.1h-4.6c-1.3,0-2.6-0.1-4-0.1c-14.3-0.7-28.6-2.8-42.5-6.2l-0.7-0.2c-0.7-0.2-1.4-0.4-2.1-0.6l-0.6-0.2
		l-2.2-0.6l-0.4-0.1c-0.8-0.2-1.6-0.5-2.3-0.7h-0.2l-2.4-0.8h-0.1c-9.7-3.4-16.6-7.3-19-11c-11.7,7.2-22.4,16.1-31.7,26.2
		c-3.4,3.8-6.7,7.8-9.7,11.9c-47.6,64.9-33.5,156.3,31.5,203.9c23.1,16.9,50.7,26.7,79.4,28c-2.2-0.1-4.5-0.3-6.7-0.5
		C369.5,505,409.7,449.2,409.7,386.4z M253.2,426.5c-4.9,0-8.8-3.9-8.8-8.8s3.9-8.8,8.8-8.8c4.9,0,8.8,3.9,8.8,8.8
		C262.1,422.6,258.1,426.5,253.2,426.5C253.3,426.5,253.3,426.5,253.2,426.5z M255.5,364.8c-4.9,0-8.8-3.9-8.8-8.8s3.9-8.8,8.8-8.8
		s8.8,3.9,8.8,8.8l0,0C264.3,360.9,260.3,364.8,255.5,364.8z M270.9,308.2c-4.9,0-8.8-3.9-8.8-8.8s3.9-8.8,8.8-8.8
		c4.9,0,8.8,3.9,8.8,8.8C279.7,304.3,275.8,308.2,270.9,308.2L270.9,308.2z"/>
	<path class="st2" d="M430.3,326.6c-10.2,3.7-16.9-8.8-10.3-14.1c0,0,8.4-11.6,17.6-24c-0.5-0.6-1-1.2-1.5-1.8
		c-2.2-2.7-4.6-5.3-7-7.9c-1.6-1.7-3.3-3.3-5-5c-2.5-2.4-5.1-4.8-7.9-7c-3.6-3-7.3-5.8-11.2-8.4h-0.1c0,0.1,0,0.3,0,0.4s0,0.5,0,0.7
		v0.4c0,0.3,0,0.7-0.1,1l0,0c0,0.3-0.1,0.7-0.1,1s0,0.5,0,0.7v0.3c0,0.3,0.1,0.6,0.1,0.9c0,0,0,0,0,0.1c0.1,0.3,0.1,0.7,0.2,1
		c1,3.3,2.6,6.3,4.8,8.9l0,0c0.7,0.8,1.4,1.7,2.1,2.5l0,0c2.1,2.3,4.3,4.6,6.6,6.6l0,0c3.7,3.3,6.8,5.6,6.8,5.6
		c-13.3-0.5-34.7,15.1-34.7,15.1c-2.6-2.7-5-5.6-7.2-8.7l-0.2-0.3c-0.8-1.1-1.5-2.2-2.3-3.4c0,0,0-0.1-0.1-0.1
		c-0.4-0.6-0.8-1.2-1.1-1.9l0,0c-0.4-0.6-0.7-1.3-1-2c0,0.3,0,0.7,0,1v0.1c0,0.4,0,0.9,0,1.3c0.2,3.3,0.9,6.5,2,9.6
		c48.2,64.7,34.8,156.1-29.9,204.3c-12.4,9.2-26.2,16.4-40.9,21.3c2.2,0.2,4.4,0.4,6.7,0.5h0.2c2.2,0.1,4.4,0.2,6.7,0.2
		c38.7,0,75.9-15.3,103.2-42.8c0.8-0.8,1.6-1.7,2.4-2.5c3.1-3.2,6-6.6,8.8-10.1c4.5-5.7,8.6-11.7,12.2-18c1.8-3.1,3.4-6.2,4.9-9.4
		c19.2-40,19.2-86.6,0-126.6c-1.5-3.2-3.2-6.3-4.9-9.4c-0.1-0.2-0.3-0.4-0.4-0.6C443.7,313.4,437.2,320.2,430.3,326.6z"/>
	<path class="st1" d="M279.6,228.8l2.3,0.9l0.4,0.2l2.8,1.1l0.4,0.1c1,0.4,2.1,0.8,3.1,1.1l0,0c8,2.8,16.3,4.6,24.7,5.2
		c0.9,0.1,1.8,0.1,2.7,0.1h0.1c0.9,0,1.8,0,2.7,0.1h0.7c0.7,0,1.4,0,2.1,0c0.9,0,1.9-0.1,2.8-0.1h0.2h0.4l2.4-0.2
		c0.9-0.1,1.8-0.2,2.6-0.2l0,0l2.3-0.2c3.1-5,9.4-5.7,15.8-5.3c28.9-23.9,37.7-64.4,21.3-98.1c-35.1-3.1-75.6-8.9-104.3-17.9
		c-12.2,12.7-20,29-22.1,46.5c21.4-4.8,47-8,53.3-3.8c8.8,5.9,11.8,22.5,1,25.5c-6.1,1.7-32.5,0.5-54.3-2.1
		c1.9,16.1,8.6,31.2,19.2,43.5c0.2-0.1,0.5-0.2,0.7-0.3C266.5,223.5,272,225.8,279.6,228.8z M275.6,150.3c-4.9,0-8.8-3.9-8.8-8.8
		s3.9-8.8,8.8-8.8s8.8,3.9,8.8,8.8l0,0C284.4,146.3,280.4,150.3,275.6,150.3L275.6,150.3L275.6,150.3z M326.5,133.6
		c5.4,0,9.8,4.4,9.8,9.8c0,5.4-4.4,9.8-9.8,9.8c-5.4,0-9.8-4.4-9.8-9.8l0,0C316.7,138,321.1,133.6,326.5,133.6L326.5,133.6z
		 M297.1,208.1c13.7,1,42.1-20.6,42.1-20.6s-17.6,29.4-42.1,29.4s-33.3-21.5-33.3-21.5C273.5,202.7,285,207.1,297.1,208.1
		L297.1,208.1z"/>
	<path class="st1" d="M383.4,226.8c0.9-0.9,1.7-1.9,2.5-2.8C385.1,224.9,384.3,225.9,383.4,226.8z"/>
	<path class="st1" d="M392.3,215.2c-1.8,2.8-3.7,5.5-5.8,8C388.6,220.6,390.6,218,392.3,215.2z"/>
	<path class="st2" d="M369.2,133.4c16.4,33.7,7.6,74.2-21.3,98.1c1.5,0.1,3,0.2,4.5,0.4c4.1-4.1,12.5-5,19.6-5.7
		c3.9-1.1,6.9-1.5,9.4-0.5c0.7,0.3,1.4,0.7,2.1,1.1c0.9-0.9,1.7-1.9,2.5-2.8l0.6-0.8c2.1-2.5,4-5.2,5.8-8
		c15.2-24.1,16.7-54.4,3.9-79.8C387.8,134.9,378.7,134.2,369.2,133.4z"/>
	<path class="st3" d="M297.1,183.6c10.8-2.9,7.8-19.6-1-25.5c-6.3-4.2-31.9-1-53.3,3.8c-17.1,3.9-31.4,8.8-31,11.8
		c0.4,3,14.4,5.8,30.9,7.7C264.6,184.1,291,185.3,297.1,183.6z"/>
	<path class="st0" d="M275.5,132.7c-4.9,0-8.8,3.9-8.8,8.8s3.9,8.8,8.8,8.8s8.8-3.9,8.8-8.8l0,0
		C284.3,136.6,280.4,132.7,275.5,132.7z"/>
	<path class="st0" d="M326.5,153.2c5.4,0,9.8-4.4,9.8-9.8c0-5.4-4.4-9.8-9.8-9.8c-5.4,0-9.8,4.4-9.8,9.8l0,0
		C316.7,148.8,321.1,153.2,326.5,153.2L326.5,153.2z"/>
	<path class="st0" d="M297.1,216.9c24.5,0,42.1-29.4,42.1-29.4s-28.4,21.5-42.1,20.6c-12.1-1-23.6-5.4-33.3-12.7
		C263.8,195.3,272.6,216.9,297.1,216.9z"/>
	<path class="st4" d="M314.1,275.3c-3.8-12.7-2.3-28.6-0.8-37.9l0,0c-8.4-0.6-16.7-2.4-24.7-5.2c-5.9,6.9-8.3,24.3-9.4,37.8
		l-2.1-0.5c13.9,3.5,28.2,5.6,42.5,6.2c1.3,0.1,2.6,0.1,4,0.1c-1.3,0-2.6-0.1-4-0.1C317.7,275.6,315.9,275.5,314.1,275.3z"/>
	<path class="st5" d="M273.7,268.5l-2.2-0.6L273.7,268.5z"/>
	<path class="st5" d="M276.4,269.2c-0.7-0.2-1.4-0.4-2.1-0.6C275,268.9,275.7,269.1,276.4,269.2z"/>
	<path class="st5" d="M331.7,275.7c-1.1,0-2.3,0.1-3.4,0.1C329.4,275.8,330.5,275.7,331.7,275.7z"/>
	<path class="st5" d="M327.6,275.8L327.6,275.8z"/>
	<path class="st5" d="M268.6,267c-0.8-0.3-1.6-0.5-2.4-0.8L268.6,267z"/>
	<path class="st5" d="M271,267.8c-0.8-0.2-1.6-0.5-2.3-0.7C269.5,267.3,270.3,267.5,271,267.8z"/>
	<path class="st4" d="M266.2,266.2c-2.4-0.8-4.5-1.7-6.5-2.5c1.6-13.7,11.7-29,16.8-36l3.1,1.2c-7.6-3-13.1-5.3-16.7-4.1
		c-0.2,0.1-0.5,0.2-0.7,0.3c-8.5,3.5-15.9,17.6-15.9,27.1c0,1.1,0.4,2.1,1,3C249.6,258.9,256.4,262.8,266.2,266.2z"/>
	<path class="st5" d="M281.8,229.7l0.4,0.2L281.8,229.7z"/>
	<path class="st5" d="M285.1,231l0.4,0.1L285.1,231z"/>
	<path class="st5" d="M324.9,237.4l2.4-0.2L324.9,237.4z"/>
	<path class="st5" d="M319.4,237.6L319.4,237.6z"/>
	<path class="st5" d="M316,237.6L316,237.6z"/>
	<path class="st5" d="M321.6,237.6c0.9,0,1.9,0,2.8-0.1C323.4,237.5,322.5,237.6,321.6,237.6z"/>
	<path class="st4" d="M381.3,225.7c-2.5-1-5.5-0.6-9.4,0.5l0,0l0.3-0.1v0.1l3.6-0.4c2.1-0.2,5,1,8.2,3.2
		c-10.5,3.4-19.5,10.3-25.4,15.6c3.8,2.3,7.5,5,11,7.8c7.8-6.5,16.9-11.2,24.4-14.2l0,0c-0.8-0.9-1.6-1.8-2.4-2.7
		c0.1,0.1,0.2,0.3,0.4,0.4c-2-3.7-5-6.9-8.5-9.2l0,0C382.8,226.4,382.1,226,381.3,225.7z M391.6,235.6c-0.4-0.4-0.8-0.9-1.2-1.2
		C390.7,234.7,391.1,235.1,391.6,235.6z M387.8,232c-0.4-0.4-0.8-0.7-1.2-1C387,231.3,387.4,231.6,387.8,232L387.8,232z
		 M390.3,234.3c-0.4-0.4-0.8-0.8-1.2-1.2C389.5,233.5,389.9,233.9,390.3,234.3z M389,233.1c-0.4-0.4-0.8-0.8-1.2-1.1
		C388.2,232.3,388.6,232.7,389,233.1z M384,229c0.4,0.3,0.8,0.6,1.2,0.9C384.9,229.6,384.5,229.3,384,229L384,229z M385.3,229.9
		c0.4,0.3,0.8,0.6,1.2,1C386.1,230.6,385.7,230.2,385.3,229.9L385.3,229.9z"/>
	<path class="st6" d="M288.6,232.2L288.6,232.2c-1.1-0.4-2.1-0.7-3.1-1.1l-0.4-0.1l-2.8-1.1l-0.4-0.2l-2.3-0.9l-3.1-1.2
		c-5.1,7-15.3,22.3-16.8,36c2,0.9,4.2,1.7,6.5,2.5h0.1c0.8,0.3,1.6,0.5,2.4,0.8h0.2c0.8,0.2,1.5,0.5,2.3,0.7l0.4,0.1l2.2,0.6
		l0.6,0.2c0.7,0.2,1.4,0.4,2.1,0.6l0.7,0.2l2.1,0.5C280.3,256.5,282.7,239.1,288.6,232.2z"/>
	<path class="st6" d="M329.9,237L329.9,237c-0.9,0.1-1.7,0.2-2.6,0.2l-2.4,0.2h-0.4h-0.2c-0.9,0.1-1.9,0.1-2.8,0.1
		c-0.7,0-1.4,0-2.1,0h-0.7c-0.9,0-1.8,0-2.7-0.1h-0.1c-0.9,0-1.8-0.1-2.7-0.1l0,0c-1.5,9.3-3,25.3,0.8,37.9c1.8,0.1,3.7,0.2,5.5,0.4
		c1.3,0.1,2.7,0.1,4,0.1h4.6c1.2,0,2.3-0.1,3.4-0.1h0.3c1.3-0.1,2.5-0.1,3.7-0.2C333.4,265,330.3,249,329.9,237z"/>
	<path class="st5" d="M349.1,288.2c0.3-0.9,0.6-1.8,0.9-2.7C349.6,286.4,349.3,287.2,349.1,288.2z"/>
	<path class="st5" d="M350.7,317c-0.2-0.9-0.5-1.8-0.7-2.7C350.2,315.2,350.5,316.1,350.7,317z"/>
	<path class="st5" d="M352.3,322.1c-0.5-1.6-1-3.2-1.5-4.9C351.3,318.9,351.8,320.6,352.3,322.1z"/>
	<path class="st5" d="M348.3,291.5c0.2-1,0.4-1.9,0.6-2.8C348.7,289.6,348.5,290.6,348.3,291.5z"/>
	<path class="st5" d="M350,285.5c0.2-0.5,0.4-1,0.5-1.6C350.4,284.4,350.2,285,350,285.5z"/>
	<path class="st4" d="M353.3,324.8c-0.2-0.7-0.5-1.4-0.8-2.2c1.5,4.4,3.3,8.7,5.3,12.8c0,0,23.5-14.7,36.2-10.8c0,0-2.5-3.6-5.5-8.8
		l0,0C379,318,365.9,321.1,353.3,324.8z"/>
	<path class="st5" d="M347.9,294.8c0.1-1,0.2-2.1,0.4-3.1C348.1,292.7,348,293.7,347.9,294.8z"/>
	<path class="st5" d="M383.4,305.8L383.4,305.8z"/>
	<path class="st5" d="M350.7,283.3c0.1-0.3,0.1-0.5,0.2-0.8C350.8,282.7,350.8,283,350.7,283.3z"/>
	<path class="st5" d="M378.8,288.2L378.8,288.2C378.8,288.1,378.8,288.2,378.8,288.2z"/>
	<path class="st4" d="M347.8,298.1c0-1.1,0-2.2,0.1-3.3c-0.3,6.6,0.4,13.1,2.1,19.5c8.6-4.7,20.9-10.5,31.8-12.2l0,0
		c-0.4-1-0.7-1.9-1-2.9c-1.1-3.1-1.7-6.3-2-9.6l0,0C368.6,291.8,356.6,294.8,347.8,298.1z"/>
	<path class="st6" d="M350,314.3L350,314.3c0.2,0.9,0.5,1.8,0.7,2.7l0.1,0.2c0.5,1.7,1,3.4,1.5,4.9c0,0.2,0.1,0.3,0.2,0.5
		c0.2,0.7,0.5,1.5,0.8,2.2c12.6-3.6,25.8-6.7,35.3-8.9l0,0c-1.7-3-3.5-6.4-5.2-10.1l0,0c-0.5-1.2-1.1-2.5-1.5-3.7l0,0
		C370.9,303.8,358.6,309.6,350,314.3z"/>
	<path class="st7" d="M403.3,252.3c0.3,0.6,0.5,1.3,0.8,1.9C403.8,253.5,403.6,252.9,403.3,252.3z"/>
	<path class="st7" d="M404.2,254.7c0.1,0.2,0.1,0.5,0.2,0.7C404.4,255.1,404.3,254.9,404.2,254.7z"/>
	<path class="st7" d="M404.6,256c0.1,0.2,0.1,0.4,0.1,0.6C404.7,256.3,404.7,256.2,404.6,256z"/>
	<path class="st7" d="M404.9,257.2c0,0.2,0.1,0.4,0.1,0.5C404.9,257.5,404.9,257.4,404.9,257.2z"/>
	<path class="st6" d="M375.4,277.3c-0.3-1.5-0.4-3-0.4-4.5c0,0.2,0,0.3,0,0.5c-8.2,1-16.8,4-23.8,7.2l0,0c-0.1,0.7-0.2,1.3-0.3,2
		c-0.1,0.3-0.1,0.5-0.2,0.8c-0.1,0.3-0.1,0.4-0.2,0.6c-0.2,0.5-0.3,1-0.5,1.6l0,0c-0.3,0.9-0.6,1.8-0.9,2.7l-0.1,0.5
		c-0.2,0.9-0.5,1.9-0.6,2.8c0,0.1,0,0.1,0,0.2c-0.2,1-0.3,2-0.4,3.1v0.1c-0.1,1.1-0.1,2.2-0.1,3.3c8.8-3.3,20.8-6.3,31.1-8.5l0,0
		c0-0.4,0-0.9,0-1.3v-0.1c0-0.3,0-0.7,0-1c0.3,0.7,0.7,1.3,1,2c7.9-5.2,19.4-12,30.1-15.4c-2.2-2.6-3.8-5.6-4.8-8.9l0,0
		C395.3,268.5,383.7,273.1,375.4,277.3z"/>
	<path class="st7" d="M381.1,291c-0.4-0.6-0.8-1.2-1.1-1.9C380.3,289.8,380.7,290.4,381.1,291z"/>
	<path class="st7" d="M405.1,259.5L405.1,259.5z"/>
	<path class="st7" d="M404.9,262.6L404.9,262.6z"/>
	<path class="st7" d="M405,263.8C405,263.8,405,263.9,405,263.8C405,263.9,405,263.8,405,263.8z"/>
	<path class="st6" d="M383.6,294.9c2.2,3.1,4.6,6,7.2,8.7c0,0,21.4-15.6,34.7-15.1c0,0-3-2.2-6.8-5.6c-9.3,3.4-21.9,8.3-34,13.5
		C384.4,296,384,295.4,383.6,294.9z"/>
	<path class="st7" d="M404.9,261.9c0-0.3,0-0.7,0.1-1l0,0C404.9,261.3,404.9,261.6,404.9,261.9z"/>
	<path class="st7" d="M412.1,276.3L412.1,276.3z"/>
	<path class="st7" d="M405.1,258.8c0-0.1,0-0.3,0-0.4l0,0C405.1,258.5,405.1,258.7,405.1,258.8z"/>
	<path class="st7" d="M383.4,294.6c-0.8-1.1-1.5-2.2-2.3-3.4C381.9,292.4,382.7,293.5,383.4,294.6z"/>
	<path class="st7" d="M389.1,233.1c0.4,0.4,0.8,0.8,1.2,1.2C389.9,233.9,389.5,233.5,389.1,233.1z"/>
	<path class="st7" d="M387.8,232c-0.4-0.4-0.8-0.7-1.2-1C387,231.3,387.4,231.6,387.8,232z"/>
	<path class="st7" d="M386.5,230.9c-0.4-0.3-0.8-0.7-1.2-1C385.7,230.2,386.1,230.6,386.5,230.9z"/>
	<path class="st7" d="M391.6,235.6c-0.4-0.4-0.8-0.9-1.2-1.2C390.7,234.7,391.1,235.1,391.6,235.6z"/>
	<path class="st7" d="M387.8,232c0.4,0.4,0.8,0.7,1.2,1.1C388.6,232.7,388.2,232.3,387.8,232z"/>
	<path class="st7" d="M394,238.2c-0.7-0.8-1.4-1.5-2-2.3c-0.1-0.1-0.3-0.3-0.4-0.4C392.4,236.4,393.2,237.3,394,238.2z"/>
	<path class="st6" d="M369.6,252.4c-3.5-2.9-7.2-5.5-11-7.8c5.9-5.3,14.9-12.2,25.4-15.6c-3.1-2.2-6-3.5-8.2-3.2l-3.6,0.4v-0.1
		l-0.3,0.1l0,0c-7,0.7-15.4,1.6-19.6,5.7c-1,0.9-1.7,2.1-2.1,3.4c-0.6,2.1,1.3,4.2,4.4,6.5c-6.1,2.7-11.8,6.3-16.9,10.5
		c3.3,4,6.4,8.2,9.1,12.6c7.2-5.2,15.3-9.1,23.9-11.5c3,2.9,5.2,6.1,5.4,9.8l0,0c7.7-4.4,17.5-9.1,27.1-11.1
		c-2.4-5.1-5.5-9.8-9.3-14C386.6,241.3,377.4,245.9,369.6,252.4z"/>
	<path class="st7" d="M385.3,229.9c-0.4-0.3-0.8-0.6-1.2-0.9C384.5,229.3,384.9,229.6,385.3,229.9z"/>
	<path class="st7" d="M375.1,270.7c0-0.2,0-0.4,0.1-0.6C375.1,270.3,375.1,270.5,375.1,270.7z"/>
	<path class="st7" d="M375.7,267.3c0.1-0.4,0.2-0.8,0.3-1.3C376,266.5,375.9,266.9,375.7,267.3z"/>
	<path class="st7" d="M375.3,269.2l0.1-0.5L375.3,269.2z"/>
	<path class="st7" d="M375,272.2c0-0.2,0-0.5,0-0.7C375,271.7,375,272,375,272.2z"/>
	<path class="st7" d="M376.2,264.9c0,0.2,0,0.4-0.1,0.7C376.1,265.3,376.2,265.1,376.2,264.9z"/>
	<path class="st4" d="M376.2,263.3L376.2,263.3c-0.2-3.7-2.4-7-5.4-9.8c-8.6,2.4-16.6,6.3-23.9,11.5c-2.8-4.4-5.8-8.6-9.1-12.6
		c5.2-4.2,10.8-7.8,16.9-10.5c-3.1-2.3-5-4.4-4.4-6.5c0.4-1.3,1.1-2.5,2.1-3.4c-1.5-0.2-3-0.3-4.5-0.4c-6.3-0.4-12.7,0.3-15.8,5.3
		l-2.3,0.2c0.4,12,3.5,27.9,5.8,38.4c-1.2,0.1-2.5,0.2-3.7,0.2c6.3-0.3,12.5-1,18.6-2.2c0.6,2.3,0.8,4.6,0.6,7l0,0
		c7-3.2,15.5-6.2,23.8-7.2c0-0.2,0-0.3,0-0.5c0,1.5,0.1,3,0.4,4.5c8.3-4.2,19.9-8.7,29.9-12.4l0,0c-0.1-0.3-0.1-0.7-0.2-1
		c0,0,0,0,0-0.1c0-0.3-0.1-0.6-0.1-0.9v-0.3c0-0.2,0-0.5,0-0.7c0-0.3,0-0.7,0.1-1l0,0c0-0.3,0.1-0.7,0.1-1v-0.4c0-0.2,0-0.5,0-0.7
		s0-0.3,0-0.5s0-0.4-0.1-0.6c0-0.2-0.1-0.4-0.1-0.5c0-0.2-0.1-0.4-0.1-0.6c-0.1-0.2-0.1-0.4-0.1-0.6c-0.1-0.2-0.1-0.4-0.2-0.6
		s-0.1-0.4-0.2-0.7l-0.2-0.5c-0.2-0.6-0.5-1.3-0.8-1.9l0,0l0,0C393.8,254.2,383.9,258.9,376.2,263.3z M376,266
		c-0.1,0.4-0.2,0.9-0.3,1.3C375.9,266.9,376,266.5,376,266L376,266z M376.1,265.5c0-0.2,0-0.4,0.1-0.7
		C376.2,265.1,376.1,265.3,376.1,265.5L376.1,265.5z M375,271.5c0,0.2,0,0.5,0,0.7C375,272,375,271.7,375,271.5L375,271.5z
		 M375.4,268.7l-0.1,0.5L375.4,268.7z M375.1,270.1c0,0.2,0,0.4-0.1,0.6C375.1,270.5,375.1,270.3,375.1,270.1L375.1,270.1z"/>
	<path class="st4" d="M380,289.1L380,289.1c0.4,0.7,0.7,1.3,1.1,1.9l0.1,0.1c0.8,1.2,1.5,2.4,2.3,3.4l0.2,0.3c0.4,0.5,0.7,1,1.1,1.5
		c12.1-5.2,24.8-10,34-13.5l0,0c-2.3-2.1-4.6-4.3-6.6-6.7l0,0c-0.7-0.8-1.4-1.6-2.1-2.5l0,0C399.4,277.2,387.9,283.9,380,289.1
		L380,289.1z"/>
	<path class="st0" d="M486.6,230c0,0,9.4-10.3,10.3-21.6s15-15.9,15-15.9l-4.7-8.5c0,0-18.8,11.2-19.7,18.8s-11.2,23.4-11.2,23.4
		s0-11.2-5.6-16.9s-3.8-16.9-3.8-16.9l-5.6,6.6c0.9,10.3,12.2,28.1,7.5,35.6s-2.8,17.8-15,32.8c-4.6,5.7-10.5,13.5-16.1,21
		c-9.3,12.4-17.6,24-17.6,24c-6.6,5.2,0.1,17.7,10.3,14.1c6.9-6.4,13.4-13.2,19.4-20.4c6-7.3,11.1-15.2,11.5-20.9
		c0.9-14.1,21.6-36.6,28.1-45.9s24.4-11.2,24.4-11.2l-0.9-7.5C502.5,220.7,486.6,230,486.6,230z"/>
	<path class="st0" d="M270.9,290.6c-4.9,0-8.8,3.9-8.8,8.8s3.9,8.8,8.8,8.8c4.9,0,8.8-3.9,8.8-8.8l0,0
		C279.7,294.6,275.8,290.6,270.9,290.6L270.9,290.6z"/>
	<path class="st0" d="M255.5,347.2c-4.9,0-8.8,3.9-8.8,8.8s3.9,8.8,8.8,8.8s8.8-3.9,8.8-8.8l0,0
		C264.3,351.1,260.3,347.2,255.5,347.2z"/>
	<path class="st0" d="M253.2,408.9c-4.9,0-8.8,3.9-8.8,8.8s3.9,8.8,8.8,8.8c4.9,0,8.8-3.9,8.8-8.8l0,0
		C262.1,412.8,258.1,408.9,253.2,408.9C253.3,408.9,253.3,408.9,253.2,408.9z"/>
	<path class="st8" d="M396.2,135.3c12,0.7,22.5,1,30.4,1c35.9,0,18.1-22.6-31-39.5c-1.9,5.4-4.2,9.1-7,10.1
		c-15.9,5.5-96,0-103.1-22.2c-0.4-1.3-0.3-3.9,0.3-7.4c-41.5-2.3-60.6,3.6-57.4,14.6c2.8,9.5,16.9,17.3,36.6,23.5
		c28.7,9,69.2,14.8,104.3,17.9C378.7,134.2,387.8,134.9,396.2,135.3z"/>
	<path class="st9" d="M285.4,84.8c7.1,22.2,87.2,27.8,103.1,22.2c2.9-1,5.2-4.7,7-10.1c7.1-20.4,7.9-64.5,7.2-73.9
		c-0.8-11.9-20.6,0.8-42-7.9S327.5-4,316.4,1.6c-9.5,4.7-27.3,55.5-30.6,75.8C285.1,80.9,285,83.5,285.4,84.8z"/>
</g>
<title>cokebottle</title>
<g>
	
		<linearGradient id="SVGID_1_" gradientUnits="userSpaceOnUse" x1="404.3661" y1="243.5994" x2="371.1881" y2="262.752" gradientTransform="matrix(0.9742 0.2255 0.2255 -0.9742 -251.4928 287.3759)">
		<stop  offset="0.37" style="stop-color:#FFFFFF"/>
		<stop  offset="0.45" style="stop-color:#FBFEFF"/>
		<stop  offset="0.53" style="stop-color:#EFFAFE"/>
		<stop  offset="0.61" style="stop-color:#DCF4FD"/>
		<stop  offset="0.69" style="stop-color:#C0EBFB"/>
		<stop  offset="0.77" style="stop-color:#9DE0F9"/>
		<stop  offset="0.84" style="stop-color:#72D2F6"/>
		<stop  offset="0.92" style="stop-color:#3EC2F3"/>
		<stop  offset="1" style="stop-color:#04AFEF"/>
		<stop  offset="1" style="stop-color:#00AEEF"/>
	</linearGradient>
	<path class="st10" d="M177.3,106.6c0,0,1.1,0.6,0.7,1c-0.4,0.4-2.2,3.5-2.2,3.5s0.1,1.3,1.4,1.6l-4.1,13c0,0-6,14.9-7,15.6
		c-1,0.6,21.8,8.5,25.6,6c0,0,0.1-25.8,3-30.1l1.7-0.6l-0.7-5l1.3-0.1C197,111.4,187.8,107.6,177.3,106.6z"/>
	
		<linearGradient id="SVGID_2_" gradientUnits="userSpaceOnUse" x1="365.535" y1="166.8775" x2="409.2617" y2="166.8775" gradientTransform="matrix(0.9742 0.2255 0.2255 -0.9742 -251.4928 287.3759)">
		<stop  offset="0.16" style="stop-color:#A97C50"/>
		<stop  offset="0.17" style="stop-color:#A77A4E"/>
		<stop  offset="0.25" style="stop-color:#91663E"/>
		<stop  offset="0.34" style="stop-color:#815732"/>
		<stop  offset="0.44" style="stop-color:#784F2B"/>
		<stop  offset="0.58" style="stop-color:#754C29"/>
		<stop  offset="1" style="stop-color:#3C2415"/>
	</linearGradient>
	
		<linearGradient id="SVGID_3_" gradientUnits="userSpaceOnUse" x1="421.4697" y1="224.8089" x2="355.5184" y2="110.5777" gradientTransform="matrix(0.9742 0.2255 0.2255 -0.9742 -251.4928 287.3759)">
		<stop  offset="0.37" style="stop-color:#FFFFFF"/>
		<stop  offset="0.45" style="stop-color:#FBFEFF"/>
		<stop  offset="0.53" style="stop-color:#EFFAFE"/>
		<stop  offset="0.61" style="stop-color:#DCF4FD"/>
		<stop  offset="0.69" style="stop-color:#C0EBFB"/>
		<stop  offset="0.77" style="stop-color:#9DE0F9"/>
		<stop  offset="0.84" style="stop-color:#72D2F6"/>
		<stop  offset="0.92" style="stop-color:#3EC2F3"/>
		<stop  offset="1" style="stop-color:#04AFEF"/>
		<stop  offset="1" style="stop-color:#00AEEF"/>
	</linearGradient>
	<path class="st11" d="M165.5,142.7l-12,25c0,0-0.4,2.2,0.2,2.3l-4.2,11c0,0-3.1,9.4-3.3,12.1c-0.2,2.7-0.4,5-1.1,5.5
		c-0.7,0.5-1.2,1.7-1.2,1.7s0.3,3,1.4,3.4s-5.8,39-7.3,39.9s-11.2,18.6-7.7,23.9s18.4,18.1,36.3,10c0,0,9.2-1.6,7.3-26.5l-0.3-2.8
		l12.3-37c0,0,1.6-2.4-0.1-4.5c0,0,6.3-12.7,4.5-28.1l0.9-0.9l0.2-29.8l-25.6-6L165.5,142.7z"/>
	<path class="st1" d="M153.5,172.9c0,0,24.3,11,36.5,7.9c0,0-3.4,24.8-4.3,24.9s-15.2,4.3-38.8-8.5
		C146.8,197.3,151.3,172.9,153.5,172.9z"/>
	<path class="st4" d="M153.4,175.4c0,0,27.2,10.1,34.9,8.1c0,0-1.9,19.8-3.3,20.9c-1.4,1.1-29.5-1.9-37.2-8.3
		C147.8,196.2,151.9,175.2,153.4,175.4z"/>
	<path class="st1" d="M158.5,182.4c0,0-1.6,1-0.7,1.7s1.6-1.9,1.4-2.1s-1-1.4-2.6-0.3c-1.6,1-2.6,1.7-3,2.2
		c-0.4,0.6-1.8,2.1-2.1,3.1c-0.3,0.7-0.5,1.5-0.7,2.3c-0.2,1-0.5,2.9,0.6,3.4c1.1,0.5,2.5,0.9,3.3,0.8c0.8-0.1,3.7-0.2,5,2
		c0,0,3.5,0.7,4.5,1.6c0,0-0.7-3.2-3.9-4c-3.2-0.8-5.2-0.2-6.7-0.7s-1.3-2.2-1.3-2.2s0.3-3.2,1.9-4.7s3-3.1,3.4-3.1
		C157.4,182.3,158.3,181.7,158.5,182.4z"/>
	<path class="st1" d="M157.7,184.5c-1-0.6-2.9,1.7-2.9,1.7c-0.7,0.8-1.1,1.8-1.3,2.8c-0.3,1.4,0.2,1.4,1.4,1c1.2-0.4,2.8-3,2.8-3
		S158.7,185.2,157.7,184.5z M154.9,189c-0.7-0.2,1.2-2.2,1.2-2.2l0.5,0.8C156.6,187.5,155.6,189.1,154.9,189z M157.2,186.7
		c-0.6,0-0.4-0.6-0.3-0.9c0.1-0.2,0.3-0.4,0.5-0.3c0.1,0,0.2,0.1,0.2,0.1C157.8,185.8,157.2,186.7,157.2,186.7L157.2,186.7z"/>
	<path class="st1" d="M165.8,190.5l-1,1c-2.7,1.7,2.8-3.9,2.7-4.1c0-0.2-2.6-0.6-3.7-0.5s-4,4.5-5.4,3.5c-1.4-1,4.1-4.7,2.9-3.6
		c-1.2,1.1-0.5,1.3-0.5,1.3c1.7-0.3,1.3-1.9,0.6-2.3c-0.7-0.4-2.6,1-3.1,1.3c-0.2,0.2-0.6,0.2-0.8,0l-0.4-0.1l-0.6,0.6l1.1,0.5
		c-0.7,0.8-1,1.8-0.9,2.9c0.2,1.7,3.3,0.2,3.3,0.2c-1,1.6,2,1.5,2,1.5c0.4,1.9,4-1.2,4.2-1.8C166.6,190.2,165.8,190.5,165.8,190.5z
		 M162.4,191.4c-0.8,0.2,1-3.3,2.7-3.5C165.1,187.9,163.2,191.2,162.4,191.4L162.4,191.4z"/>
	<polygon class="st1" points="168.3,187.5 167.2,189 168.6,189.4 169.9,187.9 	"/>
	<path class="st1" d="M170.5,194.8c0,0-1.6,0.5-1.8,1c-0.3,0.5,0.1-2.7,3-3.9c2.9-1.2,1.4,3.1,0.7,3.6c0,0-1.6,2.1-3,2.3
		c-1.4,0.2-3.9,0.4-3.9-2.1c0-2.5,4.5-6.9,4.5-6.9s4.3-3.5,6.7-2.6c2.4,0.9-0.9,4.5-0.9,4.5s-1.9,1.9-2.2,0.3
		c-0.3-1.6,2.8-3.9,2.8-3.9s-3.8,0.9-5.6,3.5c-1.9,2.6-3.5,4.7-3.1,5.3c0.5,0.6,1,1.2,1.8,0.9c0.8-0.3,3.1-2.3,3.1-3.2
		c-0.1-0.9-0.5-1.2-2,1"/>
	<path class="st1" d="M177.5,186.7c0,0,2.4-1.4,5,1.8c0,0,1.8,2.4,3.9-0.9c0,0,0,3.2-3.7,3.5c0,0-3.7-3.8-5-3.6
		C176.3,187.5,177.5,186.7,177.5,186.7z"/>
	<path class="st1" d="M176.8,192.5c-0.6-0.3-3.1,2-3.1,2c-2.2,2.7-2,4.4-0.5,4.6c1.5,0.1,3-2.5,3.9-3.9
		C178.1,193.8,177.4,192.9,176.8,192.5z M173.8,196.9l1.2-1.9l0.9,0.9C174.6,198.6,173.8,196.9,173.8,196.9L173.8,196.9z M176.5,195
		c-0.5,0.4-0.5-0.7-0.5-0.7s0.1-0.1,0.2-0.2c0.2-0.2,0.4-0.5,0.5-0.4C176.9,193.7,177,194.7,176.5,195L176.5,195z"/>
	<path class="st1" d="M184.8,193.5L184.8,193.5z"/>
	<path class="st1" d="M182.3,198.2c-0.4-0.1,2.3-4.4,2.5-4.7c0,0.1-0.2,0.2-1.3-0.1c-1.2-0.3-2.8,1.8-4.6,3.9
		c-1.8,2.2,0.2-1.5,0.2-1.5c1-0.7,1.9-1.4,2.7-2.2c1.1-1.1,4.7-6.6,2.6-6.4c-2.1,0.2-6.9,8.1-6.9,8.1l-0.8,0.2l-0.4-0.1l-0.3,0.8
		c0,0,1.2-0.2,1.1-0.2c-0.1,0.1-0.6,1.6-0.6,1.6c-0.8,3,2.3,1.1,2.3,1.1c-0.1,2.1,1.7,0.4,1.7,0.4c0,1,0.8,0.7,0.8,0.7
		c2.7-1.6,2.4-3.4,2.4-3.4S182.7,198.3,182.3,198.2z M184.4,187.8c0.1,0.3,0,1.5-0.5,1.6s-0.7-0.4-0.7-0.4S184.3,187.5,184.4,187.8
		L184.4,187.8z M182.2,190.6l0.4-0.4c0,0,0.6,0.2,0.4,1c-0.2,0.8-3.1,3.6-3.3,3.5S182.2,190.6,182.2,190.6L182.2,190.6z M180.7,198
		c-0.1-0.5,2.1-3.6,2.1-3.6s0.3-0.3,0.2,0.4C182.9,195.6,180.8,198.4,180.7,198L180.7,198z"/>
	
		<radialGradient id="SVGID_4_" cx="386.5791" cy="273.8142" r="7.9419" gradientTransform="matrix(0.9742 0.2255 0.2255 -0.9742 -251.4928 287.3759)" gradientUnits="userSpaceOnUse">
		<stop  offset="0" style="stop-color:#F4929E"/>
		<stop  offset="0.16" style="stop-color:#F28D99"/>
		<stop  offset="0.36" style="stop-color:#EB7E8A"/>
		<stop  offset="0.57" style="stop-color:#DF6572"/>
		<stop  offset="0.8" style="stop-color:#CF4351"/>
		<stop  offset="1" style="stop-color:#BE1E2D"/>
	</radialGradient>
	<path class="st12" d="M175.7,108c0,0,18.6,3.4,20.2,4.9c1.6,1.6,1.3-5.1-1.7-6.1c-3-0.9-9.6-3.2-14.6-3.1
		C179.7,103.7,177.7,103.1,175.7,108z"/>
</g>
<title>cokebottle</title>
<g>
	
		<linearGradient id="SVGID_5_" gradientUnits="userSpaceOnUse" x1="719.4296" y1="300.1129" x2="686.2516" y2="319.2655" gradientTransform="matrix(0.986 -0.1669 -0.1669 -0.986 -163.7518 564.4189)">
		<stop  offset="0.37" style="stop-color:#FFFFFF"/>
		<stop  offset="0.45" style="stop-color:#FBFEFF"/>
		<stop  offset="0.53" style="stop-color:#EFFAFE"/>
		<stop  offset="0.61" style="stop-color:#DCF4FD"/>
		<stop  offset="0.69" style="stop-color:#C0EBFB"/>
		<stop  offset="0.77" style="stop-color:#9DE0F9"/>
		<stop  offset="0.84" style="stop-color:#72D2F6"/>
		<stop  offset="0.92" style="stop-color:#3EC2F3"/>
		<stop  offset="1" style="stop-color:#04AFEF"/>
		<stop  offset="1" style="stop-color:#00AEEF"/>
	</linearGradient>
	<path class="st13" d="M463.6,124.2c0,0,1.2,0.2,1,0.7c-0.2,0.5-0.7,4.1-0.7,4.1s0.6,1.2,1.9,0.9l1.2,13.6c0,0,0.2,16.1-0.5,17.1
		c-0.7,1,23.4-0.5,25.9-4.3c0,0-9.8-23.8-8.8-28.9l1.3-1.2l-2.5-4.4l1.1-0.6C483.6,121.1,473.7,121.1,463.6,124.2z"/>
	
		<linearGradient id="SVGID_6_" gradientUnits="userSpaceOnUse" x1="680.5986" y1="223.391" x2="724.3252" y2="223.391" gradientTransform="matrix(0.986 -0.1669 -0.1669 -0.986 -163.7518 564.4189)">
		<stop  offset="0.16" style="stop-color:#A97C50"/>
		<stop  offset="0.17" style="stop-color:#A77A4E"/>
		<stop  offset="0.25" style="stop-color:#91663E"/>
		<stop  offset="0.34" style="stop-color:#815732"/>
		<stop  offset="0.44" style="stop-color:#784F2B"/>
		<stop  offset="0.58" style="stop-color:#754C29"/>
		<stop  offset="1" style="stop-color:#3C2415"/>
	</linearGradient>
	
		<linearGradient id="SVGID_7_" gradientUnits="userSpaceOnUse" x1="736.5333" y1="281.3224" x2="670.582" y2="167.0912" gradientTransform="matrix(0.986 -0.1669 -0.1669 -0.986 -163.7518 564.4189)">
		<stop  offset="0.37" style="stop-color:#FFFFFF"/>
		<stop  offset="0.45" style="stop-color:#FBFEFF"/>
		<stop  offset="0.53" style="stop-color:#EFFAFE"/>
		<stop  offset="0.61" style="stop-color:#DCF4FD"/>
		<stop  offset="0.69" style="stop-color:#C0EBFB"/>
		<stop  offset="0.77" style="stop-color:#9DE0F9"/>
		<stop  offset="0.84" style="stop-color:#72D2F6"/>
		<stop  offset="0.92" style="stop-color:#3EC2F3"/>
		<stop  offset="1" style="stop-color:#04AFEF"/>
		<stop  offset="1" style="stop-color:#00AEEF"/>
	</linearGradient>
	<path class="st14" d="M466.6,162.1l-1.5,27.7c0,0,0.5,2.2,1.1,2.1l0.4,11.8c0,0,0.8,9.9,1.6,12.4c0.9,2.5,1.6,4.8,1.1,5.5
		c-0.5,0.7-0.5,2-0.5,2s1.5,2.6,2.6,2.6s9.7,38.2,8.6,39.6s-3.2,21.5,2.1,25c5.3,3.5,24,9.6,37.3-4.7c0,0,7.9-5-3.5-27.2l-1.4-2.5
		l-2.9-38.9c0,0,0.5-2.8-1.8-4.1c0,0,0.9-14.2-6.7-27.7l0.5-1.2l-11.3-27.6l-25.9,4.3L466.6,162.1z"/>
	<path class="st1" d="M467.2,194.6c0,0,26.6,0.8,36.7-6.7c0,0,6.4,24.2,5.6,24.7c-0.8,0.5-12.4,9.8-39.1,7.1
		C470.4,219.6,465.2,195.4,467.2,194.6z"/>
	<path class="st4" d="M468.1,196.9c0,0,28.9-1.2,35.3-5.9c0,0,5.9,19,5,20.5c-0.9,1.5-28,9.6-37.5,6.7
		C470.9,218.2,466.6,197.3,468.1,196.9z"/>
	<path class="st1" d="M475.4,201.3c0,0-1.1,1.6,0,1.8c1.1,0.2,0.7-2.4,0.5-2.4c-0.2-0.1-1.4-0.9-2.5,0.7c-1.1,1.5-1.8,2.5-1.9,3.2
		c-0.2,0.7-0.8,2.6-0.7,3.7c0,0.8,0.1,1.6,0.2,2.4c0.2,1,0.7,2.9,1.8,2.9s2.6-0.2,3.3-0.6c0.7-0.4,3.3-1.6,5.4,0
		c0,0,3.5-0.7,4.7-0.3c0,0-1.9-2.7-5.2-2.1c-3.3,0.6-4.8,1.8-6.5,1.9c-1.6,0.1-2.1-1.5-2.1-1.5s-0.9-3.1,0-5.1c0.9-2,1.6-4,2-4.2
		C474.4,201.7,474.9,200.8,475.4,201.3z"/>
	<path class="st1" d="M475.5,203.6c-1.2-0.2-2,2.7-2,2.7c-0.3,1-0.4,2.1-0.2,3.1c0.3,1.3,0.7,1.2,1.7,0.4c1-0.8,1.4-3.8,1.4-3.8
		S476.7,203.8,475.5,203.6z M474.6,208.8c-0.7,0.1,0.3-2.5,0.3-2.5l0.8,0.5C475.7,206.8,475.3,208.7,474.6,208.8z M475.9,205.9
		c-0.6,0.2-0.6-0.4-0.7-0.8c0-0.2,0.1-0.5,0.4-0.5c0.1,0,0.2,0,0.3,0C476.1,204.8,475.9,205.9,475.9,205.9L475.9,205.9z"/>
	<path class="st1" d="M485.3,206l-0.5,1.3c-1.9,2.6,1.1-4.6,1-4.8c-0.1-0.2-2.6,0.5-3.6,1c-1,0.5-1.9,5.7-3.6,5.3
		c-1.7-0.4,2-5.9,1.3-4.4c-0.7,1.5,0.1,1.4,0.1,1.4c1.4-1,0.4-2.2-0.3-2.4c-0.8-0.1-2,2-2.3,2.4c-0.1,0.3-0.5,0.4-0.8,0.3l-0.4,0.1
		l-0.3,0.7l1.2,0c-0.3,1-0.2,2.1,0.3,3c0.8,1.5,3.1-1.1,3.1-1.1c-0.3,1.9,2.4,0.6,2.4,0.6c1.1,1.6,3.2-2.6,3.2-3.3
		C485.9,205.5,485.3,206,485.3,206z M482.5,208.2c-0.7,0.5-0.4-3.5,1.1-4.2C483.6,203.9,483.1,207.7,482.5,208.2L482.5,208.2z"/>
	<polygon class="st1" points="486.4,202.3 486,204.2 487.5,204 488.1,202 	"/>
	<path class="st1" d="M491.3,208.2c0,0-1.2,1.1-1.3,1.6c-0.1,0.5-0.9-2.6,1.3-4.7c2.2-2.2,2.5,2.4,2,3c0,0-0.6,2.6-1.9,3.3
		s-3.4,1.8-4.4-0.5c-0.9-2.3,1.5-8.1,1.5-8.1s2.6-4.9,5.2-5c2.6-0.1,0.9,4.5,0.9,4.5s-1,2.5-1.9,1.2c-0.9-1.3,1.1-4.6,1.1-4.6
		s-3.1,2.3-3.9,5.4s-1.5,5.7-0.8,6.1c0.7,0.4,1.4,0.7,2,0.2c0.6-0.6,2-3.4,1.6-4.1s-1-1-1.5,1.7"/>
	<path class="st1" d="M494.6,198c0,0,1.6-2.2,5.3-0.3c0,0,2.6,1.5,3.3-2.3c0,0,1.3,2.9-2.1,4.6c0,0-4.8-2.1-6-1.4
		C493.9,199.2,494.6,198,494.6,198z"/>
	<path class="st1" d="M496.2,203.7c-0.7-0.1-2.1,3-2.1,3c-1,3.3-0.2,4.9,1.3,4.4s1.8-3.5,2.1-5.1
		C497.9,204.3,496.9,203.8,496.2,203.7z M495.1,208.9l0.4-2.2l1.1,0.5C496.5,210.2,495.1,208.9,495.1,208.9L495.1,208.9z
		 M496.9,206.1c-0.3,0.6-0.7-0.5-0.7-0.5s0-0.1,0-0.3c0-0.3,0.2-0.6,0.3-0.6C496.8,204.7,497.2,205.6,496.9,206.1L496.9,206.1z"/>
	<path class="st1" d="M504,201.5L504,201.5z"/>
	<path class="st1" d="M503.5,206.8c-0.4,0,0.5-5,0.5-5.3c0,0.1-0.1,0.3-1.2,0.4c-1.2,0.1-1.9,2.7-2.7,5.4c-0.8,2.7-0.4-1.5-0.4-1.5
		c0.6-1,1.2-2,1.7-3.1c0.6-1.4,1.8-7.9-0.1-6.9c-1.8,1-3.2,10.1-3.2,10.1l-0.7,0.5l-0.5,0l0.1,0.9c0,0,1.1-0.7,1-0.6s0,1.7,0,1.7
		c0.5,3.1,2.5,0.1,2.5,0.1c0.7,2,1.7-0.3,1.7-0.3c0.4,0.9,1,0.4,1,0.4c1.9-2.5,0.9-4,0.9-4S503.9,206.8,503.5,206.8z M501.4,196.4
		c0.2,0.2,0.6,1.4,0.2,1.7c-0.4,0.3-0.8-0.1-0.8-0.1S501.2,196.2,501.4,196.4L501.4,196.4z M500.4,199.8l0.2-0.5
		c0,0,0.6-0.1,0.7,0.7s-1.4,4.5-1.7,4.5C499.5,204.4,500.4,199.8,500.4,199.8L500.4,199.8z M501.9,207.2c-0.3-0.4,0.6-4.1,0.6-4.1
		s0.2-0.4,0.3,0.3C503,204.2,502.2,207.6,501.9,207.2L501.9,207.2z"/>
	
		<radialGradient id="SVGID_8_" cx="701.6427" cy="330.3277" r="7.9419" gradientTransform="matrix(0.986 -0.1669 -0.1669 -0.986 -163.7518 564.4189)" gradientUnits="userSpaceOnUse">
		<stop  offset="0" style="stop-color:#F4929E"/>
		<stop  offset="0.16" style="stop-color:#F28D99"/>
		<stop  offset="0.36" style="stop-color:#EB7E8A"/>
		<stop  offset="0.57" style="stop-color:#DF6572"/>
		<stop  offset="0.8" style="stop-color:#CF4351"/>
		<stop  offset="1" style="stop-color:#BE1E2D"/>
	</radialGradient>
	<path class="st15" d="M462.7,126c0,0,18.5-4.1,20.6-3.2c2.1,0.8-0.8-5.2-3.9-4.9c-3.1,0.3-10,0.8-14.7,2.7
		C464.7,120.6,462.6,120.8,462.7,126z"/>
</g>
</svg>
