<svg xmlns="http://www.w3.org/2000/svg" viewBox="0 0 203.97 238.1"><defs><style>.cls-1{fill:#e04848;}.cls-2{fill:#1f8c58;}</style></defs><title>wreath</title><g id="Layer_2" data-name="Layer 2"><g id="Layer_1-2" data-name="Layer 1"><path class="cls-1" d="M91.9,68.9s12.7-41.2,45.2-65l2.8,17.3L169.6,44s-53.5,10.6-63,24.9"/><path class="cls-1" d="M118,64.8S96.2,12.7,57.9,0l-.2,34.1L38.1,43.7S90.5,58.5,104,69.3"/><path class="cls-2" d="M107.4,238.1a110.81,110.81,0,0,0,85.4-40.2A102,102,0,1,0,0,151.7v2.4A110.63,110.63,0,0,0,107.4,238.1Zm-4.3-151a54.5,54.5,0,0,1,54.5,54.5,53.75,53.75,0,0,1-5.9,24.6,52,52,0,0,1-101.8-13A54.39,54.39,0,0,1,91.4,88.3a58.09,58.09,0,0,1,11.7-1.2Z"/><path class="cls-1" d="M103.1,46.6S86.2,68.7,71.2,76.7,51,104.5,52.1,110.9L46.1,96l-16.5,9S46.1,75.1,60.7,67.5,84.3,58,92.2,46.6"/><path class="cls-1" d="M89.6,36.6s16.9,22.1,31.9,30.1,20.2,27.8,19.1,34.2l6-14.9,16.5,9S146.6,65.1,132,57.5,108.4,48,100.5,36.6"/></g></g></svg>